<?xml version="1.0" encoding="utf-8" standalone="no"?>
<!DOCTYPE svg PUBLIC "-//W3C//DTD SVG 1.1//EN"
  "http://www.w3.org/Graphics/SVG/1.1/DTD/svg11.dtd">
<svg xmlns:xlink="http://www.w3.org/1999/xlink" width="487.08pt" height="194.724pt" viewBox="0 0 487.08 194.724" xmlns="http://www.w3.org/2000/svg" version="1.1">
 <metadata>
  <rdf:RDF xmlns:dc="http://purl.org/dc/elements/1.1/" xmlns:cc="http://creativecommons.org/ns#" xmlns:rdf="http://www.w3.org/1999/02/22-rdf-syntax-ns#">
   <cc:Work>
    <dc:type rdf:resource="http://purl.org/dc/dcmitype/StillImage"/>
    <dc:date>2024-08-26T17:59:25.753396</dc:date>
    <dc:format>image/svg+xml</dc:format>
    <dc:creator>
     <cc:Agent>
      <dc:title>Matplotlib v3.8.3, https://matplotlib.org/</dc:title>
     </cc:Agent>
    </dc:creator>
   </cc:Work>
  </rdf:RDF>
 </metadata>
 <defs>
  <style type="text/css">*{stroke-linejoin: round; stroke-linecap: butt}</style>
 </defs>
 <g id="figure_1">
  <g id="patch_1">
   <path d="M 0 194.724 
L 487.08 194.724 
L 487.08 0 
L 0 0 
z
" style="fill: #ffffff"/>
  </g>
  <g id="axes_1">
   <g id="patch_2">
    <path d="M 59.13 20.88 
C 61.765058 20.88 64.292546 19.83308 66.155813 17.969813 
C 68.01908 16.106546 69.066 13.579058 69.066 10.944 
C 69.066 8.308942 68.01908 5.781454 66.155813 3.918187 
C 64.292546 2.05492 61.765058 1.008 59.13 1.008 
C 56.494942 1.008 53.967454 2.05492 52.104187 3.918187 
C 50.24092 5.781454 49.194 8.308942 49.194 10.944 
C 49.194 13.579058 50.24092 16.106546 52.104187 17.969813 
C 53.967454 19.83308 56.494942 20.88 59.13 20.88 
z
" style="fill: #8caed1; stroke: #8caed1; stroke-linejoin: miter"/>
   </g>
   <g id="patch_3">
    <path d="M 182.07 20.88 
C 184.705058 20.88 187.232546 19.83308 189.095813 17.969813 
C 190.95908 16.106546 192.006 13.579058 192.006 10.944 
C 192.006 8.308942 190.95908 5.781454 189.095813 3.918187 
C 187.232546 2.05492 184.705058 1.008 182.07 1.008 
C 179.434942 1.008 176.907454 2.05492 175.044187 3.918187 
C 173.18092 5.781454 172.134 8.308942 172.134 10.944 
C 172.134 13.579058 173.18092 16.106546 175.044187 17.969813 
C 176.907454 19.83308 179.434942 20.88 182.07 20.88 
z
" style="fill: #8caed1; stroke: #8caed1; stroke-linejoin: miter"/>
   </g>
   <g id="patch_4">
    <path d="M 305.01 20.88 
C 307.645058 20.88 310.172546 19.83308 312.035813 17.969813 
C 313.89908 16.106546 314.946 13.579058 314.946 10.944 
C 314.946 8.308942 313.89908 5.781454 312.035813 3.918187 
C 310.172546 2.05492 307.645058 1.008 305.01 1.008 
C 302.374942 1.008 299.847454 2.05492 297.984187 3.918187 
C 296.12092 5.781454 295.074 8.308942 295.074 10.944 
C 295.074 13.579058 296.12092 16.106546 297.984187 17.969813 
C 299.847454 19.83308 302.374942 20.88 305.01 20.88 
z
" style="fill: #8caed1; stroke: #8caed1; stroke-linejoin: miter"/>
   </g>
   <g id="patch_5">
    <path d="M 427.95 20.88 
C 430.585058 20.88 433.112546 19.83308 434.975813 17.969813 
C 436.83908 16.106546 437.886 13.579058 437.886 10.944 
C 437.886 8.308942 436.83908 5.781454 434.975813 3.918187 
C 433.112546 2.05492 430.585058 1.008 427.95 1.008 
C 425.314942 1.008 422.787454 2.05492 420.924187 3.918187 
C 419.06092 5.781454 418.014 8.308942 418.014 10.944 
C 418.014 13.579058 419.06092 16.106546 420.924187 17.969813 
C 422.787454 19.83308 425.314942 20.88 427.95 20.88 
z
" style="fill: #8caed1; stroke: #8caed1; stroke-linejoin: miter"/>
   </g>
   <g id="patch_6">
    <path d="M 26.1 92.88 
C 28.735058 92.88 31.262546 91.83308 33.125813 89.969813 
C 34.98908 88.106546 36.036 85.579058 36.036 82.944 
C 36.036 80.308942 34.98908 77.781454 33.125813 75.918187 
C 31.262546 74.05492 28.735058 73.008 26.1 73.008 
C 23.464942 73.008 20.937454 74.05492 19.074187 75.918187 
C 17.21092 77.781454 16.164 80.308942 16.164 82.944 
C 16.164 85.579058 17.21092 88.106546 19.074187 89.969813 
C 20.937454 91.83308 23.464942 92.88 26.1 92.88 
z
" style="fill: #8caed1; stroke: #8caed1; stroke-linejoin: miter"/>
   </g>
   <g id="patch_7">
    <path d="M 82.98 92.88 
C 85.615058 92.88 88.142546 91.83308 90.005813 89.969813 
C 91.86908 88.106546 92.916 85.579058 92.916 82.944 
C 92.916 80.308942 91.86908 77.781454 90.005813 75.918187 
C 88.142546 74.05492 85.615058 73.008 82.98 73.008 
C 80.344942 73.008 77.817454 74.05492 75.954187 75.918187 
C 74.09092 77.781454 73.044 80.308942 73.044 82.944 
C 73.044 85.579058 74.09092 88.106546 75.954187 89.969813 
C 77.817454 91.83308 80.344942 92.88 82.98 92.88 
z
" style="fill: #8caed1; stroke: #8caed1; stroke-linejoin: miter"/>
   </g>
   <g id="patch_8">
    <path d="M 26.1 136.08 
C 28.735058 136.08 31.262546 135.03308 33.125813 133.169813 
C 34.98908 131.306546 36.036 128.779058 36.036 126.144 
C 36.036 123.508942 34.98908 120.981454 33.125813 119.118187 
C 31.262546 117.25492 28.735058 116.208 26.1 116.208 
C 23.464942 116.208 20.937454 117.25492 19.074187 119.118187 
C 17.21092 120.981454 16.164 123.508942 16.164 126.144 
C 16.164 128.779058 17.21092 131.306546 19.074187 133.169813 
C 20.937454 135.03308 23.464942 136.08 26.1 136.08 
z
" style="fill: #8caed1; stroke: #8caed1; stroke-linejoin: miter"/>
   </g>
   <g id="patch_9">
    <path d="M 82.98 136.08 
C 85.615058 136.08 88.142546 135.03308 90.005813 133.169813 
C 91.86908 131.306546 92.916 128.779058 92.916 126.144 
C 92.916 123.508942 91.86908 120.981454 90.005813 119.118187 
C 88.142546 117.25492 85.615058 116.208 82.98 116.208 
C 80.344942 116.208 77.817454 117.25492 75.954187 119.118187 
C 74.09092 120.981454 73.044 123.508942 73.044 126.144 
C 73.044 128.779058 74.09092 131.306546 75.954187 133.169813 
C 77.817454 135.03308 80.344942 136.08 82.98 136.08 
z
" style="fill: #8caed1; stroke: #8caed1; stroke-linejoin: miter"/>
   </g>
   <g id="patch_10">
    <path d="M 152.1 92.88 
C 154.735058 92.88 157.262546 91.83308 159.125813 89.969813 
C 160.98908 88.106546 162.036 85.579058 162.036 82.944 
C 162.036 80.308942 160.98908 77.781454 159.125813 75.918187 
C 157.262546 74.05492 154.735058 73.008 152.1 73.008 
C 149.464942 73.008 146.937454 74.05492 145.074187 75.918187 
C 143.21092 77.781454 142.164 80.308942 142.164 82.944 
C 142.164 85.579058 143.21092 88.106546 145.074187 89.969813 
C 146.937454 91.83308 149.464942 92.88 152.1 92.88 
z
" style="fill: #8caed1; stroke: #8caed1; stroke-linejoin: miter"/>
   </g>
   <g id="patch_11">
    <path d="M 208.98 92.88 
C 211.615058 92.88 214.142546 91.83308 216.005813 89.969813 
C 217.86908 88.106546 218.916 85.579058 218.916 82.944 
C 218.916 80.308942 217.86908 77.781454 216.005813 75.918187 
C 214.142546 74.05492 211.615058 73.008 208.98 73.008 
C 206.344942 73.008 203.817454 74.05492 201.954187 75.918187 
C 200.09092 77.781454 199.044 80.308942 199.044 82.944 
C 199.044 85.579058 200.09092 88.106546 201.954187 89.969813 
C 203.817454 91.83308 206.344942 92.88 208.98 92.88 
z
" style="fill: #8caed1; stroke: #8caed1; stroke-linejoin: miter"/>
   </g>
   <g id="patch_12">
    <path d="M 152.1 136.08 
C 154.735058 136.08 157.262546 135.03308 159.125813 133.169813 
C 160.98908 131.306546 162.036 128.779058 162.036 126.144 
C 162.036 123.508942 160.98908 120.981454 159.125813 119.118187 
C 157.262546 117.25492 154.735058 116.208 152.1 116.208 
C 149.464942 116.208 146.937454 117.25492 145.074187 119.118187 
C 143.21092 120.981454 142.164 123.508942 142.164 126.144 
C 142.164 128.779058 143.21092 131.306546 145.074187 133.169813 
C 146.937454 135.03308 149.464942 136.08 152.1 136.08 
z
" style="fill: #8caed1; stroke: #8caed1; stroke-linejoin: miter"/>
   </g>
   <g id="patch_13">
    <path d="M 208.98 136.08 
C 211.615058 136.08 214.142546 135.03308 216.005813 133.169813 
C 217.86908 131.306546 218.916 128.779058 218.916 126.144 
C 218.916 123.508942 217.86908 120.981454 216.005813 119.118187 
C 214.142546 117.25492 211.615058 116.208 208.98 116.208 
C 206.344942 116.208 203.817454 117.25492 201.954187 119.118187 
C 200.09092 120.981454 199.044 123.508942 199.044 126.144 
C 199.044 128.779058 200.09092 131.306546 201.954187 133.169813 
C 203.817454 135.03308 206.344942 136.08 208.98 136.08 
z
" style="fill: #8caed1; stroke: #8caed1; stroke-linejoin: miter"/>
   </g>
   <g id="patch_14">
    <path d="M 278.1 92.88 
C 280.735058 92.88 283.262546 91.83308 285.125813 89.969813 
C 286.98908 88.106546 288.036 85.579058 288.036 82.944 
C 288.036 80.308942 286.98908 77.781454 285.125813 75.918187 
C 283.262546 74.05492 280.735058 73.008 278.1 73.008 
C 275.464942 73.008 272.937454 74.05492 271.074187 75.918187 
C 269.21092 77.781454 268.164 80.308942 268.164 82.944 
C 268.164 85.579058 269.21092 88.106546 271.074187 89.969813 
C 272.937454 91.83308 275.464942 92.88 278.1 92.88 
z
" style="fill: #8caed1; stroke: #8caed1; stroke-linejoin: miter"/>
   </g>
   <g id="patch_15">
    <path d="M 334.98 92.88 
C 337.615058 92.88 340.142546 91.83308 342.005813 89.969813 
C 343.86908 88.106546 344.916 85.579058 344.916 82.944 
C 344.916 80.308942 343.86908 77.781454 342.005813 75.918187 
C 340.142546 74.05492 337.615058 73.008 334.98 73.008 
C 332.344942 73.008 329.817454 74.05492 327.954187 75.918187 
C 326.09092 77.781454 325.044 80.308942 325.044 82.944 
C 325.044 85.579058 326.09092 88.106546 327.954187 89.969813 
C 329.817454 91.83308 332.344942 92.88 334.98 92.88 
z
" style="fill: #8caed1; stroke: #8caed1; stroke-linejoin: miter"/>
   </g>
   <g id="patch_16">
    <path d="M 278.1 136.08 
C 280.735058 136.08 283.262546 135.03308 285.125813 133.169813 
C 286.98908 131.306546 288.036 128.779058 288.036 126.144 
C 288.036 123.508942 286.98908 120.981454 285.125813 119.118187 
C 283.262546 117.25492 280.735058 116.208 278.1 116.208 
C 275.464942 116.208 272.937454 117.25492 271.074187 119.118187 
C 269.21092 120.981454 268.164 123.508942 268.164 126.144 
C 268.164 128.779058 269.21092 131.306546 271.074187 133.169813 
C 272.937454 135.03308 275.464942 136.08 278.1 136.08 
z
" style="fill: #8caed1; stroke: #8caed1; stroke-linejoin: miter"/>
   </g>
   <g id="patch_17">
    <path d="M 334.98 136.08 
C 337.615058 136.08 340.142546 135.03308 342.005813 133.169813 
C 343.86908 131.306546 344.916 128.779058 344.916 126.144 
C 344.916 123.508942 343.86908 120.981454 342.005813 119.118187 
C 340.142546 117.25492 337.615058 116.208 334.98 116.208 
C 332.344942 116.208 329.817454 117.25492 327.954187 119.118187 
C 326.09092 120.981454 325.044 123.508942 325.044 126.144 
C 325.044 128.779058 326.09092 131.306546 327.954187 133.169813 
C 329.817454 135.03308 332.344942 136.08 334.98 136.08 
z
" style="fill: #8caed1; stroke: #8caed1; stroke-linejoin: miter"/>
   </g>
   <g id="patch_18">
    <path d="M 404.1 92.88 
C 406.735058 92.88 409.262546 91.83308 411.125813 89.969813 
C 412.98908 88.106546 414.036 85.579058 414.036 82.944 
C 414.036 80.308942 412.98908 77.781454 411.125813 75.918187 
C 409.262546 74.05492 406.735058 73.008 404.1 73.008 
C 401.464942 73.008 398.937454 74.05492 397.074187 75.918187 
C 395.21092 77.781454 394.164 80.308942 394.164 82.944 
C 394.164 85.579058 395.21092 88.106546 397.074187 89.969813 
C 398.937454 91.83308 401.464942 92.88 404.1 92.88 
z
" style="fill: #8caed1; stroke: #8caed1; stroke-linejoin: miter"/>
   </g>
   <g id="patch_19">
    <path d="M 460.98 92.88 
C 463.615058 92.88 466.142546 91.83308 468.005813 89.969813 
C 469.86908 88.106546 470.916 85.579058 470.916 82.944 
C 470.916 80.308942 469.86908 77.781454 468.005813 75.918187 
C 466.142546 74.05492 463.615058 73.008 460.98 73.008 
C 458.344942 73.008 455.817454 74.05492 453.954187 75.918187 
C 452.09092 77.781454 451.044 80.308942 451.044 82.944 
C 451.044 85.579058 452.09092 88.106546 453.954187 89.969813 
C 455.817454 91.83308 458.344942 92.88 460.98 92.88 
z
" style="fill: #8caed1; stroke: #8caed1; stroke-linejoin: miter"/>
   </g>
   <g id="patch_20">
    <path d="M 404.1 136.08 
C 406.735058 136.08 409.262546 135.03308 411.125813 133.169813 
C 412.98908 131.306546 414.036 128.779058 414.036 126.144 
C 414.036 123.508942 412.98908 120.981454 411.125813 119.118187 
C 409.262546 117.25492 406.735058 116.208 404.1 116.208 
C 401.464942 116.208 398.937454 117.25492 397.074187 119.118187 
C 395.21092 120.981454 394.164 123.508942 394.164 126.144 
C 394.164 128.779058 395.21092 131.306546 397.074187 133.169813 
C 398.937454 135.03308 401.464942 136.08 404.1 136.08 
z
" style="fill: #8caed1; stroke: #8caed1; stroke-linejoin: miter"/>
   </g>
   <g id="patch_21">
    <path d="M 460.98 136.08 
C 463.615058 136.08 466.142546 135.03308 468.005813 133.169813 
C 469.86908 131.306546 470.916 128.779058 470.916 126.144 
C 470.916 123.508942 469.86908 120.981454 468.005813 119.118187 
C 466.142546 117.25492 463.615058 116.208 460.98 116.208 
C 458.344942 116.208 455.817454 117.25492 453.954187 119.118187 
C 452.09092 120.981454 451.044 123.508942 451.044 126.144 
C 451.044 128.779058 452.09092 131.306546 453.954187 133.169813 
C 455.817454 135.03308 458.344942 136.08 460.98 136.08 
z
" style="fill: #8caed1; stroke: #8caed1; stroke-linejoin: miter"/>
   </g>
   <g id="patch_22">
    <path d="M 2.52 192.204 
L 19.44 192.204 
L 19.44 175.284 
L 2.52 175.284 
z
" style="fill: #2967a9; stroke: #2967a9; stroke-width: 4"/>
   </g>
   <g id="patch_23">
    <path d="M 128.52 192.204 
L 145.44 192.204 
L 145.44 175.284 
L 128.52 175.284 
z
" style="fill: #2967a9; stroke: #2967a9; stroke-width: 4"/>
   </g>
   <g id="patch_24">
    <path d="M 254.52 192.204 
L 271.44 192.204 
L 271.44 175.284 
L 254.52 175.284 
z
" style="fill: #2967a9; stroke: #2967a9; stroke-width: 4"/>
   </g>
   <g id="patch_25">
    <path d="M 380.52 192.204 
L 397.44 192.204 
L 397.44 175.284 
L 380.52 175.284 
z
" style="fill: #2967a9; stroke: #2967a9; stroke-width: 4"/>
   </g>
   <g id="patch_26">
    <path d="M 63 192.204 
L 79.92 192.204 
L 79.92 175.284 
L 63 175.284 
z
" style="fill: #2967a9; stroke: #2967a9; stroke-width: 4"/>
   </g>
   <g id="patch_27">
    <path d="M 189 192.204 
L 205.92 192.204 
L 205.92 175.284 
L 189 175.284 
z
" style="fill: #2967a9; stroke: #2967a9; stroke-width: 4"/>
   </g>
   <g id="patch_28">
    <path d="M 315 192.204 
L 331.92 192.204 
L 331.92 175.284 
L 315 175.284 
z
" style="fill: #2967a9; stroke: #2967a9; stroke-width: 4"/>
   </g>
   <g id="patch_29">
    <path d="M 441 192.204 
L 457.92 192.204 
L 457.92 175.284 
L 441 175.284 
z
" style="fill: #2967a9; stroke: #2967a9; stroke-width: 4"/>
   </g>
   <g id="patch_30">
    <path d="M 29.16 192.204 
L 46.08 192.204 
L 46.08 175.284 
L 29.16 175.284 
z
" style="fill: #2967a9; stroke: #2967a9; stroke-width: 4"/>
   </g>
   <g id="patch_31">
    <path d="M 155.16 192.204 
L 172.08 192.204 
L 172.08 175.284 
L 155.16 175.284 
z
" style="fill: #2967a9; stroke: #2967a9; stroke-width: 4"/>
   </g>
   <g id="patch_32">
    <path d="M 281.16 192.204 
L 298.08 192.204 
L 298.08 175.284 
L 281.16 175.284 
z
" style="fill: #2967a9; stroke: #2967a9; stroke-width: 4"/>
   </g>
   <g id="patch_33">
    <path d="M 407.16 192.204 
L 424.08 192.204 
L 424.08 175.284 
L 407.16 175.284 
z
" style="fill: #2967a9; stroke: #2967a9; stroke-width: 4"/>
   </g>
   <g id="patch_34">
    <path d="M 89.64 192.204 
L 106.56 192.204 
L 106.56 175.284 
L 89.64 175.284 
z
" style="fill: #2967a9; stroke: #2967a9; stroke-width: 4"/>
   </g>
   <g id="patch_35">
    <path d="M 215.64 192.204 
L 232.56 192.204 
L 232.56 175.284 
L 215.64 175.284 
z
" style="fill: #2967a9; stroke: #2967a9; stroke-width: 4"/>
   </g>
   <g id="patch_36">
    <path d="M 341.64 192.204 
L 358.56 192.204 
L 358.56 175.284 
L 341.64 175.284 
z
" style="fill: #2967a9; stroke: #2967a9; stroke-width: 4"/>
   </g>
   <g id="patch_37">
    <path d="M 467.64 192.204 
L 484.56 192.204 
L 484.56 175.284 
L 467.64 175.284 
z
" style="fill: #2967a9; stroke: #2967a9; stroke-width: 4"/>
   </g>
   <g id="patch_38">
    <path d="M 53.489671 23.238995 
Q 42.615319 46.943305 31.740966 70.647616 
" clip-path="url(#p113e54300d)" style="fill: none; stroke: #bfc6c9; stroke-linecap: round"/>
    <path d="M 49.829672 26.180832 
L 53.489671 23.238995 
L 53.647142 27.932096 
" clip-path="url(#p113e54300d)" style="fill: none; stroke: #bfc6c9; stroke-linecap: round"/>
    <path d="M 35.400965 67.705779 
L 31.740966 70.647616 
L 31.583496 65.954514 
" clip-path="url(#p113e54300d)" style="fill: none; stroke: #bfc6c9; stroke-linecap: round"/>
   </g>
   <g id="patch_39">
    <path d="M 69.841791 19.239675 
Q 105.616615 46.94525 141.391439 74.650826 
" clip-path="url(#p113e54300d)" style="fill: none; stroke: #bfc6c9; stroke-linecap: round"/>
    <path d="M 71.876606 23.47164 
L 69.841791 19.239675 
L 74.448252 20.151002 
" clip-path="url(#p113e54300d)" style="fill: none; stroke: #bfc6c9; stroke-linecap: round"/>
    <path d="M 139.356624 70.418861 
L 141.391439 74.650826 
L 136.784978 73.739499 
" clip-path="url(#p113e54300d)" style="fill: none; stroke: #bfc6c9; stroke-linecap: round"/>
   </g>
   <g id="patch_40">
    <path d="M 72.004682 15.177352 
Q 168.616134 46.944373 265.227586 78.711394 
" clip-path="url(#p113e54300d)" style="fill: none; stroke: #bfc6c9; stroke-linecap: round"/>
    <path d="M 75.338575 18.484187 
L 72.004682 15.177352 
L 76.650485 14.494338 
" clip-path="url(#p113e54300d)" style="fill: none; stroke: #bfc6c9; stroke-linecap: round"/>
    <path d="M 261.893693 75.404559 
L 265.227586 78.711394 
L 260.581782 79.394407 
" clip-path="url(#p113e54300d)" style="fill: none; stroke: #bfc6c9; stroke-linecap: round"/>
   </g>
   <g id="patch_41">
    <path d="M 72.366252 13.706588 
Q 231.615578 46.944121 390.864904 80.181653 
" clip-path="url(#p113e54300d)" style="fill: none; stroke: #bfc6c9; stroke-linecap: round"/>
    <path d="M 76.048604 16.620398 
L 72.366252 13.706588 
L 76.906711 12.508993 
" clip-path="url(#p113e54300d)" style="fill: none; stroke: #bfc6c9; stroke-linecap: round"/>
    <path d="M 387.182553 77.267843 
L 390.864904 80.181653 
L 386.324446 81.379248 
" clip-path="url(#p113e54300d)" style="fill: none; stroke: #bfc6c9; stroke-linecap: round"/>
   </g>
   <g id="patch_42">
    <path d="M 169.780046 16.617378 
Q 104.081849 46.945455 38.383651 77.273532 
" clip-path="url(#p113e54300d)" style="fill: none; stroke: #bfc6c9; stroke-linecap: round"/>
    <path d="M 165.086584 16.471051 
L 169.780046 16.617378 
L 166.846907 20.284351 
" clip-path="url(#p113e54300d)" style="fill: none; stroke: #bfc6c9; stroke-linecap: round"/>
    <path d="M 43.077114 77.419859 
L 38.383651 77.273532 
L 41.31679 73.606558 
" clip-path="url(#p113e54300d)" style="fill: none; stroke: #bfc6c9; stroke-linecap: round"/>
   </g>
   <g id="patch_43">
    <path d="M 176.875017 23.424439 
Q 167.085902 46.941833 157.296787 70.459227 
" clip-path="url(#p113e54300d)" style="fill: none; stroke: #bfc6c9; stroke-linecap: round"/>
    <path d="M 173.322261 26.494931 
L 176.875017 23.424439 
L 177.199758 28.108939 
" clip-path="url(#p113e54300d)" style="fill: none; stroke: #bfc6c9; stroke-linecap: round"/>
    <path d="M 160.849543 67.388735 
L 157.296787 70.459227 
L 156.972046 65.774727 
" clip-path="url(#p113e54300d)" style="fill: none; stroke: #bfc6c9; stroke-linecap: round"/>
   </g>
   <g id="patch_44">
    <path d="M 192.902876 19.066119 
Q 230.085198 46.944148 267.267519 74.822178 
" clip-path="url(#p113e54300d)" style="fill: none; stroke: #bfc6c9; stroke-linecap: round"/>
    <path d="M 195.003506 23.265804 
L 192.902876 19.066119 
L 197.523002 19.905426 
" clip-path="url(#p113e54300d)" style="fill: none; stroke: #bfc6c9; stroke-linecap: round"/>
    <path d="M 265.16689 70.622493 
L 267.267519 74.822178 
L 262.647394 73.982871 
" clip-path="url(#p113e54300d)" style="fill: none; stroke: #bfc6c9; stroke-linecap: round"/>
   </g>
   <g id="patch_45">
    <path d="M 194.966877 15.126206 
Q 293.086769 46.944574 391.206662 78.762942 
" clip-path="url(#p113e54300d)" style="fill: none; stroke: #bfc6c9; stroke-linecap: round"/>
    <path d="M 198.314283 18.419361 
L 194.966877 15.126206 
L 199.609844 14.424173 
" clip-path="url(#p113e54300d)" style="fill: none; stroke: #bfc6c9; stroke-linecap: round"/>
    <path d="M 387.859255 75.469787 
L 391.206662 78.762942 
L 386.563694 79.464974 
" clip-path="url(#p113e54300d)" style="fill: none; stroke: #bfc6c9; stroke-linecap: round"/>
   </g>
   <g id="patch_46">
    <path d="M 292.113123 15.126206 
Q 193.993231 46.944574 95.873338 78.762942 
" clip-path="url(#p113e54300d)" style="fill: none; stroke: #bfc6c9; stroke-linecap: round"/>
    <path d="M 287.470156 14.424173 
L 292.113123 15.126206 
L 288.765717 18.419361 
" clip-path="url(#p113e54300d)" style="fill: none; stroke: #bfc6c9; stroke-linecap: round"/>
    <path d="M 100.516306 79.464974 
L 95.873338 78.762942 
L 99.220745 75.469787 
" clip-path="url(#p113e54300d)" style="fill: none; stroke: #bfc6c9; stroke-linecap: round"/>
   </g>
   <g id="patch_47">
    <path d="M 294.177124 19.066119 
Q 256.994802 46.944148 219.812481 74.822178 
" clip-path="url(#p113e54300d)" style="fill: none; stroke: #bfc6c9; stroke-linecap: round"/>
    <path d="M 289.556998 19.905426 
L 294.177124 19.066119 
L 292.076494 23.265804 
" clip-path="url(#p113e54300d)" style="fill: none; stroke: #bfc6c9; stroke-linecap: round"/>
    <path d="M 224.432606 73.982871 
L 219.812481 74.822178 
L 221.91311 70.622493 
" clip-path="url(#p113e54300d)" style="fill: none; stroke: #bfc6c9; stroke-linecap: round"/>
   </g>
   <g id="patch_48">
    <path d="M 310.204983 23.424439 
Q 319.994098 46.941833 329.783213 70.459227 
" clip-path="url(#p113e54300d)" style="fill: none; stroke: #bfc6c9; stroke-linecap: round"/>
    <path d="M 309.880242 28.108939 
L 310.204983 23.424439 
L 313.757739 26.494931 
" clip-path="url(#p113e54300d)" style="fill: none; stroke: #bfc6c9; stroke-linecap: round"/>
    <path d="M 330.107954 65.774727 
L 329.783213 70.459227 
L 326.230457 67.388735 
" clip-path="url(#p113e54300d)" style="fill: none; stroke: #bfc6c9; stroke-linecap: round"/>
   </g>
   <g id="patch_49">
    <path d="M 317.299954 16.617378 
Q 382.998151 46.945455 448.696349 77.273532 
" clip-path="url(#p113e54300d)" style="fill: none; stroke: #bfc6c9; stroke-linecap: round"/>
    <path d="M 320.233093 20.284351 
L 317.299954 16.617378 
L 321.993416 16.471051 
" clip-path="url(#p113e54300d)" style="fill: none; stroke: #bfc6c9; stroke-linecap: round"/>
    <path d="M 445.76321 73.606558 
L 448.696349 77.273532 
L 444.002886 77.419859 
" clip-path="url(#p113e54300d)" style="fill: none; stroke: #bfc6c9; stroke-linecap: round"/>
   </g>
   <g id="patch_50">
    <path d="M 414.713748 13.706588 
Q 255.464422 46.944121 96.215096 80.181653 
" clip-path="url(#p113e54300d)" style="fill: none; stroke: #bfc6c9; stroke-linecap: round"/>
    <path d="M 410.173289 12.508993 
L 414.713748 13.706588 
L 411.031396 16.620398 
" clip-path="url(#p113e54300d)" style="fill: none; stroke: #bfc6c9; stroke-linecap: round"/>
    <path d="M 100.755554 81.379248 
L 96.215096 80.181653 
L 99.897447 77.267843 
" clip-path="url(#p113e54300d)" style="fill: none; stroke: #bfc6c9; stroke-linecap: round"/>
   </g>
   <g id="patch_51">
    <path d="M 415.075318 15.177352 
Q 318.463866 46.944373 221.852414 78.711394 
" clip-path="url(#p113e54300d)" style="fill: none; stroke: #bfc6c9; stroke-linecap: round"/>
    <path d="M 410.429515 14.494338 
L 415.075318 15.177352 
L 411.741425 18.484187 
" clip-path="url(#p113e54300d)" style="fill: none; stroke: #bfc6c9; stroke-linecap: round"/>
    <path d="M 226.498218 79.394407 
L 221.852414 78.711394 
L 225.186307 75.404559 
" clip-path="url(#p113e54300d)" style="fill: none; stroke: #bfc6c9; stroke-linecap: round"/>
   </g>
   <g id="patch_52">
    <path d="M 417.238209 19.239675 
Q 381.463385 46.94525 345.688561 74.650826 
" clip-path="url(#p113e54300d)" style="fill: none; stroke: #bfc6c9; stroke-linecap: round"/>
    <path d="M 412.631748 20.151002 
L 417.238209 19.239675 
L 415.203394 23.47164 
" clip-path="url(#p113e54300d)" style="fill: none; stroke: #bfc6c9; stroke-linecap: round"/>
    <path d="M 350.295022 73.739499 
L 345.688561 74.650826 
L 347.723376 70.418861 
" clip-path="url(#p113e54300d)" style="fill: none; stroke: #bfc6c9; stroke-linecap: round"/>
   </g>
   <g id="patch_53">
    <path d="M 433.590329 23.238995 
Q 444.464681 46.943305 455.339034 70.647616 
" clip-path="url(#p113e54300d)" style="fill: none; stroke: #bfc6c9; stroke-linecap: round"/>
    <path d="M 433.432858 27.932096 
L 433.590329 23.238995 
L 437.250328 26.180832 
" clip-path="url(#p113e54300d)" style="fill: none; stroke: #bfc6c9; stroke-linecap: round"/>
    <path d="M 455.496504 65.954514 
L 455.339034 70.647616 
L 451.679035 67.705779 
" clip-path="url(#p113e54300d)" style="fill: none; stroke: #bfc6c9; stroke-linecap: round"/>
   </g>
   <g id="patch_54">
    <path d="M 26.1 96.498603 
Q 26.1 104.545262 26.1 112.591921 
" clip-path="url(#p113e54300d)" style="fill: none; stroke: #bfc6c9; stroke-linecap: round"/>
    <path d="M 24 100.698603 
L 26.1 96.498603 
L 28.2 100.698603 
" clip-path="url(#p113e54300d)" style="fill: none; stroke: #bfc6c9; stroke-linecap: round"/>
    <path d="M 28.2 108.391921 
L 26.1 112.591921 
L 24 108.391921 
" clip-path="url(#p113e54300d)" style="fill: none; stroke: #bfc6c9; stroke-linecap: round"/>
   </g>
   <g id="patch_55">
    <path d="M 36.881789 91.132701 
Q 54.539167 104.543367 72.196545 117.954034 
" clip-path="url(#p113e54300d)" style="fill: none; stroke: #bfc6c9; stroke-linecap: round"/>
    <path d="M 38.956348 95.345325 
L 36.881789 91.132701 
L 41.496624 92.000628 
" clip-path="url(#p113e54300d)" style="fill: none; stroke: #bfc6c9; stroke-linecap: round"/>
    <path d="M 70.121986 113.74141 
L 72.196545 117.954034 
L 67.58171 117.086106 
" clip-path="url(#p113e54300d)" style="fill: none; stroke: #bfc6c9; stroke-linecap: round"/>
   </g>
   <g id="patch_56">
    <path d="M 72.198211 91.132701 
Q 54.540833 104.543367 36.883455 117.954034 
" clip-path="url(#p113e54300d)" style="fill: none; stroke: #bfc6c9; stroke-linecap: round"/>
    <path d="M 67.583376 92.000628 
L 72.198211 91.132701 
L 70.123652 95.345325 
" clip-path="url(#p113e54300d)" style="fill: none; stroke: #bfc6c9; stroke-linecap: round"/>
    <path d="M 41.49829 117.086106 
L 36.883455 117.954034 
L 38.958014 113.74141 
" clip-path="url(#p113e54300d)" style="fill: none; stroke: #bfc6c9; stroke-linecap: round"/>
   </g>
   <g id="patch_57">
    <path d="M 82.98 96.498603 
Q 82.98 104.545262 82.98 112.591921 
" clip-path="url(#p113e54300d)" style="fill: none; stroke: #bfc6c9; stroke-linecap: round"/>
    <path d="M 80.88 100.698603 
L 82.98 96.498603 
L 85.08 100.698603 
" clip-path="url(#p113e54300d)" style="fill: none; stroke: #bfc6c9; stroke-linecap: round"/>
    <path d="M 85.08 108.391921 
L 82.98 112.591921 
L 80.88 108.391921 
" clip-path="url(#p113e54300d)" style="fill: none; stroke: #bfc6c9; stroke-linecap: round"/>
   </g>
   <g id="patch_58">
    <path d="M 22.663258 139.23635 
Q 18.590504 154.751604 14.51775 170.266857 
" clip-path="url(#p113e54300d)" style="fill: none; stroke: #bfc6c9; stroke-linecap: round"/>
    <path d="M 19.565701 142.765534 
L 22.663258 139.23635 
L 23.628071 143.831906 
" clip-path="url(#p113e54300d)" style="fill: none; stroke: #bfc6c9; stroke-linecap: round"/>
    <path d="M 17.615307 166.737673 
L 14.51775 170.266857 
L 13.552937 165.671301 
" clip-path="url(#p113e54300d)" style="fill: none; stroke: #bfc6c9; stroke-linecap: round"/>
   </g>
   <g id="patch_59">
    <path d="M 28.751364 139.400818 
Q 31.834182 154.814909 34.917 170.228999 
" clip-path="url(#p113e54300d)" style="fill: none; stroke: #bfc6c9; stroke-linecap: round"/>
    <path d="M 27.515832 143.931101 
L 28.751364 139.400818 
L 31.634271 143.107413 
" clip-path="url(#p113e54300d)" style="fill: none; stroke: #bfc6c9; stroke-linecap: round"/>
    <path d="M 36.152532 165.698717 
L 34.917 170.228999 
L 32.034093 166.522404 
" clip-path="url(#p113e54300d)" style="fill: none; stroke: #bfc6c9; stroke-linecap: round"/>
   </g>
   <g id="patch_60">
    <path d="M 80.328636 139.400818 
Q 77.245818 154.814909 74.163 170.228999 
" clip-path="url(#p113e54300d)" style="fill: none; stroke: #bfc6c9; stroke-linecap: round"/>
    <path d="M 77.445729 143.107413 
L 80.328636 139.400818 
L 81.564168 143.931101 
" clip-path="url(#p113e54300d)" style="fill: none; stroke: #bfc6c9; stroke-linecap: round"/>
    <path d="M 77.045907 166.522404 
L 74.163 170.228999 
L 72.927468 165.698717 
" clip-path="url(#p113e54300d)" style="fill: none; stroke: #bfc6c9; stroke-linecap: round"/>
   </g>
   <g id="patch_61">
    <path d="M 86.416742 139.23635 
Q 90.489496 154.751604 94.56225 170.266857 
" clip-path="url(#p113e54300d)" style="fill: none; stroke: #bfc6c9; stroke-linecap: round"/>
    <path d="M 85.451929 143.831906 
L 86.416742 139.23635 
L 89.514299 142.765534 
" clip-path="url(#p113e54300d)" style="fill: none; stroke: #bfc6c9; stroke-linecap: round"/>
    <path d="M 95.527063 165.671301 
L 94.56225 170.266857 
L 91.464693 166.737673 
" clip-path="url(#p113e54300d)" style="fill: none; stroke: #bfc6c9; stroke-linecap: round"/>
   </g>
   <g id="patch_62">
    <path d="M 152.1 96.498603 
Q 152.1 104.545262 152.1 112.591921 
" clip-path="url(#p113e54300d)" style="fill: none; stroke: #bfc6c9; stroke-linecap: round"/>
    <path d="M 150 100.698603 
L 152.1 96.498603 
L 154.2 100.698603 
" clip-path="url(#p113e54300d)" style="fill: none; stroke: #bfc6c9; stroke-linecap: round"/>
    <path d="M 154.2 108.391921 
L 152.1 112.591921 
L 150 108.391921 
" clip-path="url(#p113e54300d)" style="fill: none; stroke: #bfc6c9; stroke-linecap: round"/>
   </g>
   <g id="patch_63">
    <path d="M 162.881789 91.132701 
Q 180.539167 104.543367 198.196545 117.954034 
" clip-path="url(#p113e54300d)" style="fill: none; stroke: #bfc6c9; stroke-linecap: round"/>
    <path d="M 164.956348 95.345325 
L 162.881789 91.132701 
L 167.496624 92.000628 
" clip-path="url(#p113e54300d)" style="fill: none; stroke: #bfc6c9; stroke-linecap: round"/>
    <path d="M 196.121986 113.74141 
L 198.196545 117.954034 
L 193.58171 117.086106 
" clip-path="url(#p113e54300d)" style="fill: none; stroke: #bfc6c9; stroke-linecap: round"/>
   </g>
   <g id="patch_64">
    <path d="M 198.198211 91.132701 
Q 180.540833 104.543367 162.883455 117.954034 
" clip-path="url(#p113e54300d)" style="fill: none; stroke: #bfc6c9; stroke-linecap: round"/>
    <path d="M 193.583376 92.000628 
L 198.198211 91.132701 
L 196.123652 95.345325 
" clip-path="url(#p113e54300d)" style="fill: none; stroke: #bfc6c9; stroke-linecap: round"/>
    <path d="M 167.49829 117.086106 
L 162.883455 117.954034 
L 164.958014 113.74141 
" clip-path="url(#p113e54300d)" style="fill: none; stroke: #bfc6c9; stroke-linecap: round"/>
   </g>
   <g id="patch_65">
    <path d="M 208.98 96.498603 
Q 208.98 104.545262 208.98 112.591921 
" clip-path="url(#p113e54300d)" style="fill: none; stroke: #bfc6c9; stroke-linecap: round"/>
    <path d="M 206.88 100.698603 
L 208.98 96.498603 
L 211.08 100.698603 
" clip-path="url(#p113e54300d)" style="fill: none; stroke: #bfc6c9; stroke-linecap: round"/>
    <path d="M 211.08 108.391921 
L 208.98 112.591921 
L 206.88 108.391921 
" clip-path="url(#p113e54300d)" style="fill: none; stroke: #bfc6c9; stroke-linecap: round"/>
   </g>
   <g id="patch_66">
    <path d="M 148.663258 139.23635 
Q 144.590504 154.751604 140.51775 170.266857 
" clip-path="url(#p113e54300d)" style="fill: none; stroke: #bfc6c9; stroke-linecap: round"/>
    <path d="M 145.565701 142.765534 
L 148.663258 139.23635 
L 149.628071 143.831906 
" clip-path="url(#p113e54300d)" style="fill: none; stroke: #bfc6c9; stroke-linecap: round"/>
    <path d="M 143.615307 166.737673 
L 140.51775 170.266857 
L 139.552937 165.671301 
" clip-path="url(#p113e54300d)" style="fill: none; stroke: #bfc6c9; stroke-linecap: round"/>
   </g>
   <g id="patch_67">
    <path d="M 154.751364 139.400818 
Q 157.834182 154.814909 160.917 170.228999 
" clip-path="url(#p113e54300d)" style="fill: none; stroke: #bfc6c9; stroke-linecap: round"/>
    <path d="M 153.515832 143.931101 
L 154.751364 139.400818 
L 157.634271 143.107413 
" clip-path="url(#p113e54300d)" style="fill: none; stroke: #bfc6c9; stroke-linecap: round"/>
    <path d="M 162.152532 165.698717 
L 160.917 170.228999 
L 158.034093 166.522404 
" clip-path="url(#p113e54300d)" style="fill: none; stroke: #bfc6c9; stroke-linecap: round"/>
   </g>
   <g id="patch_68">
    <path d="M 206.328636 139.400818 
Q 203.245818 154.814909 200.163 170.228999 
" clip-path="url(#p113e54300d)" style="fill: none; stroke: #bfc6c9; stroke-linecap: round"/>
    <path d="M 203.445729 143.107413 
L 206.328636 139.400818 
L 207.564168 143.931101 
" clip-path="url(#p113e54300d)" style="fill: none; stroke: #bfc6c9; stroke-linecap: round"/>
    <path d="M 203.045907 166.522404 
L 200.163 170.228999 
L 198.927468 165.698717 
" clip-path="url(#p113e54300d)" style="fill: none; stroke: #bfc6c9; stroke-linecap: round"/>
   </g>
   <g id="patch_69">
    <path d="M 212.416742 139.23635 
Q 216.489496 154.751604 220.56225 170.266857 
" clip-path="url(#p113e54300d)" style="fill: none; stroke: #bfc6c9; stroke-linecap: round"/>
    <path d="M 211.451929 143.831906 
L 212.416742 139.23635 
L 215.514299 142.765534 
" clip-path="url(#p113e54300d)" style="fill: none; stroke: #bfc6c9; stroke-linecap: round"/>
    <path d="M 221.527063 165.671301 
L 220.56225 170.266857 
L 217.464693 166.737673 
" clip-path="url(#p113e54300d)" style="fill: none; stroke: #bfc6c9; stroke-linecap: round"/>
   </g>
   <g id="patch_70">
    <path d="M 278.1 96.498603 
Q 278.1 104.545262 278.1 112.591921 
" clip-path="url(#p113e54300d)" style="fill: none; stroke: #bfc6c9; stroke-linecap: round"/>
    <path d="M 276 100.698603 
L 278.1 96.498603 
L 280.2 100.698603 
" clip-path="url(#p113e54300d)" style="fill: none; stroke: #bfc6c9; stroke-linecap: round"/>
    <path d="M 280.2 108.391921 
L 278.1 112.591921 
L 276 108.391921 
" clip-path="url(#p113e54300d)" style="fill: none; stroke: #bfc6c9; stroke-linecap: round"/>
   </g>
   <g id="patch_71">
    <path d="M 288.881789 91.132701 
Q 306.539167 104.543367 324.196545 117.954034 
" clip-path="url(#p113e54300d)" style="fill: none; stroke: #bfc6c9; stroke-linecap: round"/>
    <path d="M 290.956348 95.345325 
L 288.881789 91.132701 
L 293.496624 92.000628 
" clip-path="url(#p113e54300d)" style="fill: none; stroke: #bfc6c9; stroke-linecap: round"/>
    <path d="M 322.121986 113.74141 
L 324.196545 117.954034 
L 319.58171 117.086106 
" clip-path="url(#p113e54300d)" style="fill: none; stroke: #bfc6c9; stroke-linecap: round"/>
   </g>
   <g id="patch_72">
    <path d="M 324.198211 91.132701 
Q 306.540833 104.543367 288.883455 117.954034 
" clip-path="url(#p113e54300d)" style="fill: none; stroke: #bfc6c9; stroke-linecap: round"/>
    <path d="M 319.583376 92.000628 
L 324.198211 91.132701 
L 322.123652 95.345325 
" clip-path="url(#p113e54300d)" style="fill: none; stroke: #bfc6c9; stroke-linecap: round"/>
    <path d="M 293.49829 117.086106 
L 288.883455 117.954034 
L 290.958014 113.74141 
" clip-path="url(#p113e54300d)" style="fill: none; stroke: #bfc6c9; stroke-linecap: round"/>
   </g>
   <g id="patch_73">
    <path d="M 334.98 96.498603 
Q 334.98 104.545262 334.98 112.591921 
" clip-path="url(#p113e54300d)" style="fill: none; stroke: #bfc6c9; stroke-linecap: round"/>
    <path d="M 332.88 100.698603 
L 334.98 96.498603 
L 337.08 100.698603 
" clip-path="url(#p113e54300d)" style="fill: none; stroke: #bfc6c9; stroke-linecap: round"/>
    <path d="M 337.08 108.391921 
L 334.98 112.591921 
L 332.88 108.391921 
" clip-path="url(#p113e54300d)" style="fill: none; stroke: #bfc6c9; stroke-linecap: round"/>
   </g>
   <g id="patch_74">
    <path d="M 274.663258 139.23635 
Q 270.590504 154.751604 266.51775 170.266857 
" clip-path="url(#p113e54300d)" style="fill: none; stroke: #bfc6c9; stroke-linecap: round"/>
    <path d="M 271.565701 142.765534 
L 274.663258 139.23635 
L 275.628071 143.831906 
" clip-path="url(#p113e54300d)" style="fill: none; stroke: #bfc6c9; stroke-linecap: round"/>
    <path d="M 269.615307 166.737673 
L 266.51775 170.266857 
L 265.552937 165.671301 
" clip-path="url(#p113e54300d)" style="fill: none; stroke: #bfc6c9; stroke-linecap: round"/>
   </g>
   <g id="patch_75">
    <path d="M 280.751364 139.400818 
Q 283.834182 154.814909 286.917 170.228999 
" clip-path="url(#p113e54300d)" style="fill: none; stroke: #bfc6c9; stroke-linecap: round"/>
    <path d="M 279.515832 143.931101 
L 280.751364 139.400818 
L 283.634271 143.107413 
" clip-path="url(#p113e54300d)" style="fill: none; stroke: #bfc6c9; stroke-linecap: round"/>
    <path d="M 288.152532 165.698717 
L 286.917 170.228999 
L 284.034093 166.522404 
" clip-path="url(#p113e54300d)" style="fill: none; stroke: #bfc6c9; stroke-linecap: round"/>
   </g>
   <g id="patch_76">
    <path d="M 332.328636 139.400818 
Q 329.245818 154.814909 326.163 170.228999 
" clip-path="url(#p113e54300d)" style="fill: none; stroke: #bfc6c9; stroke-linecap: round"/>
    <path d="M 329.445729 143.107413 
L 332.328636 139.400818 
L 333.564168 143.931101 
" clip-path="url(#p113e54300d)" style="fill: none; stroke: #bfc6c9; stroke-linecap: round"/>
    <path d="M 329.045907 166.522404 
L 326.163 170.228999 
L 324.927468 165.698717 
" clip-path="url(#p113e54300d)" style="fill: none; stroke: #bfc6c9; stroke-linecap: round"/>
   </g>
   <g id="patch_77">
    <path d="M 338.416742 139.23635 
Q 342.489496 154.751604 346.56225 170.266857 
" clip-path="url(#p113e54300d)" style="fill: none; stroke: #bfc6c9; stroke-linecap: round"/>
    <path d="M 337.451929 143.831906 
L 338.416742 139.23635 
L 341.514299 142.765534 
" clip-path="url(#p113e54300d)" style="fill: none; stroke: #bfc6c9; stroke-linecap: round"/>
    <path d="M 347.527063 165.671301 
L 346.56225 170.266857 
L 343.464693 166.737673 
" clip-path="url(#p113e54300d)" style="fill: none; stroke: #bfc6c9; stroke-linecap: round"/>
   </g>
   <g id="patch_78">
    <path d="M 404.1 96.498603 
Q 404.1 104.545262 404.1 112.591921 
" clip-path="url(#p113e54300d)" style="fill: none; stroke: #bfc6c9; stroke-linecap: round"/>
    <path d="M 402 100.698603 
L 404.1 96.498603 
L 406.2 100.698603 
" clip-path="url(#p113e54300d)" style="fill: none; stroke: #bfc6c9; stroke-linecap: round"/>
    <path d="M 406.2 108.391921 
L 404.1 112.591921 
L 402 108.391921 
" clip-path="url(#p113e54300d)" style="fill: none; stroke: #bfc6c9; stroke-linecap: round"/>
   </g>
   <g id="patch_79">
    <path d="M 414.881789 91.132701 
Q 432.539167 104.543367 450.196545 117.954034 
" clip-path="url(#p113e54300d)" style="fill: none; stroke: #bfc6c9; stroke-linecap: round"/>
    <path d="M 416.956348 95.345325 
L 414.881789 91.132701 
L 419.496624 92.000628 
" clip-path="url(#p113e54300d)" style="fill: none; stroke: #bfc6c9; stroke-linecap: round"/>
    <path d="M 448.121986 113.74141 
L 450.196545 117.954034 
L 445.58171 117.086106 
" clip-path="url(#p113e54300d)" style="fill: none; stroke: #bfc6c9; stroke-linecap: round"/>
   </g>
   <g id="patch_80">
    <path d="M 450.198211 91.132701 
Q 432.540833 104.543367 414.883455 117.954034 
" clip-path="url(#p113e54300d)" style="fill: none; stroke: #bfc6c9; stroke-linecap: round"/>
    <path d="M 445.583376 92.000628 
L 450.198211 91.132701 
L 448.123652 95.345325 
" clip-path="url(#p113e54300d)" style="fill: none; stroke: #bfc6c9; stroke-linecap: round"/>
    <path d="M 419.49829 117.086106 
L 414.883455 117.954034 
L 416.958014 113.74141 
" clip-path="url(#p113e54300d)" style="fill: none; stroke: #bfc6c9; stroke-linecap: round"/>
   </g>
   <g id="patch_81">
    <path d="M 460.98 96.498603 
Q 460.98 104.545262 460.98 112.591921 
" clip-path="url(#p113e54300d)" style="fill: none; stroke: #bfc6c9; stroke-linecap: round"/>
    <path d="M 458.88 100.698603 
L 460.98 96.498603 
L 463.08 100.698603 
" clip-path="url(#p113e54300d)" style="fill: none; stroke: #bfc6c9; stroke-linecap: round"/>
    <path d="M 463.08 108.391921 
L 460.98 112.591921 
L 458.88 108.391921 
" clip-path="url(#p113e54300d)" style="fill: none; stroke: #bfc6c9; stroke-linecap: round"/>
   </g>
   <g id="patch_82">
    <path d="M 400.663258 139.23635 
Q 396.590504 154.751604 392.51775 170.266857 
" clip-path="url(#p113e54300d)" style="fill: none; stroke: #bfc6c9; stroke-linecap: round"/>
    <path d="M 397.565701 142.765534 
L 400.663258 139.23635 
L 401.628071 143.831906 
" clip-path="url(#p113e54300d)" style="fill: none; stroke: #bfc6c9; stroke-linecap: round"/>
    <path d="M 395.615307 166.737673 
L 392.51775 170.266857 
L 391.552937 165.671301 
" clip-path="url(#p113e54300d)" style="fill: none; stroke: #bfc6c9; stroke-linecap: round"/>
   </g>
   <g id="patch_83">
    <path d="M 406.751364 139.400818 
Q 409.834182 154.814909 412.917 170.228999 
" clip-path="url(#p113e54300d)" style="fill: none; stroke: #bfc6c9; stroke-linecap: round"/>
    <path d="M 405.515832 143.931101 
L 406.751364 139.400818 
L 409.634271 143.107413 
" clip-path="url(#p113e54300d)" style="fill: none; stroke: #bfc6c9; stroke-linecap: round"/>
    <path d="M 414.152532 165.698717 
L 412.917 170.228999 
L 410.034093 166.522404 
" clip-path="url(#p113e54300d)" style="fill: none; stroke: #bfc6c9; stroke-linecap: round"/>
   </g>
   <g id="patch_84">
    <path d="M 458.328636 139.400818 
Q 455.245818 154.814909 452.163 170.228999 
" clip-path="url(#p113e54300d)" style="fill: none; stroke: #bfc6c9; stroke-linecap: round"/>
    <path d="M 455.445729 143.107413 
L 458.328636 139.400818 
L 459.564168 143.931101 
" clip-path="url(#p113e54300d)" style="fill: none; stroke: #bfc6c9; stroke-linecap: round"/>
    <path d="M 455.045907 166.522404 
L 452.163 170.228999 
L 450.927468 165.698717 
" clip-path="url(#p113e54300d)" style="fill: none; stroke: #bfc6c9; stroke-linecap: round"/>
   </g>
   <g id="patch_85">
    <path d="M 464.416742 139.23635 
Q 468.489496 154.751604 472.56225 170.266857 
" clip-path="url(#p113e54300d)" style="fill: none; stroke: #bfc6c9; stroke-linecap: round"/>
    <path d="M 463.451929 143.831906 
L 464.416742 139.23635 
L 467.514299 142.765534 
" clip-path="url(#p113e54300d)" style="fill: none; stroke: #bfc6c9; stroke-linecap: round"/>
    <path d="M 473.527063 165.671301 
L 472.56225 170.266857 
L 469.464693 166.737673 
" clip-path="url(#p113e54300d)" style="fill: none; stroke: #bfc6c9; stroke-linecap: round"/>
   </g>
   <g id="text_1">
    <!-- $\node{c0}$ -->
    <g transform="translate(54.808795 13.277937) scale(0.09 -0.09)">
     <defs>
      <path id="NotoSerif-Regular-63" d="M 1811 -64 
C 2054 -64 2253 -32 2419 26 
C 2573 90 2694 168 2778 264 
C 2861 361 2899 458 2899 554 
C 2899 664 2861 748 2790 806 
C 2720 671 2611 567 2458 477 
C 2317 400 2138 355 1939 355 
C 1600 355 1350 464 1203 696 
C 1050 916 973 1257 973 1715 
C 973 2102 1005 2405 1075 2618 
C 1139 2831 1229 2985 1357 3069 
C 1472 3153 1619 3198 1779 3198 
C 1990 3198 2138 3127 2214 2979 
C 2285 2831 2323 2656 2323 2457 
C 2509 2457 2650 2489 2752 2553 
C 2842 2611 2893 2714 2893 2863 
C 2893 3011 2835 3134 2726 3237 
C 2618 3327 2477 3404 2304 3449 
C 2131 3495 1958 3520 1779 3520 
C 1510 3520 1267 3469 1050 3353 
C 838 3250 666 3056 538 2798 
C 416 2527 352 2166 352 1709 
C 352 1290 416 948 538 683 
C 666 426 838 239 1062 116 
C 1280 -6 1530 -64 1811 -64 
z
" transform="scale(0.015625)"/>
      <path id="NotoSerif-Regular-30" d="M 1792 -64 
C 2131 -64 2406 32 2624 232 
C 2848 432 3014 710 3123 1058 
C 3232 1419 3290 1833 3290 2310 
C 3290 2787 3238 3201 3123 3562 
C 3021 3910 2854 4189 2630 4382 
C 2406 4575 2131 4672 1798 4672 
C 1446 4672 1158 4575 934 4382 
C 710 4189 550 3917 448 3562 
C 339 3207 288 2794 288 2317 
C 288 1840 339 1419 448 1065 
C 550 710 710 432 934 232 
C 1158 32 1440 -64 1792 -64 
z
M 1792 284 
C 1478 284 1261 464 1139 820 
C 1018 1174 954 1671 954 2310 
C 954 2950 1018 3446 1139 3794 
C 1267 4150 1485 4324 1798 4324 
C 2106 4324 2317 4150 2445 3794 
C 2560 3446 2624 2950 2624 2310 
C 2624 1671 2560 1174 2445 820 
C 2317 464 2106 284 1792 284 
z
" transform="scale(0.015625)"/>
     </defs>
     <use xlink:href="#NotoSerif-Regular-63" transform="scale(0.913673)"/>
     <use xlink:href="#NotoSerif-Regular-30" transform="translate(44.952659 0) scale(0.913673)"/>
    </g>
   </g>
   <g id="text_2">
    <!-- $\node{c1}$ -->
    <g transform="translate(177.748795 13.277937) scale(0.09 -0.09)">
     <defs>
      <path id="NotoSerif-Regular-31" d="M 614 0 
L 3053 0 
L 3053 271 
L 2739 271 
C 2592 271 2470 297 2368 348 
C 2266 406 2214 536 2214 736 
L 2214 4640 
L 1805 4640 
L 1357 4303 
C 1146 4142 973 4031 832 3960 
C 685 3888 550 3837 422 3805 
C 422 3701 454 3618 512 3553 
C 570 3489 646 3456 742 3456 
C 870 3456 998 3521 1126 3644 
C 1261 3767 1408 3928 1568 4129 
L 1568 736 
C 1568 536 1517 406 1414 348 
C 1312 297 1190 271 1043 271 
L 614 271 
L 614 0 
z
" transform="scale(0.015625)"/>
     </defs>
     <use xlink:href="#NotoSerif-Regular-63" transform="scale(0.913673)"/>
     <use xlink:href="#NotoSerif-Regular-31" transform="translate(44.952659 0) scale(0.913673)"/>
    </g>
   </g>
   <g id="text_3">
    <!-- $\node{c2}$ -->
    <g transform="translate(300.688795 13.277937) scale(0.09 -0.09)">
     <defs>
      <path id="NotoSerif-Regular-32" d="M 390 0 
L 3142 0 
L 3174 1116 
L 2906 1116 
L 2880 1000 
C 2848 878 2803 761 2733 664 
C 2662 567 2534 516 2342 516 
L 864 516 
L 1946 1723 
C 2285 2097 2547 2426 2733 2710 
C 2918 3000 3014 3291 3014 3594 
C 3014 3923 2899 4182 2669 4375 
C 2438 4575 2118 4672 1715 4672 
C 1299 4672 986 4588 781 4427 
C 563 4266 461 4060 461 3807 
C 461 3646 512 3536 621 3472 
C 730 3420 858 3388 1011 3388 
C 1011 3562 1030 3717 1062 3859 
C 1101 4008 1171 4124 1274 4214 
C 1376 4305 1523 4350 1715 4350 
C 1939 4350 2106 4272 2214 4124 
C 2317 3976 2368 3775 2368 3530 
C 2368 3330 2342 3143 2278 2969 
C 2227 2794 2131 2607 1997 2413 
C 1862 2214 1683 1981 1459 1716 
L 390 471 
L 390 0 
z
" transform="scale(0.015625)"/>
     </defs>
     <use xlink:href="#NotoSerif-Regular-63" transform="scale(0.913673)"/>
     <use xlink:href="#NotoSerif-Regular-32" transform="translate(44.952659 0) scale(0.913673)"/>
    </g>
   </g>
   <g id="text_4">
    <!-- $\node{c3}$ -->
    <g transform="translate(423.628795 13.277937) scale(0.09 -0.09)">
     <defs>
      <path id="NotoSerif-Regular-33" d="M 1581 -64 
C 1766 -64 1952 -39 2138 6 
C 2330 53 2509 130 2669 234 
C 2829 344 2963 487 3059 662 
C 3155 843 3206 1063 3206 1322 
C 3206 1536 3168 1718 3091 1854 
C 3014 1997 2918 2113 2790 2198 
C 2675 2282 2541 2346 2406 2386 
C 2272 2431 2144 2457 2022 2470 
C 2221 2515 2394 2597 2547 2707 
C 2701 2823 2822 2964 2912 3118 
C 3002 3285 3046 3458 3046 3651 
C 3046 3979 2925 4229 2675 4402 
C 2432 4582 2106 4672 1702 4672 
C 1286 4672 973 4588 768 4428 
C 550 4268 448 4062 448 3811 
C 448 3651 499 3541 608 3478 
C 717 3426 845 3394 998 3394 
C 998 3567 1018 3721 1050 3863 
C 1088 4010 1158 4125 1261 4215 
C 1363 4305 1510 4350 1702 4350 
C 1952 4350 2125 4279 2227 4144 
C 2336 4004 2387 3805 2387 3554 
C 2387 3355 2342 3176 2253 3028 
C 2163 2880 2042 2765 1894 2681 
C 1741 2598 1568 2560 1382 2560 
L 1178 2560 
L 1178 2231 
L 1382 2231 
C 1741 2231 2022 2146 2227 1984 
C 2438 1822 2541 1602 2541 1329 
C 2541 1069 2496 862 2406 712 
C 2317 563 2202 452 2061 388 
C 1914 316 1760 284 1587 284 
C 1325 284 1126 361 986 504 
C 845 660 774 842 774 1069 
C 653 1069 557 1030 486 959 
C 410 887 371 784 371 654 
C 371 466 467 299 659 156 
C 851 6 1158 -64 1581 -64 
z
" transform="scale(0.015625)"/>
     </defs>
     <use xlink:href="#NotoSerif-Regular-63" transform="scale(0.913673)"/>
     <use xlink:href="#NotoSerif-Regular-33" transform="translate(44.952659 0) scale(0.913673)"/>
    </g>
   </g>
   <g id="text_5">
    <!-- $\node{p0a0}$ -->
    <g transform="translate(16.664056 85.016527) scale(0.09 -0.09)">
     <defs>
      <path id="NotoSerif-Regular-70" d="M 115 -1536 
L 1837 -1536 
L 1837 -1266 
L 1818 -1266 
C 1677 -1266 1555 -1240 1446 -1188 
C 1344 -1144 1293 -1023 1293 -837 
L 1293 -221 
C 1293 -138 1293 -29 1286 105 
C 1280 247 1274 381 1267 503 
L 1293 503 
C 1389 335 1510 200 1664 90 
C 1824 -13 2022 -64 2272 -64 
C 2694 -64 3021 77 3238 368 
C 3469 658 3578 1109 3578 1734 
C 3578 2353 3469 2805 3238 3095 
C 3021 3379 2694 3520 2272 3520 
C 2022 3520 1824 3462 1670 3346 
C 1517 3230 1389 3076 1293 2876 
L 1267 2876 
L 1203 3471 
L 83 3471 
L 83 3200 
L 166 3200 
C 307 3200 429 3174 538 3123 
C 640 3071 691 2949 691 2762 
L 691 -801 
C 691 -1001 640 -1130 538 -1188 
C 435 -1240 314 -1266 166 -1266 
L 115 -1266 
L 115 -1536 
z
M 2170 348 
C 1830 348 1600 464 1478 709 
C 1357 941 1293 1290 1293 1734 
C 1293 2199 1357 2540 1478 2772 
C 1600 2992 1830 3108 2163 3108 
C 2451 3108 2650 2992 2778 2772 
C 2893 2540 2957 2199 2957 1741 
C 2957 1290 2893 941 2778 709 
C 2650 464 2451 348 2170 348 
z
" transform="scale(0.015625)"/>
      <path id="NotoSerif-Regular-61" d="M 1312 -64 
C 1491 -64 1638 -39 1754 13 
C 1862 71 1965 142 2048 232 
C 2131 328 2221 431 2310 553 
L 2362 553 
L 2464 0 
L 3328 0 
L 3328 271 
L 3309 271 
C 3162 271 3059 303 3002 368 
C 2944 432 2912 554 2912 735 
L 2912 2405 
C 2912 2811 2816 3101 2624 3269 
C 2426 3437 2131 3520 1741 3520 
C 1530 3520 1338 3501 1165 3456 
C 992 3417 851 3352 742 3261 
C 640 3171 589 3048 589 2899 
C 589 2750 634 2647 730 2588 
C 819 2523 954 2491 1133 2491 
C 1133 2628 1146 2750 1178 2861 
C 1203 2965 1261 3049 1344 3107 
C 1427 3166 1555 3198 1715 3198 
C 1888 3198 2022 3165 2106 3093 
C 2189 3020 2246 2928 2272 2803 
C 2298 2684 2310 2546 2310 2388 
L 2310 1993 
L 1779 1993 
C 1286 1993 922 1902 678 1740 
C 442 1578 320 1318 320 974 
C 320 618 416 358 602 189 
C 787 20 1024 -64 1312 -64 
z
M 1459 335 
C 1114 335 941 537 941 941 
C 941 1194 1011 1390 1152 1520 
C 1286 1656 1536 1728 1901 1728 
L 2310 1728 
L 2310 1215 
C 2310 943 2234 728 2080 576 
C 1926 412 1722 335 1459 335 
z
" transform="scale(0.015625)"/>
     </defs>
     <use xlink:href="#NotoSerif-Regular-70" transform="scale(0.913673)"/>
     <use xlink:href="#NotoSerif-Regular-30" transform="translate(56.099533 0) scale(0.913673)"/>
     <use xlink:href="#NotoSerif-Regular-61" transform="translate(107.173828 0) scale(0.913673)"/>
     <use xlink:href="#NotoSerif-Regular-30" transform="translate(158.613573 0) scale(0.913673)"/>
    </g>
   </g>
   <g id="text_6">
    <!-- $\node{p0a1}$ -->
    <g transform="translate(73.544056 85.016527) scale(0.09 -0.09)">
     <use xlink:href="#NotoSerif-Regular-70" transform="scale(0.913673)"/>
     <use xlink:href="#NotoSerif-Regular-30" transform="translate(56.099533 0) scale(0.913673)"/>
     <use xlink:href="#NotoSerif-Regular-61" transform="translate(107.173828 0) scale(0.913673)"/>
     <use xlink:href="#NotoSerif-Regular-31" transform="translate(158.613573 0) scale(0.913673)"/>
    </g>
   </g>
   <g id="text_7">
    <!-- $\node{p0e0}$ -->
    <g transform="translate(16.779179 128.216527) scale(0.09 -0.09)">
     <defs>
      <path id="NotoSerif-Regular-65" d="M 1837 -64 
C 2093 -64 2304 -26 2470 40 
C 2637 117 2758 202 2842 300 
C 2925 396 2963 494 2963 578 
C 2963 637 2950 682 2925 721 
C 2899 760 2874 786 2842 799 
C 2765 681 2650 577 2496 479 
C 2336 388 2150 342 1926 342 
C 1619 342 1382 452 1229 662 
C 1062 884 979 1223 973 1700 
L 3104 1700 
L 3104 1993 
C 3104 2499 2982 2882 2752 3138 
C 2509 3392 2189 3520 1773 3520 
C 1318 3520 973 3366 723 3063 
C 474 2760 352 2302 352 1702 
C 352 1141 486 709 742 400 
C 1011 90 1370 -64 1837 -64 
z
M 2458 2048 
L 986 2048 
C 1005 2411 1082 2689 1216 2880 
C 1344 3077 1523 3172 1760 3172 
C 2016 3172 2195 3071 2304 2868 
C 2406 2658 2458 2385 2458 2048 
z
" transform="scale(0.015625)"/>
     </defs>
     <use xlink:href="#NotoSerif-Regular-70" transform="scale(0.913673)"/>
     <use xlink:href="#NotoSerif-Regular-30" transform="translate(56.099533 0) scale(0.913673)"/>
     <use xlink:href="#NotoSerif-Regular-65" transform="translate(107.173828 0) scale(0.913673)"/>
     <use xlink:href="#NotoSerif-Regular-30" transform="translate(156.055296 0) scale(0.913673)"/>
    </g>
   </g>
   <g id="text_8">
    <!-- $\node{p0e1}$ -->
    <g transform="translate(73.659179 128.216527) scale(0.09 -0.09)">
     <use xlink:href="#NotoSerif-Regular-70" transform="scale(0.913673)"/>
     <use xlink:href="#NotoSerif-Regular-30" transform="translate(56.099533 0) scale(0.913673)"/>
     <use xlink:href="#NotoSerif-Regular-65" transform="translate(107.173828 0) scale(0.913673)"/>
     <use xlink:href="#NotoSerif-Regular-31" transform="translate(156.055296 0) scale(0.913673)"/>
    </g>
   </g>
   <g id="text_9">
    <!-- $\node{p1a0}$ -->
    <g transform="translate(142.664056 85.016527) scale(0.09 -0.09)">
     <use xlink:href="#NotoSerif-Regular-70" transform="scale(0.913673)"/>
     <use xlink:href="#NotoSerif-Regular-31" transform="translate(56.099533 0) scale(0.913673)"/>
     <use xlink:href="#NotoSerif-Regular-61" transform="translate(107.173828 0) scale(0.913673)"/>
     <use xlink:href="#NotoSerif-Regular-30" transform="translate(158.613573 0) scale(0.913673)"/>
    </g>
   </g>
   <g id="text_10">
    <!-- $\node{p1a1}$ -->
    <g transform="translate(199.544056 85.016527) scale(0.09 -0.09)">
     <use xlink:href="#NotoSerif-Regular-70" transform="scale(0.913673)"/>
     <use xlink:href="#NotoSerif-Regular-31" transform="translate(56.099533 0) scale(0.913673)"/>
     <use xlink:href="#NotoSerif-Regular-61" transform="translate(107.173828 0) scale(0.913673)"/>
     <use xlink:href="#NotoSerif-Regular-31" transform="translate(158.613573 0) scale(0.913673)"/>
    </g>
   </g>
   <g id="text_11">
    <!-- $\node{p1e0}$ -->
    <g transform="translate(142.779179 128.216527) scale(0.09 -0.09)">
     <use xlink:href="#NotoSerif-Regular-70" transform="scale(0.913673)"/>
     <use xlink:href="#NotoSerif-Regular-31" transform="translate(56.099533 0) scale(0.913673)"/>
     <use xlink:href="#NotoSerif-Regular-65" transform="translate(107.173828 0) scale(0.913673)"/>
     <use xlink:href="#NotoSerif-Regular-30" transform="translate(156.055296 0) scale(0.913673)"/>
    </g>
   </g>
   <g id="text_12">
    <!-- $\node{p1e1}$ -->
    <g transform="translate(199.659179 128.216527) scale(0.09 -0.09)">
     <use xlink:href="#NotoSerif-Regular-70" transform="scale(0.913673)"/>
     <use xlink:href="#NotoSerif-Regular-31" transform="translate(56.099533 0) scale(0.913673)"/>
     <use xlink:href="#NotoSerif-Regular-65" transform="translate(107.173828 0) scale(0.913673)"/>
     <use xlink:href="#NotoSerif-Regular-31" transform="translate(156.055296 0) scale(0.913673)"/>
    </g>
   </g>
   <g id="text_13">
    <!-- $\node{p2a0}$ -->
    <g transform="translate(268.664056 85.016527) scale(0.09 -0.09)">
     <use xlink:href="#NotoSerif-Regular-70" transform="scale(0.913673)"/>
     <use xlink:href="#NotoSerif-Regular-32" transform="translate(56.099533 0) scale(0.913673)"/>
     <use xlink:href="#NotoSerif-Regular-61" transform="translate(107.173828 0) scale(0.913673)"/>
     <use xlink:href="#NotoSerif-Regular-30" transform="translate(158.613573 0) scale(0.913673)"/>
    </g>
   </g>
   <g id="text_14">
    <!-- $\node{p2a1}$ -->
    <g transform="translate(325.544056 85.016527) scale(0.09 -0.09)">
     <use xlink:href="#NotoSerif-Regular-70" transform="scale(0.913673)"/>
     <use xlink:href="#NotoSerif-Regular-32" transform="translate(56.099533 0) scale(0.913673)"/>
     <use xlink:href="#NotoSerif-Regular-61" transform="translate(107.173828 0) scale(0.913673)"/>
     <use xlink:href="#NotoSerif-Regular-31" transform="translate(158.613573 0) scale(0.913673)"/>
    </g>
   </g>
   <g id="text_15">
    <!-- $\node{p2e0}$ -->
    <g transform="translate(268.779179 128.216527) scale(0.09 -0.09)">
     <use xlink:href="#NotoSerif-Regular-70" transform="scale(0.913673)"/>
     <use xlink:href="#NotoSerif-Regular-32" transform="translate(56.099533 0) scale(0.913673)"/>
     <use xlink:href="#NotoSerif-Regular-65" transform="translate(107.173828 0) scale(0.913673)"/>
     <use xlink:href="#NotoSerif-Regular-30" transform="translate(156.055296 0) scale(0.913673)"/>
    </g>
   </g>
   <g id="text_16">
    <!-- $\node{p2e1}$ -->
    <g transform="translate(325.659179 128.216527) scale(0.09 -0.09)">
     <use xlink:href="#NotoSerif-Regular-70" transform="scale(0.913673)"/>
     <use xlink:href="#NotoSerif-Regular-32" transform="translate(56.099533 0) scale(0.913673)"/>
     <use xlink:href="#NotoSerif-Regular-65" transform="translate(107.173828 0) scale(0.913673)"/>
     <use xlink:href="#NotoSerif-Regular-31" transform="translate(156.055296 0) scale(0.913673)"/>
    </g>
   </g>
   <g id="text_17">
    <!-- $\node{p3a0}$ -->
    <g transform="translate(394.664056 85.016527) scale(0.09 -0.09)">
     <use xlink:href="#NotoSerif-Regular-70" transform="scale(0.913673)"/>
     <use xlink:href="#NotoSerif-Regular-33" transform="translate(56.099533 0) scale(0.913673)"/>
     <use xlink:href="#NotoSerif-Regular-61" transform="translate(107.173828 0) scale(0.913673)"/>
     <use xlink:href="#NotoSerif-Regular-30" transform="translate(158.613573 0) scale(0.913673)"/>
    </g>
   </g>
   <g id="text_18">
    <!-- $\node{p3a1}$ -->
    <g transform="translate(451.544056 85.016527) scale(0.09 -0.09)">
     <use xlink:href="#NotoSerif-Regular-70" transform="scale(0.913673)"/>
     <use xlink:href="#NotoSerif-Regular-33" transform="translate(56.099533 0) scale(0.913673)"/>
     <use xlink:href="#NotoSerif-Regular-61" transform="translate(107.173828 0) scale(0.913673)"/>
     <use xlink:href="#NotoSerif-Regular-31" transform="translate(158.613573 0) scale(0.913673)"/>
    </g>
   </g>
   <g id="text_19">
    <!-- $\node{p3e0}$ -->
    <g transform="translate(394.779179 128.216527) scale(0.09 -0.09)">
     <use xlink:href="#NotoSerif-Regular-70" transform="scale(0.913673)"/>
     <use xlink:href="#NotoSerif-Regular-33" transform="translate(56.099533 0) scale(0.913673)"/>
     <use xlink:href="#NotoSerif-Regular-65" transform="translate(107.173828 0) scale(0.913673)"/>
     <use xlink:href="#NotoSerif-Regular-30" transform="translate(156.055296 0) scale(0.913673)"/>
    </g>
   </g>
   <g id="text_20">
    <!-- $\node{p3e1}$ -->
    <g transform="translate(451.659179 128.216527) scale(0.09 -0.09)">
     <use xlink:href="#NotoSerif-Regular-70" transform="scale(0.913673)"/>
     <use xlink:href="#NotoSerif-Regular-33" transform="translate(56.099533 0) scale(0.913673)"/>
     <use xlink:href="#NotoSerif-Regular-65" transform="translate(107.173828 0) scale(0.913673)"/>
     <use xlink:href="#NotoSerif-Regular-31" transform="translate(156.055296 0) scale(0.913673)"/>
    </g>
   </g>
   <g id="text_21">
    <!-- $\node{n0}$ -->
    <g style="fill: #ffffff" transform="translate(6.029722 186.077937) scale(0.09 -0.09)">
     <defs>
      <path id="NotoSerif-Regular-6e" d="M 179 0 
L 1901 0 
L 1901 271 
L 1869 271 
C 1728 271 1606 297 1510 348 
C 1408 393 1357 516 1357 703 
L 1357 2063 
C 1357 2250 1382 2418 1434 2579 
C 1478 2740 1562 2863 1677 2966 
C 1786 3056 1939 3108 2131 3108 
C 2394 3108 2573 3030 2675 2876 
C 2784 2721 2835 2502 2835 2224 
L 2835 0 
L 3949 0 
L 3949 271 
L 3917 271 
C 3770 271 3654 297 3571 348 
C 3482 406 3437 535 3437 735 
L 3437 2257 
C 3437 2702 3341 3017 3149 3224 
C 2963 3417 2701 3520 2362 3520 
C 2157 3520 1971 3482 1805 3404 
C 1645 3333 1498 3172 1363 2934 
L 1331 2934 
L 1248 3456 
L 211 3456 
L 211 3185 
L 243 3185 
C 384 3185 506 3159 602 3108 
C 704 3056 755 2934 755 2747 
L 755 735 
C 755 535 704 406 602 348 
C 499 297 378 271 230 271 
L 179 271 
L 179 0 
z
" transform="scale(0.015625)"/>
     </defs>
     <use xlink:href="#NotoSerif-Regular-6e" transform="scale(0.913673)"/>
     <use xlink:href="#NotoSerif-Regular-30" transform="translate(58.931929 0) scale(0.913673)"/>
    </g>
   </g>
   <g id="text_22">
    <!-- $\node{n1}$ -->
    <g style="fill: #ffffff" transform="translate(132.029722 186.077937) scale(0.09 -0.09)">
     <use xlink:href="#NotoSerif-Regular-6e" transform="scale(0.913673)"/>
     <use xlink:href="#NotoSerif-Regular-31" transform="translate(58.931929 0) scale(0.913673)"/>
    </g>
   </g>
   <g id="text_23">
    <!-- $\node{n2}$ -->
    <g style="fill: #ffffff" transform="translate(258.029722 186.077937) scale(0.09 -0.09)">
     <use xlink:href="#NotoSerif-Regular-6e" transform="scale(0.913673)"/>
     <use xlink:href="#NotoSerif-Regular-32" transform="translate(58.931929 0) scale(0.913673)"/>
    </g>
   </g>
   <g id="text_24">
    <!-- $\node{n3}$ -->
    <g style="fill: #ffffff" transform="translate(384.029722 186.077937) scale(0.09 -0.09)">
     <use xlink:href="#NotoSerif-Regular-6e" transform="scale(0.913673)"/>
     <use xlink:href="#NotoSerif-Regular-33" transform="translate(58.931929 0) scale(0.913673)"/>
    </g>
   </g>
   <g id="text_25">
    <!-- $\node{n4}$ -->
    <g style="fill: #ffffff" transform="translate(66.509722 186.077937) scale(0.09 -0.09)">
     <defs>
      <path id="NotoSerif-Regular-34" d="M 1376 0 
L 3302 0 
L 3302 271 
L 3219 271 
C 3072 271 2950 297 2848 349 
C 2746 408 2694 539 2694 742 
L 2694 1280 
L 3488 1280 
L 3488 1641 
L 2694 1641 
L 2694 4608 
L 2086 4608 
L 109 1544 
L 109 1280 
L 2080 1280 
L 2080 742 
C 2080 539 2029 408 1926 349 
C 1824 297 1702 271 1555 271 
L 1376 271 
L 1376 0 
z
M 570 1641 
L 1549 3169 
C 1587 3227 1632 3304 1690 3400 
C 1747 3491 1805 3586 1862 3683 
C 1920 3785 1978 3882 2022 3966 
C 2067 4049 2106 4113 2125 4158 
C 2118 4024 2106 3882 2099 3722 
C 2093 3561 2086 3407 2086 3247 
C 2080 3092 2080 2951 2080 2829 
L 2080 1641 
L 570 1641 
z
" transform="scale(0.015625)"/>
     </defs>
     <use xlink:href="#NotoSerif-Regular-6e" transform="scale(0.913673)"/>
     <use xlink:href="#NotoSerif-Regular-34" transform="translate(58.931929 0) scale(0.913673)"/>
    </g>
   </g>
   <g id="text_26">
    <!-- $\node{n5}$ -->
    <g style="fill: #ffffff" transform="translate(192.509722 186.077937) scale(0.09 -0.09)">
     <defs>
      <path id="NotoSerif-Regular-35" d="M 1562 -64 
C 1888 -64 2170 0 2400 115 
C 2630 243 2803 411 2931 629 
C 3046 853 3110 1109 3110 1399 
C 3110 1700 3046 1950 2918 2155 
C 2790 2348 2618 2502 2394 2605 
C 2176 2700 1926 2752 1651 2752 
C 1466 2752 1306 2739 1184 2720 
C 1062 2694 966 2668 902 2649 
L 1024 4092 
L 2266 4092 
C 2400 4092 2490 4072 2534 4026 
C 2573 3981 2598 3916 2611 3824 
L 2637 3628 
L 2906 3628 
L 2874 4608 
L 736 4608 
L 531 2301 
L 685 2256 
C 768 2288 864 2320 973 2352 
C 1082 2385 1248 2397 1472 2397 
C 1766 2397 2003 2315 2176 2154 
C 2355 1988 2445 1737 2445 1399 
C 2445 1130 2406 918 2330 758 
C 2246 598 2138 489 1997 418 
C 1862 348 1702 316 1530 316 
C 1267 316 1075 380 947 502 
C 819 623 755 777 755 963 
C 621 963 518 931 448 860 
C 384 797 352 706 352 584 
C 352 488 384 391 461 296 
C 525 192 653 109 826 39 
C 998 -32 1248 -64 1562 -64 
z
" transform="scale(0.015625)"/>
     </defs>
     <use xlink:href="#NotoSerif-Regular-6e" transform="scale(0.913673)"/>
     <use xlink:href="#NotoSerif-Regular-35" transform="translate(58.931929 0) scale(0.913673)"/>
    </g>
   </g>
   <g id="text_27">
    <!-- $\node{n6}$ -->
    <g style="fill: #ffffff" transform="translate(318.509722 186.077937) scale(0.09 -0.09)">
     <defs>
      <path id="NotoSerif-Regular-36" d="M 1875 -64 
C 2163 -64 2413 0 2618 130 
C 2822 266 2982 448 3085 682 
C 3200 915 3251 1181 3251 1487 
C 3251 1901 3136 2226 2906 2466 
C 2669 2699 2355 2816 1965 2816 
C 1754 2816 1574 2784 1434 2713 
C 1280 2642 1158 2565 1050 2481 
C 1069 3101 1165 3569 1331 3889 
C 1498 4202 1741 4363 2061 4363 
C 2266 4363 2413 4293 2496 4145 
C 2579 3998 2624 3826 2624 3615 
C 2950 3615 3117 3743 3117 3999 
C 3117 4172 3027 4332 2854 4467 
C 2682 4601 2413 4672 2061 4672 
C 1779 4672 1536 4608 1318 4479 
C 1114 4356 934 4182 800 3962 
C 666 3736 563 3485 493 3201 
C 422 2924 390 2626 390 2323 
C 390 1756 454 1297 589 942 
C 717 594 896 335 1114 181 
C 1344 13 1594 -64 1875 -64 
z
M 1894 290 
C 1638 290 1434 433 1280 712 
C 1133 992 1050 1461 1043 2110 
C 1126 2202 1242 2286 1382 2364 
C 1517 2449 1670 2487 1837 2487 
C 2086 2487 2272 2403 2406 2234 
C 2534 2065 2598 1792 2598 1421 
C 2598 1025 2534 739 2419 556 
C 2291 381 2118 290 1894 290 
z
" transform="scale(0.015625)"/>
     </defs>
     <use xlink:href="#NotoSerif-Regular-6e" transform="scale(0.913673)"/>
     <use xlink:href="#NotoSerif-Regular-36" transform="translate(58.931929 0) scale(0.913673)"/>
    </g>
   </g>
   <g id="text_28">
    <!-- $\node{n7}$ -->
    <g style="fill: #ffffff" transform="translate(444.509722 186.077937) scale(0.09 -0.09)">
     <defs>
      <path id="NotoSerif-Regular-37" d="M 1126 0 
L 1696 0 
L 3270 4425 
L 3270 4612 
L 410 4612 
L 378 3444 
L 646 3444 
L 672 3766 
C 691 3986 819 4096 1043 4096 
L 2637 4096 
L 1126 0 
z
" transform="scale(0.015625)"/>
     </defs>
     <use xlink:href="#NotoSerif-Regular-6e" transform="scale(0.913673)"/>
     <use xlink:href="#NotoSerif-Regular-37" transform="translate(58.931929 0) scale(0.913673)"/>
    </g>
   </g>
   <g id="text_29">
    <!-- $\node{n8}$ -->
    <g style="fill: #ffffff" transform="translate(32.669722 186.077937) scale(0.09 -0.09)">
     <defs>
      <path id="NotoSerif-Regular-38" d="M 1747 -64 
C 2214 -64 2592 52 2867 277 
C 3142 504 3283 826 3283 1233 
C 3283 1511 3187 1749 2989 1949 
C 2790 2150 2534 2324 2221 2472 
C 2483 2601 2688 2743 2848 2904 
C 3008 3059 3085 3278 3085 3562 
C 3085 3885 2976 4150 2752 4363 
C 2534 4569 2227 4672 1824 4672 
C 1498 4672 1229 4620 1024 4504 
C 826 4401 678 4253 582 4078 
C 486 3904 442 3717 442 3517 
C 442 3246 518 3014 672 2826 
C 826 2639 1024 2471 1267 2336 
C 1082 2246 922 2149 768 2046 
C 627 1943 506 1820 422 1677 
C 339 1536 294 1361 294 1155 
C 294 929 346 730 461 543 
C 563 355 730 206 947 103 
C 1158 -13 1427 -64 1747 -64 
z
M 1907 2622 
C 1619 2757 1408 2893 1261 3034 
C 1114 3176 1043 3363 1043 3595 
C 1043 3821 1107 4002 1235 4150 
C 1363 4298 1549 4369 1786 4369 
C 1965 4369 2106 4330 2214 4253 
C 2323 4176 2400 4079 2445 3956 
C 2490 3834 2515 3711 2515 3576 
C 2515 3350 2470 3170 2394 3021 
C 2304 2873 2144 2744 1907 2622 
z
M 1779 232 
C 1491 232 1280 316 1133 477 
C 986 645 915 865 915 1129 
C 915 1368 973 1581 1094 1756 
C 1216 1930 1376 2072 1574 2181 
C 1990 2001 2278 1827 2445 1664 
C 2618 1503 2701 1310 2701 1091 
C 2701 839 2618 632 2445 477 
C 2278 309 2054 232 1779 232 
z
" transform="scale(0.015625)"/>
     </defs>
     <use xlink:href="#NotoSerif-Regular-6e" transform="scale(0.913673)"/>
     <use xlink:href="#NotoSerif-Regular-38" transform="translate(58.931929 0) scale(0.913673)"/>
    </g>
   </g>
   <g id="text_30">
    <!-- $\node{n9}$ -->
    <g style="fill: #ffffff" transform="translate(158.669722 186.077937) scale(0.09 -0.09)">
     <defs>
      <path id="NotoSerif-Regular-39" d="M 1453 -64 
C 1766 -64 2029 7 2253 149 
C 2470 284 2650 478 2790 716 
C 2925 954 3027 1231 3091 1541 
C 3155 1844 3187 2166 3187 2507 
C 3187 3016 3123 3429 2995 3745 
C 2867 4060 2688 4298 2470 4446 
C 2240 4595 1984 4672 1696 4672 
C 1408 4672 1165 4608 960 4467 
C 755 4339 602 4146 486 3915 
C 384 3671 326 3402 326 3094 
C 326 2664 442 2337 678 2119 
C 915 1901 1216 1792 1587 1792 
C 1811 1792 2003 1837 2157 1927 
C 2310 2018 2432 2121 2528 2231 
C 2509 1575 2413 1089 2240 771 
C 2074 453 1811 291 1459 291 
C 1261 291 1101 342 986 446 
C 864 551 774 668 717 804 
C 672 785 627 752 589 693 
C 544 642 525 577 525 494 
C 525 402 550 318 602 227 
C 659 150 755 79 890 20 
C 1024 -38 1216 -64 1453 -64 
z
M 1728 2173 
C 1478 2173 1293 2249 1171 2403 
C 1050 2556 986 2807 986 3158 
C 986 3536 1050 3824 1178 4016 
C 1299 4222 1472 4317 1696 4317 
C 1946 4317 2144 4190 2291 3934 
C 2445 3677 2528 3261 2534 2691 
C 2477 2556 2381 2435 2246 2326 
C 2112 2224 1939 2173 1728 2173 
z
" transform="scale(0.015625)"/>
     </defs>
     <use xlink:href="#NotoSerif-Regular-6e" transform="scale(0.913673)"/>
     <use xlink:href="#NotoSerif-Regular-39" transform="translate(58.931929 0) scale(0.913673)"/>
    </g>
   </g>
   <g id="text_31">
    <!-- $\node{n10}$ -->
    <g style="fill: #ffffff" transform="translate(282.37138 186.077937) scale(0.09 -0.09)">
     <use xlink:href="#NotoSerif-Regular-6e" transform="scale(0.913673)"/>
     <use xlink:href="#NotoSerif-Regular-31" transform="translate(58.931929 0) scale(0.913673)"/>
     <use xlink:href="#NotoSerif-Regular-30" transform="translate(110.006224 0) scale(0.913673)"/>
    </g>
   </g>
   <g id="text_32">
    <!-- $\node{n11}$ -->
    <g style="fill: #ffffff" transform="translate(408.37138 186.077937) scale(0.09 -0.09)">
     <use xlink:href="#NotoSerif-Regular-6e" transform="scale(0.913673)"/>
     <use xlink:href="#NotoSerif-Regular-31" transform="translate(58.931929 0) scale(0.913673)"/>
     <use xlink:href="#NotoSerif-Regular-31" transform="translate(110.006224 0) scale(0.913673)"/>
    </g>
   </g>
   <g id="text_33">
    <!-- $\node{n12}$ -->
    <g style="fill: #ffffff" transform="translate(90.85138 186.077937) scale(0.09 -0.09)">
     <use xlink:href="#NotoSerif-Regular-6e" transform="scale(0.913673)"/>
     <use xlink:href="#NotoSerif-Regular-31" transform="translate(58.931929 0) scale(0.913673)"/>
     <use xlink:href="#NotoSerif-Regular-32" transform="translate(110.006224 0) scale(0.913673)"/>
    </g>
   </g>
   <g id="text_34">
    <!-- $\node{n13}$ -->
    <g style="fill: #ffffff" transform="translate(216.85138 186.077937) scale(0.09 -0.09)">
     <use xlink:href="#NotoSerif-Regular-6e" transform="scale(0.913673)"/>
     <use xlink:href="#NotoSerif-Regular-31" transform="translate(58.931929 0) scale(0.913673)"/>
     <use xlink:href="#NotoSerif-Regular-33" transform="translate(110.006224 0) scale(0.913673)"/>
    </g>
   </g>
   <g id="text_35">
    <!-- $\node{n14}$ -->
    <g style="fill: #ffffff" transform="translate(342.85138 186.077937) scale(0.09 -0.09)">
     <use xlink:href="#NotoSerif-Regular-6e" transform="scale(0.913673)"/>
     <use xlink:href="#NotoSerif-Regular-31" transform="translate(58.931929 0) scale(0.913673)"/>
     <use xlink:href="#NotoSerif-Regular-34" transform="translate(110.006224 0) scale(0.913673)"/>
    </g>
   </g>
   <g id="text_36">
    <!-- $\node{n15}$ -->
    <g style="fill: #ffffff" transform="translate(468.85138 186.077937) scale(0.09 -0.09)">
     <use xlink:href="#NotoSerif-Regular-6e" transform="scale(0.913673)"/>
     <use xlink:href="#NotoSerif-Regular-31" transform="translate(58.931929 0) scale(0.913673)"/>
     <use xlink:href="#NotoSerif-Regular-35" transform="translate(110.006224 0) scale(0.913673)"/>
    </g>
   </g>
  </g>
 </g>
 <defs>
  <clipPath id="p113e54300d">
   <rect x="0" y="0" width="487.08" height="194.724"/>
  </clipPath>
 </defs>
</svg>
