<?xml version="1.0" encoding="utf-8" standalone="no"?>
<!DOCTYPE svg PUBLIC "-//W3C//DTD SVG 1.1//EN"
  "http://www.w3.org/Graphics/SVG/1.1/DTD/svg11.dtd">
<svg xmlns:xlink="http://www.w3.org/1999/xlink" width="487.08pt" height="194.724pt" viewBox="0 0 487.08 194.724" xmlns="http://www.w3.org/2000/svg" version="1.1">
 <metadata>
  <rdf:RDF xmlns:dc="http://purl.org/dc/elements/1.1/" xmlns:cc="http://creativecommons.org/ns#" xmlns:rdf="http://www.w3.org/1999/02/22-rdf-syntax-ns#">
   <cc:Work>
    <dc:type rdf:resource="http://purl.org/dc/dcmitype/StillImage"/>
    <dc:date>2024-08-26T17:59:07.459262</dc:date>
    <dc:format>image/svg+xml</dc:format>
    <dc:creator>
     <cc:Agent>
      <dc:title>Matplotlib v3.8.3, https://matplotlib.org/</dc:title>
     </cc:Agent>
    </dc:creator>
   </cc:Work>
  </rdf:RDF>
 </metadata>
 <defs>
  <style type="text/css">*{stroke-linejoin: round; stroke-linecap: butt}</style>
 </defs>
 <g id="figure_1">
  <g id="patch_1">
   <path d="M 0 194.724 
L 487.08 194.724 
L 487.08 0 
L 0 0 
z
" style="fill: #ffffff"/>
  </g>
  <g id="axes_1">
   <g id="patch_2">
    <path d="M 59.13 20.88 
C 61.765058 20.88 64.292546 19.83308 66.155813 17.969813 
C 68.01908 16.106546 69.066 13.579058 69.066 10.944 
C 69.066 8.308942 68.01908 5.781454 66.155813 3.918187 
C 64.292546 2.05492 61.765058 1.008 59.13 1.008 
C 56.494942 1.008 53.967454 2.05492 52.104187 3.918187 
C 50.24092 5.781454 49.194 8.308942 49.194 10.944 
C 49.194 13.579058 50.24092 16.106546 52.104187 17.969813 
C 53.967454 19.83308 56.494942 20.88 59.13 20.88 
z
" style="fill: #8caed1; stroke: #8caed1; stroke-linejoin: miter"/>
   </g>
   <g id="patch_3">
    <path d="M 182.07 20.88 
C 184.705058 20.88 187.232546 19.83308 189.095813 17.969813 
C 190.95908 16.106546 192.006 13.579058 192.006 10.944 
C 192.006 8.308942 190.95908 5.781454 189.095813 3.918187 
C 187.232546 2.05492 184.705058 1.008 182.07 1.008 
C 179.434942 1.008 176.907454 2.05492 175.044187 3.918187 
C 173.18092 5.781454 172.134 8.308942 172.134 10.944 
C 172.134 13.579058 173.18092 16.106546 175.044187 17.969813 
C 176.907454 19.83308 179.434942 20.88 182.07 20.88 
z
" style="fill: #8caed1; stroke: #8caed1; stroke-linejoin: miter"/>
   </g>
   <g id="patch_4">
    <path d="M 305.01 20.88 
C 307.645058 20.88 310.172546 19.83308 312.035813 17.969813 
C 313.89908 16.106546 314.946 13.579058 314.946 10.944 
C 314.946 8.308942 313.89908 5.781454 312.035813 3.918187 
C 310.172546 2.05492 307.645058 1.008 305.01 1.008 
C 302.374942 1.008 299.847454 2.05492 297.984187 3.918187 
C 296.12092 5.781454 295.074 8.308942 295.074 10.944 
C 295.074 13.579058 296.12092 16.106546 297.984187 17.969813 
C 299.847454 19.83308 302.374942 20.88 305.01 20.88 
z
" style="fill: #8caed1; stroke: #8caed1; stroke-linejoin: miter"/>
   </g>
   <g id="patch_5">
    <path d="M 427.95 20.88 
C 430.585058 20.88 433.112546 19.83308 434.975813 17.969813 
C 436.83908 16.106546 437.886 13.579058 437.886 10.944 
C 437.886 8.308942 436.83908 5.781454 434.975813 3.918187 
C 433.112546 2.05492 430.585058 1.008 427.95 1.008 
C 425.314942 1.008 422.787454 2.05492 420.924187 3.918187 
C 419.06092 5.781454 418.014 8.308942 418.014 10.944 
C 418.014 13.579058 419.06092 16.106546 420.924187 17.969813 
C 422.787454 19.83308 425.314942 20.88 427.95 20.88 
z
" style="fill: #8caed1; stroke: #8caed1; stroke-linejoin: miter"/>
   </g>
   <g id="patch_6">
    <path d="M 26.1 92.88 
C 28.735058 92.88 31.262546 91.83308 33.125813 89.969813 
C 34.98908 88.106546 36.036 85.579058 36.036 82.944 
C 36.036 80.308942 34.98908 77.781454 33.125813 75.918187 
C 31.262546 74.05492 28.735058 73.008 26.1 73.008 
C 23.464942 73.008 20.937454 74.05492 19.074187 75.918187 
C 17.21092 77.781454 16.164 80.308942 16.164 82.944 
C 16.164 85.579058 17.21092 88.106546 19.074187 89.969813 
C 20.937454 91.83308 23.464942 92.88 26.1 92.88 
z
" style="fill: #8caed1; stroke: #8caed1; stroke-linejoin: miter"/>
   </g>
   <g id="patch_7">
    <path d="M 82.98 92.88 
C 85.615058 92.88 88.142546 91.83308 90.005813 89.969813 
C 91.86908 88.106546 92.916 85.579058 92.916 82.944 
C 92.916 80.308942 91.86908 77.781454 90.005813 75.918187 
C 88.142546 74.05492 85.615058 73.008 82.98 73.008 
C 80.344942 73.008 77.817454 74.05492 75.954187 75.918187 
C 74.09092 77.781454 73.044 80.308942 73.044 82.944 
C 73.044 85.579058 74.09092 88.106546 75.954187 89.969813 
C 77.817454 91.83308 80.344942 92.88 82.98 92.88 
z
" style="fill: #8caed1; stroke: #8caed1; stroke-linejoin: miter"/>
   </g>
   <g id="patch_8">
    <path d="M 26.1 136.08 
C 28.735058 136.08 31.262546 135.03308 33.125813 133.169813 
C 34.98908 131.306546 36.036 128.779058 36.036 126.144 
C 36.036 123.508942 34.98908 120.981454 33.125813 119.118187 
C 31.262546 117.25492 28.735058 116.208 26.1 116.208 
C 23.464942 116.208 20.937454 117.25492 19.074187 119.118187 
C 17.21092 120.981454 16.164 123.508942 16.164 126.144 
C 16.164 128.779058 17.21092 131.306546 19.074187 133.169813 
C 20.937454 135.03308 23.464942 136.08 26.1 136.08 
z
" style="fill: #8caed1; stroke: #8caed1; stroke-linejoin: miter"/>
   </g>
   <g id="patch_9">
    <path d="M 82.98 136.08 
C 85.615058 136.08 88.142546 135.03308 90.005813 133.169813 
C 91.86908 131.306546 92.916 128.779058 92.916 126.144 
C 92.916 123.508942 91.86908 120.981454 90.005813 119.118187 
C 88.142546 117.25492 85.615058 116.208 82.98 116.208 
C 80.344942 116.208 77.817454 117.25492 75.954187 119.118187 
C 74.09092 120.981454 73.044 123.508942 73.044 126.144 
C 73.044 128.779058 74.09092 131.306546 75.954187 133.169813 
C 77.817454 135.03308 80.344942 136.08 82.98 136.08 
z
" style="fill: #8caed1; stroke: #8caed1; stroke-linejoin: miter"/>
   </g>
   <g id="patch_10">
    <path d="M 152.1 92.88 
C 154.735058 92.88 157.262546 91.83308 159.125813 89.969813 
C 160.98908 88.106546 162.036 85.579058 162.036 82.944 
C 162.036 80.308942 160.98908 77.781454 159.125813 75.918187 
C 157.262546 74.05492 154.735058 73.008 152.1 73.008 
C 149.464942 73.008 146.937454 74.05492 145.074187 75.918187 
C 143.21092 77.781454 142.164 80.308942 142.164 82.944 
C 142.164 85.579058 143.21092 88.106546 145.074187 89.969813 
C 146.937454 91.83308 149.464942 92.88 152.1 92.88 
z
" style="fill: #8caed1; stroke: #8caed1; stroke-linejoin: miter"/>
   </g>
   <g id="patch_11">
    <path d="M 208.98 92.88 
C 211.615058 92.88 214.142546 91.83308 216.005813 89.969813 
C 217.86908 88.106546 218.916 85.579058 218.916 82.944 
C 218.916 80.308942 217.86908 77.781454 216.005813 75.918187 
C 214.142546 74.05492 211.615058 73.008 208.98 73.008 
C 206.344942 73.008 203.817454 74.05492 201.954187 75.918187 
C 200.09092 77.781454 199.044 80.308942 199.044 82.944 
C 199.044 85.579058 200.09092 88.106546 201.954187 89.969813 
C 203.817454 91.83308 206.344942 92.88 208.98 92.88 
z
" style="fill: #8caed1; stroke: #8caed1; stroke-linejoin: miter"/>
   </g>
   <g id="patch_12">
    <path d="M 152.1 136.08 
C 154.735058 136.08 157.262546 135.03308 159.125813 133.169813 
C 160.98908 131.306546 162.036 128.779058 162.036 126.144 
C 162.036 123.508942 160.98908 120.981454 159.125813 119.118187 
C 157.262546 117.25492 154.735058 116.208 152.1 116.208 
C 149.464942 116.208 146.937454 117.25492 145.074187 119.118187 
C 143.21092 120.981454 142.164 123.508942 142.164 126.144 
C 142.164 128.779058 143.21092 131.306546 145.074187 133.169813 
C 146.937454 135.03308 149.464942 136.08 152.1 136.08 
z
" style="fill: #8caed1; stroke: #8caed1; stroke-linejoin: miter"/>
   </g>
   <g id="patch_13">
    <path d="M 208.98 136.08 
C 211.615058 136.08 214.142546 135.03308 216.005813 133.169813 
C 217.86908 131.306546 218.916 128.779058 218.916 126.144 
C 218.916 123.508942 217.86908 120.981454 216.005813 119.118187 
C 214.142546 117.25492 211.615058 116.208 208.98 116.208 
C 206.344942 116.208 203.817454 117.25492 201.954187 119.118187 
C 200.09092 120.981454 199.044 123.508942 199.044 126.144 
C 199.044 128.779058 200.09092 131.306546 201.954187 133.169813 
C 203.817454 135.03308 206.344942 136.08 208.98 136.08 
z
" style="fill: #8caed1; stroke: #8caed1; stroke-linejoin: miter"/>
   </g>
   <g id="patch_14">
    <path d="M 278.1 92.88 
C 280.735058 92.88 283.262546 91.83308 285.125813 89.969813 
C 286.98908 88.106546 288.036 85.579058 288.036 82.944 
C 288.036 80.308942 286.98908 77.781454 285.125813 75.918187 
C 283.262546 74.05492 280.735058 73.008 278.1 73.008 
C 275.464942 73.008 272.937454 74.05492 271.074187 75.918187 
C 269.21092 77.781454 268.164 80.308942 268.164 82.944 
C 268.164 85.579058 269.21092 88.106546 271.074187 89.969813 
C 272.937454 91.83308 275.464942 92.88 278.1 92.88 
z
" style="fill: #8caed1; stroke: #8caed1; stroke-linejoin: miter"/>
   </g>
   <g id="patch_15">
    <path d="M 334.98 92.88 
C 337.615058 92.88 340.142546 91.83308 342.005813 89.969813 
C 343.86908 88.106546 344.916 85.579058 344.916 82.944 
C 344.916 80.308942 343.86908 77.781454 342.005813 75.918187 
C 340.142546 74.05492 337.615058 73.008 334.98 73.008 
C 332.344942 73.008 329.817454 74.05492 327.954187 75.918187 
C 326.09092 77.781454 325.044 80.308942 325.044 82.944 
C 325.044 85.579058 326.09092 88.106546 327.954187 89.969813 
C 329.817454 91.83308 332.344942 92.88 334.98 92.88 
z
" style="fill: #8caed1; stroke: #8caed1; stroke-linejoin: miter"/>
   </g>
   <g id="patch_16">
    <path d="M 278.1 136.08 
C 280.735058 136.08 283.262546 135.03308 285.125813 133.169813 
C 286.98908 131.306546 288.036 128.779058 288.036 126.144 
C 288.036 123.508942 286.98908 120.981454 285.125813 119.118187 
C 283.262546 117.25492 280.735058 116.208 278.1 116.208 
C 275.464942 116.208 272.937454 117.25492 271.074187 119.118187 
C 269.21092 120.981454 268.164 123.508942 268.164 126.144 
C 268.164 128.779058 269.21092 131.306546 271.074187 133.169813 
C 272.937454 135.03308 275.464942 136.08 278.1 136.08 
z
" style="fill: #8caed1; stroke: #8caed1; stroke-linejoin: miter"/>
   </g>
   <g id="patch_17">
    <path d="M 334.98 136.08 
C 337.615058 136.08 340.142546 135.03308 342.005813 133.169813 
C 343.86908 131.306546 344.916 128.779058 344.916 126.144 
C 344.916 123.508942 343.86908 120.981454 342.005813 119.118187 
C 340.142546 117.25492 337.615058 116.208 334.98 116.208 
C 332.344942 116.208 329.817454 117.25492 327.954187 119.118187 
C 326.09092 120.981454 325.044 123.508942 325.044 126.144 
C 325.044 128.779058 326.09092 131.306546 327.954187 133.169813 
C 329.817454 135.03308 332.344942 136.08 334.98 136.08 
z
" style="fill: #8caed1; stroke: #8caed1; stroke-linejoin: miter"/>
   </g>
   <g id="patch_18">
    <path d="M 404.1 92.88 
C 406.735058 92.88 409.262546 91.83308 411.125813 89.969813 
C 412.98908 88.106546 414.036 85.579058 414.036 82.944 
C 414.036 80.308942 412.98908 77.781454 411.125813 75.918187 
C 409.262546 74.05492 406.735058 73.008 404.1 73.008 
C 401.464942 73.008 398.937454 74.05492 397.074187 75.918187 
C 395.21092 77.781454 394.164 80.308942 394.164 82.944 
C 394.164 85.579058 395.21092 88.106546 397.074187 89.969813 
C 398.937454 91.83308 401.464942 92.88 404.1 92.88 
z
" style="fill: #8caed1; stroke: #8caed1; stroke-linejoin: miter"/>
   </g>
   <g id="patch_19">
    <path d="M 460.98 92.88 
C 463.615058 92.88 466.142546 91.83308 468.005813 89.969813 
C 469.86908 88.106546 470.916 85.579058 470.916 82.944 
C 470.916 80.308942 469.86908 77.781454 468.005813 75.918187 
C 466.142546 74.05492 463.615058 73.008 460.98 73.008 
C 458.344942 73.008 455.817454 74.05492 453.954187 75.918187 
C 452.09092 77.781454 451.044 80.308942 451.044 82.944 
C 451.044 85.579058 452.09092 88.106546 453.954187 89.969813 
C 455.817454 91.83308 458.344942 92.88 460.98 92.88 
z
" style="fill: #8caed1; stroke: #8caed1; stroke-linejoin: miter"/>
   </g>
   <g id="patch_20">
    <path d="M 404.1 136.08 
C 406.735058 136.08 409.262546 135.03308 411.125813 133.169813 
C 412.98908 131.306546 414.036 128.779058 414.036 126.144 
C 414.036 123.508942 412.98908 120.981454 411.125813 119.118187 
C 409.262546 117.25492 406.735058 116.208 404.1 116.208 
C 401.464942 116.208 398.937454 117.25492 397.074187 119.118187 
C 395.21092 120.981454 394.164 123.508942 394.164 126.144 
C 394.164 128.779058 395.21092 131.306546 397.074187 133.169813 
C 398.937454 135.03308 401.464942 136.08 404.1 136.08 
z
" style="fill: #8caed1; stroke: #8caed1; stroke-linejoin: miter"/>
   </g>
   <g id="patch_21">
    <path d="M 460.98 136.08 
C 463.615058 136.08 466.142546 135.03308 468.005813 133.169813 
C 469.86908 131.306546 470.916 128.779058 470.916 126.144 
C 470.916 123.508942 469.86908 120.981454 468.005813 119.118187 
C 466.142546 117.25492 463.615058 116.208 460.98 116.208 
C 458.344942 116.208 455.817454 117.25492 453.954187 119.118187 
C 452.09092 120.981454 451.044 123.508942 451.044 126.144 
C 451.044 128.779058 452.09092 131.306546 453.954187 133.169813 
C 455.817454 135.03308 458.344942 136.08 460.98 136.08 
z
" style="fill: #8caed1; stroke: #8caed1; stroke-linejoin: miter"/>
   </g>
   <g id="patch_22">
    <path d="M 2.52 192.204 
L 19.44 192.204 
L 19.44 175.284 
L 2.52 175.284 
z
" style="fill: #2967a9; stroke: #2967a9; stroke-width: 4"/>
   </g>
   <g id="patch_23">
    <path d="M 128.52 192.204 
L 145.44 192.204 
L 145.44 175.284 
L 128.52 175.284 
z
" style="fill: #2967a9; stroke: #2967a9; stroke-width: 4"/>
   </g>
   <g id="patch_24">
    <path d="M 254.52 192.204 
L 271.44 192.204 
L 271.44 175.284 
L 254.52 175.284 
z
" style="fill: #2967a9; stroke: #2967a9; stroke-width: 4"/>
   </g>
   <g id="patch_25">
    <path d="M 380.52 192.204 
L 397.44 192.204 
L 397.44 175.284 
L 380.52 175.284 
z
" style="fill: #2967a9; stroke: #2967a9; stroke-width: 4"/>
   </g>
   <g id="patch_26">
    <path d="M 63 192.204 
L 79.92 192.204 
L 79.92 175.284 
L 63 175.284 
z
" style="fill: #2967a9; stroke: #2967a9; stroke-width: 4"/>
   </g>
   <g id="patch_27">
    <path d="M 189 192.204 
L 205.92 192.204 
L 205.92 175.284 
L 189 175.284 
z
" style="fill: #2967a9; stroke: #2967a9; stroke-width: 4"/>
   </g>
   <g id="patch_28">
    <path d="M 315 192.204 
L 331.92 192.204 
L 331.92 175.284 
L 315 175.284 
z
" style="fill: #2967a9; stroke: #2967a9; stroke-width: 4"/>
   </g>
   <g id="patch_29">
    <path d="M 441 192.204 
L 457.92 192.204 
L 457.92 175.284 
L 441 175.284 
z
" style="fill: #2967a9; stroke: #2967a9; stroke-width: 4"/>
   </g>
   <g id="patch_30">
    <path d="M 29.16 192.204 
L 46.08 192.204 
L 46.08 175.284 
L 29.16 175.284 
z
" style="fill: #2967a9; stroke: #2967a9; stroke-width: 4"/>
   </g>
   <g id="patch_31">
    <path d="M 155.16 192.204 
L 172.08 192.204 
L 172.08 175.284 
L 155.16 175.284 
z
" style="fill: #2967a9; stroke: #2967a9; stroke-width: 4"/>
   </g>
   <g id="patch_32">
    <path d="M 281.16 192.204 
L 298.08 192.204 
L 298.08 175.284 
L 281.16 175.284 
z
" style="fill: #2967a9; stroke: #2967a9; stroke-width: 4"/>
   </g>
   <g id="patch_33">
    <path d="M 407.16 192.204 
L 424.08 192.204 
L 424.08 175.284 
L 407.16 175.284 
z
" style="fill: #2967a9; stroke: #2967a9; stroke-width: 4"/>
   </g>
   <g id="patch_34">
    <path d="M 89.64 192.204 
L 106.56 192.204 
L 106.56 175.284 
L 89.64 175.284 
z
" style="fill: #2967a9; stroke: #2967a9; stroke-width: 4"/>
   </g>
   <g id="patch_35">
    <path d="M 215.64 192.204 
L 232.56 192.204 
L 232.56 175.284 
L 215.64 175.284 
z
" style="fill: #2967a9; stroke: #2967a9; stroke-width: 4"/>
   </g>
   <g id="patch_36">
    <path d="M 341.64 192.204 
L 358.56 192.204 
L 358.56 175.284 
L 341.64 175.284 
z
" style="fill: #2967a9; stroke: #2967a9; stroke-width: 4"/>
   </g>
   <g id="patch_37">
    <path d="M 467.64 192.204 
L 484.56 192.204 
L 484.56 175.284 
L 467.64 175.284 
z
" style="fill: #2967a9; stroke: #2967a9; stroke-width: 4"/>
   </g>
   <g id="patch_38">
    <path d="M 53.489671 23.238995 
Q 42.615319 46.943305 31.740966 70.647616 
" clip-path="url(#peb7e2d912f)" style="fill: none; stroke: #bfc6c9; stroke-linecap: round"/>
    <path d="M 49.829672 26.180832 
L 53.489671 23.238995 
L 53.647142 27.932096 
" clip-path="url(#peb7e2d912f)" style="fill: none; stroke: #bfc6c9; stroke-linecap: round"/>
    <path d="M 35.400965 67.705779 
L 31.740966 70.647616 
L 31.583496 65.954514 
" clip-path="url(#peb7e2d912f)" style="fill: none; stroke: #bfc6c9; stroke-linecap: round"/>
   </g>
   <g id="patch_39">
    <path d="M 69.841791 19.239675 
Q 105.616615 46.94525 141.391439 74.650826 
" clip-path="url(#peb7e2d912f)" style="fill: none; stroke: #bfc6c9; stroke-linecap: round"/>
    <path d="M 71.876606 23.47164 
L 69.841791 19.239675 
L 74.448252 20.151002 
" clip-path="url(#peb7e2d912f)" style="fill: none; stroke: #bfc6c9; stroke-linecap: round"/>
    <path d="M 139.356624 70.418861 
L 141.391439 74.650826 
L 136.784978 73.739499 
" clip-path="url(#peb7e2d912f)" style="fill: none; stroke: #bfc6c9; stroke-linecap: round"/>
   </g>
   <g id="patch_40">
    <path d="M 72.004682 15.177352 
Q 168.616134 46.944373 265.227586 78.711394 
" clip-path="url(#peb7e2d912f)" style="fill: none; stroke: #bfc6c9; stroke-linecap: round"/>
    <path d="M 75.338575 18.484187 
L 72.004682 15.177352 
L 76.650485 14.494338 
" clip-path="url(#peb7e2d912f)" style="fill: none; stroke: #bfc6c9; stroke-linecap: round"/>
    <path d="M 261.893693 75.404559 
L 265.227586 78.711394 
L 260.581782 79.394407 
" clip-path="url(#peb7e2d912f)" style="fill: none; stroke: #bfc6c9; stroke-linecap: round"/>
   </g>
   <g id="patch_41">
    <path d="M 72.366252 13.706588 
Q 231.615578 46.944121 390.864904 80.181653 
" clip-path="url(#peb7e2d912f)" style="fill: none; stroke: #bfc6c9; stroke-linecap: round"/>
    <path d="M 76.048604 16.620398 
L 72.366252 13.706588 
L 76.906711 12.508993 
" clip-path="url(#peb7e2d912f)" style="fill: none; stroke: #bfc6c9; stroke-linecap: round"/>
    <path d="M 387.182553 77.267843 
L 390.864904 80.181653 
L 386.324446 81.379248 
" clip-path="url(#peb7e2d912f)" style="fill: none; stroke: #bfc6c9; stroke-linecap: round"/>
   </g>
   <g id="patch_42">
    <path d="M 169.780046 16.617378 
Q 104.081849 46.945455 38.383651 77.273532 
" clip-path="url(#peb7e2d912f)" style="fill: none; stroke: #bfc6c9; stroke-linecap: round"/>
    <path d="M 165.086584 16.471051 
L 169.780046 16.617378 
L 166.846907 20.284351 
" clip-path="url(#peb7e2d912f)" style="fill: none; stroke: #bfc6c9; stroke-linecap: round"/>
    <path d="M 43.077114 77.419859 
L 38.383651 77.273532 
L 41.31679 73.606558 
" clip-path="url(#peb7e2d912f)" style="fill: none; stroke: #bfc6c9; stroke-linecap: round"/>
   </g>
   <g id="patch_43">
    <path d="M 176.875017 23.424439 
Q 167.085902 46.941833 157.296787 70.459227 
" clip-path="url(#peb7e2d912f)" style="fill: none; stroke: #bfc6c9; stroke-linecap: round"/>
    <path d="M 173.322261 26.494931 
L 176.875017 23.424439 
L 177.199758 28.108939 
" clip-path="url(#peb7e2d912f)" style="fill: none; stroke: #bfc6c9; stroke-linecap: round"/>
    <path d="M 160.849543 67.388735 
L 157.296787 70.459227 
L 156.972046 65.774727 
" clip-path="url(#peb7e2d912f)" style="fill: none; stroke: #bfc6c9; stroke-linecap: round"/>
   </g>
   <g id="patch_44">
    <path d="M 192.902876 19.066119 
Q 230.085198 46.944148 267.267519 74.822178 
" clip-path="url(#peb7e2d912f)" style="fill: none; stroke: #bfc6c9; stroke-linecap: round"/>
    <path d="M 195.003506 23.265804 
L 192.902876 19.066119 
L 197.523002 19.905426 
" clip-path="url(#peb7e2d912f)" style="fill: none; stroke: #bfc6c9; stroke-linecap: round"/>
    <path d="M 265.16689 70.622493 
L 267.267519 74.822178 
L 262.647394 73.982871 
" clip-path="url(#peb7e2d912f)" style="fill: none; stroke: #bfc6c9; stroke-linecap: round"/>
   </g>
   <g id="patch_45">
    <path d="M 194.966877 15.126206 
Q 293.086769 46.944574 391.206662 78.762942 
" clip-path="url(#peb7e2d912f)" style="fill: none; stroke: #bfc6c9; stroke-linecap: round"/>
    <path d="M 198.314283 18.419361 
L 194.966877 15.126206 
L 199.609844 14.424173 
" clip-path="url(#peb7e2d912f)" style="fill: none; stroke: #bfc6c9; stroke-linecap: round"/>
    <path d="M 387.859255 75.469787 
L 391.206662 78.762942 
L 386.563694 79.464974 
" clip-path="url(#peb7e2d912f)" style="fill: none; stroke: #bfc6c9; stroke-linecap: round"/>
   </g>
   <g id="patch_46">
    <path d="M 292.113123 15.126206 
Q 193.993231 46.944574 95.873338 78.762942 
" clip-path="url(#peb7e2d912f)" style="fill: none; stroke: #bfc6c9; stroke-linecap: round"/>
    <path d="M 287.470156 14.424173 
L 292.113123 15.126206 
L 288.765717 18.419361 
" clip-path="url(#peb7e2d912f)" style="fill: none; stroke: #bfc6c9; stroke-linecap: round"/>
    <path d="M 100.516306 79.464974 
L 95.873338 78.762942 
L 99.220745 75.469787 
" clip-path="url(#peb7e2d912f)" style="fill: none; stroke: #bfc6c9; stroke-linecap: round"/>
   </g>
   <g id="patch_47">
    <path d="M 294.177124 19.066119 
Q 256.994802 46.944148 219.812481 74.822178 
" clip-path="url(#peb7e2d912f)" style="fill: none; stroke: #bfc6c9; stroke-linecap: round"/>
    <path d="M 289.556998 19.905426 
L 294.177124 19.066119 
L 292.076494 23.265804 
" clip-path="url(#peb7e2d912f)" style="fill: none; stroke: #bfc6c9; stroke-linecap: round"/>
    <path d="M 224.432606 73.982871 
L 219.812481 74.822178 
L 221.91311 70.622493 
" clip-path="url(#peb7e2d912f)" style="fill: none; stroke: #bfc6c9; stroke-linecap: round"/>
   </g>
   <g id="patch_48">
    <path d="M 310.204983 23.424439 
Q 319.994098 46.941833 329.783213 70.459227 
" clip-path="url(#peb7e2d912f)" style="fill: none; stroke: #bfc6c9; stroke-linecap: round"/>
    <path d="M 309.880242 28.108939 
L 310.204983 23.424439 
L 313.757739 26.494931 
" clip-path="url(#peb7e2d912f)" style="fill: none; stroke: #bfc6c9; stroke-linecap: round"/>
    <path d="M 330.107954 65.774727 
L 329.783213 70.459227 
L 326.230457 67.388735 
" clip-path="url(#peb7e2d912f)" style="fill: none; stroke: #bfc6c9; stroke-linecap: round"/>
   </g>
   <g id="patch_49">
    <path d="M 317.299954 16.617378 
Q 382.998151 46.945455 448.696349 77.273532 
" clip-path="url(#peb7e2d912f)" style="fill: none; stroke: #bfc6c9; stroke-linecap: round"/>
    <path d="M 320.233093 20.284351 
L 317.299954 16.617378 
L 321.993416 16.471051 
" clip-path="url(#peb7e2d912f)" style="fill: none; stroke: #bfc6c9; stroke-linecap: round"/>
    <path d="M 445.76321 73.606558 
L 448.696349 77.273532 
L 444.002886 77.419859 
" clip-path="url(#peb7e2d912f)" style="fill: none; stroke: #bfc6c9; stroke-linecap: round"/>
   </g>
   <g id="patch_50">
    <path d="M 414.713748 13.706588 
Q 255.464422 46.944121 96.215096 80.181653 
" clip-path="url(#peb7e2d912f)" style="fill: none; stroke: #bfc6c9; stroke-linecap: round"/>
    <path d="M 410.173289 12.508993 
L 414.713748 13.706588 
L 411.031396 16.620398 
" clip-path="url(#peb7e2d912f)" style="fill: none; stroke: #bfc6c9; stroke-linecap: round"/>
    <path d="M 100.755554 81.379248 
L 96.215096 80.181653 
L 99.897447 77.267843 
" clip-path="url(#peb7e2d912f)" style="fill: none; stroke: #bfc6c9; stroke-linecap: round"/>
   </g>
   <g id="patch_51">
    <path d="M 415.075318 15.177352 
Q 318.463866 46.944373 221.852414 78.711394 
" clip-path="url(#peb7e2d912f)" style="fill: none; stroke: #bfc6c9; stroke-linecap: round"/>
    <path d="M 410.429515 14.494338 
L 415.075318 15.177352 
L 411.741425 18.484187 
" clip-path="url(#peb7e2d912f)" style="fill: none; stroke: #bfc6c9; stroke-linecap: round"/>
    <path d="M 226.498218 79.394407 
L 221.852414 78.711394 
L 225.186307 75.404559 
" clip-path="url(#peb7e2d912f)" style="fill: none; stroke: #bfc6c9; stroke-linecap: round"/>
   </g>
   <g id="patch_52">
    <path d="M 417.238209 19.239675 
Q 381.463385 46.94525 345.688561 74.650826 
" clip-path="url(#peb7e2d912f)" style="fill: none; stroke: #bfc6c9; stroke-linecap: round"/>
    <path d="M 412.631748 20.151002 
L 417.238209 19.239675 
L 415.203394 23.47164 
" clip-path="url(#peb7e2d912f)" style="fill: none; stroke: #bfc6c9; stroke-linecap: round"/>
    <path d="M 350.295022 73.739499 
L 345.688561 74.650826 
L 347.723376 70.418861 
" clip-path="url(#peb7e2d912f)" style="fill: none; stroke: #bfc6c9; stroke-linecap: round"/>
   </g>
   <g id="patch_53">
    <path d="M 433.590329 23.238995 
Q 444.464681 46.943305 455.339034 70.647616 
" clip-path="url(#peb7e2d912f)" style="fill: none; stroke: #bfc6c9; stroke-linecap: round"/>
    <path d="M 433.432858 27.932096 
L 433.590329 23.238995 
L 437.250328 26.180832 
" clip-path="url(#peb7e2d912f)" style="fill: none; stroke: #bfc6c9; stroke-linecap: round"/>
    <path d="M 455.496504 65.954514 
L 455.339034 70.647616 
L 451.679035 67.705779 
" clip-path="url(#peb7e2d912f)" style="fill: none; stroke: #bfc6c9; stroke-linecap: round"/>
   </g>
   <g id="patch_54">
    <path d="M 26.1 96.498603 
Q 26.1 104.545262 26.1 112.591921 
" clip-path="url(#peb7e2d912f)" style="fill: none; stroke: #bfc6c9; stroke-linecap: round"/>
    <path d="M 24 100.698603 
L 26.1 96.498603 
L 28.2 100.698603 
" clip-path="url(#peb7e2d912f)" style="fill: none; stroke: #bfc6c9; stroke-linecap: round"/>
    <path d="M 28.2 108.391921 
L 26.1 112.591921 
L 24 108.391921 
" clip-path="url(#peb7e2d912f)" style="fill: none; stroke: #bfc6c9; stroke-linecap: round"/>
   </g>
   <g id="patch_55">
    <path d="M 36.881789 91.132701 
Q 54.539167 104.543367 72.196545 117.954034 
" clip-path="url(#peb7e2d912f)" style="fill: none; stroke: #bfc6c9; stroke-linecap: round"/>
    <path d="M 38.956348 95.345325 
L 36.881789 91.132701 
L 41.496624 92.000628 
" clip-path="url(#peb7e2d912f)" style="fill: none; stroke: #bfc6c9; stroke-linecap: round"/>
    <path d="M 70.121986 113.74141 
L 72.196545 117.954034 
L 67.58171 117.086106 
" clip-path="url(#peb7e2d912f)" style="fill: none; stroke: #bfc6c9; stroke-linecap: round"/>
   </g>
   <g id="patch_56">
    <path d="M 72.198211 91.132701 
Q 54.540833 104.543367 36.883455 117.954034 
" clip-path="url(#peb7e2d912f)" style="fill: none; stroke: #bfc6c9; stroke-linecap: round"/>
    <path d="M 67.583376 92.000628 
L 72.198211 91.132701 
L 70.123652 95.345325 
" clip-path="url(#peb7e2d912f)" style="fill: none; stroke: #bfc6c9; stroke-linecap: round"/>
    <path d="M 41.49829 117.086106 
L 36.883455 117.954034 
L 38.958014 113.74141 
" clip-path="url(#peb7e2d912f)" style="fill: none; stroke: #bfc6c9; stroke-linecap: round"/>
   </g>
   <g id="patch_57">
    <path d="M 82.98 96.498603 
Q 82.98 104.545262 82.98 112.591921 
" clip-path="url(#peb7e2d912f)" style="fill: none; stroke: #bfc6c9; stroke-linecap: round"/>
    <path d="M 80.88 100.698603 
L 82.98 96.498603 
L 85.08 100.698603 
" clip-path="url(#peb7e2d912f)" style="fill: none; stroke: #bfc6c9; stroke-linecap: round"/>
    <path d="M 85.08 108.391921 
L 82.98 112.591921 
L 80.88 108.391921 
" clip-path="url(#peb7e2d912f)" style="fill: none; stroke: #bfc6c9; stroke-linecap: round"/>
   </g>
   <g id="patch_58">
    <path d="M 22.663258 139.23635 
Q 18.590504 154.751604 14.51775 170.266857 
" clip-path="url(#peb7e2d912f)" style="fill: none; stroke: #bfc6c9; stroke-linecap: round"/>
    <path d="M 19.565701 142.765534 
L 22.663258 139.23635 
L 23.628071 143.831906 
" clip-path="url(#peb7e2d912f)" style="fill: none; stroke: #bfc6c9; stroke-linecap: round"/>
    <path d="M 17.615307 166.737673 
L 14.51775 170.266857 
L 13.552937 165.671301 
" clip-path="url(#peb7e2d912f)" style="fill: none; stroke: #bfc6c9; stroke-linecap: round"/>
   </g>
   <g id="patch_59">
    <path d="M 28.751364 139.400818 
Q 31.834182 154.814909 34.917 170.228999 
" clip-path="url(#peb7e2d912f)" style="fill: none; stroke: #bfc6c9; stroke-linecap: round"/>
    <path d="M 27.515832 143.931101 
L 28.751364 139.400818 
L 31.634271 143.107413 
" clip-path="url(#peb7e2d912f)" style="fill: none; stroke: #bfc6c9; stroke-linecap: round"/>
    <path d="M 36.152532 165.698717 
L 34.917 170.228999 
L 32.034093 166.522404 
" clip-path="url(#peb7e2d912f)" style="fill: none; stroke: #bfc6c9; stroke-linecap: round"/>
   </g>
   <g id="patch_60">
    <path d="M 80.328636 139.400818 
Q 77.245818 154.814909 74.163 170.228999 
" clip-path="url(#peb7e2d912f)" style="fill: none; stroke: #bfc6c9; stroke-linecap: round"/>
    <path d="M 77.445729 143.107413 
L 80.328636 139.400818 
L 81.564168 143.931101 
" clip-path="url(#peb7e2d912f)" style="fill: none; stroke: #bfc6c9; stroke-linecap: round"/>
    <path d="M 77.045907 166.522404 
L 74.163 170.228999 
L 72.927468 165.698717 
" clip-path="url(#peb7e2d912f)" style="fill: none; stroke: #bfc6c9; stroke-linecap: round"/>
   </g>
   <g id="patch_61">
    <path d="M 86.416742 139.23635 
Q 90.489496 154.751604 94.56225 170.266857 
" clip-path="url(#peb7e2d912f)" style="fill: none; stroke: #bfc6c9; stroke-linecap: round"/>
    <path d="M 85.451929 143.831906 
L 86.416742 139.23635 
L 89.514299 142.765534 
" clip-path="url(#peb7e2d912f)" style="fill: none; stroke: #bfc6c9; stroke-linecap: round"/>
    <path d="M 95.527063 165.671301 
L 94.56225 170.266857 
L 91.464693 166.737673 
" clip-path="url(#peb7e2d912f)" style="fill: none; stroke: #bfc6c9; stroke-linecap: round"/>
   </g>
   <g id="patch_62">
    <path d="M 152.1 96.498603 
Q 152.1 104.545262 152.1 112.591921 
" clip-path="url(#peb7e2d912f)" style="fill: none; stroke: #bfc6c9; stroke-linecap: round"/>
    <path d="M 150 100.698603 
L 152.1 96.498603 
L 154.2 100.698603 
" clip-path="url(#peb7e2d912f)" style="fill: none; stroke: #bfc6c9; stroke-linecap: round"/>
    <path d="M 154.2 108.391921 
L 152.1 112.591921 
L 150 108.391921 
" clip-path="url(#peb7e2d912f)" style="fill: none; stroke: #bfc6c9; stroke-linecap: round"/>
   </g>
   <g id="patch_63">
    <path d="M 162.881789 91.132701 
Q 180.539167 104.543367 198.196545 117.954034 
" clip-path="url(#peb7e2d912f)" style="fill: none; stroke: #bfc6c9; stroke-linecap: round"/>
    <path d="M 164.956348 95.345325 
L 162.881789 91.132701 
L 167.496624 92.000628 
" clip-path="url(#peb7e2d912f)" style="fill: none; stroke: #bfc6c9; stroke-linecap: round"/>
    <path d="M 196.121986 113.74141 
L 198.196545 117.954034 
L 193.58171 117.086106 
" clip-path="url(#peb7e2d912f)" style="fill: none; stroke: #bfc6c9; stroke-linecap: round"/>
   </g>
   <g id="patch_64">
    <path d="M 198.198211 91.132701 
Q 180.540833 104.543367 162.883455 117.954034 
" clip-path="url(#peb7e2d912f)" style="fill: none; stroke: #bfc6c9; stroke-linecap: round"/>
    <path d="M 193.583376 92.000628 
L 198.198211 91.132701 
L 196.123652 95.345325 
" clip-path="url(#peb7e2d912f)" style="fill: none; stroke: #bfc6c9; stroke-linecap: round"/>
    <path d="M 167.49829 117.086106 
L 162.883455 117.954034 
L 164.958014 113.74141 
" clip-path="url(#peb7e2d912f)" style="fill: none; stroke: #bfc6c9; stroke-linecap: round"/>
   </g>
   <g id="patch_65">
    <path d="M 208.98 96.498603 
Q 208.98 104.545262 208.98 112.591921 
" clip-path="url(#peb7e2d912f)" style="fill: none; stroke: #bfc6c9; stroke-linecap: round"/>
    <path d="M 206.88 100.698603 
L 208.98 96.498603 
L 211.08 100.698603 
" clip-path="url(#peb7e2d912f)" style="fill: none; stroke: #bfc6c9; stroke-linecap: round"/>
    <path d="M 211.08 108.391921 
L 208.98 112.591921 
L 206.88 108.391921 
" clip-path="url(#peb7e2d912f)" style="fill: none; stroke: #bfc6c9; stroke-linecap: round"/>
   </g>
   <g id="patch_66">
    <path d="M 148.663258 139.23635 
Q 144.590504 154.751604 140.51775 170.266857 
" clip-path="url(#peb7e2d912f)" style="fill: none; stroke: #bfc6c9; stroke-linecap: round"/>
    <path d="M 145.565701 142.765534 
L 148.663258 139.23635 
L 149.628071 143.831906 
" clip-path="url(#peb7e2d912f)" style="fill: none; stroke: #bfc6c9; stroke-linecap: round"/>
    <path d="M 143.615307 166.737673 
L 140.51775 170.266857 
L 139.552937 165.671301 
" clip-path="url(#peb7e2d912f)" style="fill: none; stroke: #bfc6c9; stroke-linecap: round"/>
   </g>
   <g id="patch_67">
    <path d="M 154.751364 139.400818 
Q 157.834182 154.814909 160.917 170.228999 
" clip-path="url(#peb7e2d912f)" style="fill: none; stroke: #bfc6c9; stroke-linecap: round"/>
    <path d="M 153.515832 143.931101 
L 154.751364 139.400818 
L 157.634271 143.107413 
" clip-path="url(#peb7e2d912f)" style="fill: none; stroke: #bfc6c9; stroke-linecap: round"/>
    <path d="M 162.152532 165.698717 
L 160.917 170.228999 
L 158.034093 166.522404 
" clip-path="url(#peb7e2d912f)" style="fill: none; stroke: #bfc6c9; stroke-linecap: round"/>
   </g>
   <g id="patch_68">
    <path d="M 206.328636 139.400818 
Q 203.245818 154.814909 200.163 170.228999 
" clip-path="url(#peb7e2d912f)" style="fill: none; stroke: #bfc6c9; stroke-linecap: round"/>
    <path d="M 203.445729 143.107413 
L 206.328636 139.400818 
L 207.564168 143.931101 
" clip-path="url(#peb7e2d912f)" style="fill: none; stroke: #bfc6c9; stroke-linecap: round"/>
    <path d="M 203.045907 166.522404 
L 200.163 170.228999 
L 198.927468 165.698717 
" clip-path="url(#peb7e2d912f)" style="fill: none; stroke: #bfc6c9; stroke-linecap: round"/>
   </g>
   <g id="patch_69">
    <path d="M 212.416742 139.23635 
Q 216.489496 154.751604 220.56225 170.266857 
" clip-path="url(#peb7e2d912f)" style="fill: none; stroke: #bfc6c9; stroke-linecap: round"/>
    <path d="M 211.451929 143.831906 
L 212.416742 139.23635 
L 215.514299 142.765534 
" clip-path="url(#peb7e2d912f)" style="fill: none; stroke: #bfc6c9; stroke-linecap: round"/>
    <path d="M 221.527063 165.671301 
L 220.56225 170.266857 
L 217.464693 166.737673 
" clip-path="url(#peb7e2d912f)" style="fill: none; stroke: #bfc6c9; stroke-linecap: round"/>
   </g>
   <g id="patch_70">
    <path d="M 278.1 96.498603 
Q 278.1 104.545262 278.1 112.591921 
" clip-path="url(#peb7e2d912f)" style="fill: none; stroke: #bfc6c9; stroke-linecap: round"/>
    <path d="M 276 100.698603 
L 278.1 96.498603 
L 280.2 100.698603 
" clip-path="url(#peb7e2d912f)" style="fill: none; stroke: #bfc6c9; stroke-linecap: round"/>
    <path d="M 280.2 108.391921 
L 278.1 112.591921 
L 276 108.391921 
" clip-path="url(#peb7e2d912f)" style="fill: none; stroke: #bfc6c9; stroke-linecap: round"/>
   </g>
   <g id="patch_71">
    <path d="M 288.881789 91.132701 
Q 306.539167 104.543367 324.196545 117.954034 
" clip-path="url(#peb7e2d912f)" style="fill: none; stroke: #bfc6c9; stroke-linecap: round"/>
    <path d="M 290.956348 95.345325 
L 288.881789 91.132701 
L 293.496624 92.000628 
" clip-path="url(#peb7e2d912f)" style="fill: none; stroke: #bfc6c9; stroke-linecap: round"/>
    <path d="M 322.121986 113.74141 
L 324.196545 117.954034 
L 319.58171 117.086106 
" clip-path="url(#peb7e2d912f)" style="fill: none; stroke: #bfc6c9; stroke-linecap: round"/>
   </g>
   <g id="patch_72">
    <path d="M 324.198211 91.132701 
Q 306.540833 104.543367 288.883455 117.954034 
" clip-path="url(#peb7e2d912f)" style="fill: none; stroke: #bfc6c9; stroke-linecap: round"/>
    <path d="M 319.583376 92.000628 
L 324.198211 91.132701 
L 322.123652 95.345325 
" clip-path="url(#peb7e2d912f)" style="fill: none; stroke: #bfc6c9; stroke-linecap: round"/>
    <path d="M 293.49829 117.086106 
L 288.883455 117.954034 
L 290.958014 113.74141 
" clip-path="url(#peb7e2d912f)" style="fill: none; stroke: #bfc6c9; stroke-linecap: round"/>
   </g>
   <g id="patch_73">
    <path d="M 334.98 96.498603 
Q 334.98 104.545262 334.98 112.591921 
" clip-path="url(#peb7e2d912f)" style="fill: none; stroke: #bfc6c9; stroke-linecap: round"/>
    <path d="M 332.88 100.698603 
L 334.98 96.498603 
L 337.08 100.698603 
" clip-path="url(#peb7e2d912f)" style="fill: none; stroke: #bfc6c9; stroke-linecap: round"/>
    <path d="M 337.08 108.391921 
L 334.98 112.591921 
L 332.88 108.391921 
" clip-path="url(#peb7e2d912f)" style="fill: none; stroke: #bfc6c9; stroke-linecap: round"/>
   </g>
   <g id="patch_74">
    <path d="M 274.663258 139.23635 
Q 270.590504 154.751604 266.51775 170.266857 
" clip-path="url(#peb7e2d912f)" style="fill: none; stroke: #bfc6c9; stroke-linecap: round"/>
    <path d="M 271.565701 142.765534 
L 274.663258 139.23635 
L 275.628071 143.831906 
" clip-path="url(#peb7e2d912f)" style="fill: none; stroke: #bfc6c9; stroke-linecap: round"/>
    <path d="M 269.615307 166.737673 
L 266.51775 170.266857 
L 265.552937 165.671301 
" clip-path="url(#peb7e2d912f)" style="fill: none; stroke: #bfc6c9; stroke-linecap: round"/>
   </g>
   <g id="patch_75">
    <path d="M 280.751364 139.400818 
Q 283.834182 154.814909 286.917 170.228999 
" clip-path="url(#peb7e2d912f)" style="fill: none; stroke: #bfc6c9; stroke-linecap: round"/>
    <path d="M 279.515832 143.931101 
L 280.751364 139.400818 
L 283.634271 143.107413 
" clip-path="url(#peb7e2d912f)" style="fill: none; stroke: #bfc6c9; stroke-linecap: round"/>
    <path d="M 288.152532 165.698717 
L 286.917 170.228999 
L 284.034093 166.522404 
" clip-path="url(#peb7e2d912f)" style="fill: none; stroke: #bfc6c9; stroke-linecap: round"/>
   </g>
   <g id="patch_76">
    <path d="M 332.328636 139.400818 
Q 329.245818 154.814909 326.163 170.228999 
" clip-path="url(#peb7e2d912f)" style="fill: none; stroke: #bfc6c9; stroke-linecap: round"/>
    <path d="M 329.445729 143.107413 
L 332.328636 139.400818 
L 333.564168 143.931101 
" clip-path="url(#peb7e2d912f)" style="fill: none; stroke: #bfc6c9; stroke-linecap: round"/>
    <path d="M 329.045907 166.522404 
L 326.163 170.228999 
L 324.927468 165.698717 
" clip-path="url(#peb7e2d912f)" style="fill: none; stroke: #bfc6c9; stroke-linecap: round"/>
   </g>
   <g id="patch_77">
    <path d="M 338.416742 139.23635 
Q 342.489496 154.751604 346.56225 170.266857 
" clip-path="url(#peb7e2d912f)" style="fill: none; stroke: #bfc6c9; stroke-linecap: round"/>
    <path d="M 337.451929 143.831906 
L 338.416742 139.23635 
L 341.514299 142.765534 
" clip-path="url(#peb7e2d912f)" style="fill: none; stroke: #bfc6c9; stroke-linecap: round"/>
    <path d="M 347.527063 165.671301 
L 346.56225 170.266857 
L 343.464693 166.737673 
" clip-path="url(#peb7e2d912f)" style="fill: none; stroke: #bfc6c9; stroke-linecap: round"/>
   </g>
   <g id="patch_78">
    <path d="M 404.1 96.498603 
Q 404.1 104.545262 404.1 112.591921 
" clip-path="url(#peb7e2d912f)" style="fill: none; stroke: #bfc6c9; stroke-linecap: round"/>
    <path d="M 402 100.698603 
L 404.1 96.498603 
L 406.2 100.698603 
" clip-path="url(#peb7e2d912f)" style="fill: none; stroke: #bfc6c9; stroke-linecap: round"/>
    <path d="M 406.2 108.391921 
L 404.1 112.591921 
L 402 108.391921 
" clip-path="url(#peb7e2d912f)" style="fill: none; stroke: #bfc6c9; stroke-linecap: round"/>
   </g>
   <g id="patch_79">
    <path d="M 414.881789 91.132701 
Q 432.539167 104.543367 450.196545 117.954034 
" clip-path="url(#peb7e2d912f)" style="fill: none; stroke: #bfc6c9; stroke-linecap: round"/>
    <path d="M 416.956348 95.345325 
L 414.881789 91.132701 
L 419.496624 92.000628 
" clip-path="url(#peb7e2d912f)" style="fill: none; stroke: #bfc6c9; stroke-linecap: round"/>
    <path d="M 448.121986 113.74141 
L 450.196545 117.954034 
L 445.58171 117.086106 
" clip-path="url(#peb7e2d912f)" style="fill: none; stroke: #bfc6c9; stroke-linecap: round"/>
   </g>
   <g id="patch_80">
    <path d="M 450.198211 91.132701 
Q 432.540833 104.543367 414.883455 117.954034 
" clip-path="url(#peb7e2d912f)" style="fill: none; stroke: #bfc6c9; stroke-linecap: round"/>
    <path d="M 445.583376 92.000628 
L 450.198211 91.132701 
L 448.123652 95.345325 
" clip-path="url(#peb7e2d912f)" style="fill: none; stroke: #bfc6c9; stroke-linecap: round"/>
    <path d="M 419.49829 117.086106 
L 414.883455 117.954034 
L 416.958014 113.74141 
" clip-path="url(#peb7e2d912f)" style="fill: none; stroke: #bfc6c9; stroke-linecap: round"/>
   </g>
   <g id="patch_81">
    <path d="M 460.98 96.498603 
Q 460.98 104.545262 460.98 112.591921 
" clip-path="url(#peb7e2d912f)" style="fill: none; stroke: #bfc6c9; stroke-linecap: round"/>
    <path d="M 458.88 100.698603 
L 460.98 96.498603 
L 463.08 100.698603 
" clip-path="url(#peb7e2d912f)" style="fill: none; stroke: #bfc6c9; stroke-linecap: round"/>
    <path d="M 463.08 108.391921 
L 460.98 112.591921 
L 458.88 108.391921 
" clip-path="url(#peb7e2d912f)" style="fill: none; stroke: #bfc6c9; stroke-linecap: round"/>
   </g>
   <g id="patch_82">
    <path d="M 400.663258 139.23635 
Q 396.590504 154.751604 392.51775 170.266857 
" clip-path="url(#peb7e2d912f)" style="fill: none; stroke: #bfc6c9; stroke-linecap: round"/>
    <path d="M 397.565701 142.765534 
L 400.663258 139.23635 
L 401.628071 143.831906 
" clip-path="url(#peb7e2d912f)" style="fill: none; stroke: #bfc6c9; stroke-linecap: round"/>
    <path d="M 395.615307 166.737673 
L 392.51775 170.266857 
L 391.552937 165.671301 
" clip-path="url(#peb7e2d912f)" style="fill: none; stroke: #bfc6c9; stroke-linecap: round"/>
   </g>
   <g id="patch_83">
    <path d="M 406.751364 139.400818 
Q 409.834182 154.814909 412.917 170.228999 
" clip-path="url(#peb7e2d912f)" style="fill: none; stroke: #bfc6c9; stroke-linecap: round"/>
    <path d="M 405.515832 143.931101 
L 406.751364 139.400818 
L 409.634271 143.107413 
" clip-path="url(#peb7e2d912f)" style="fill: none; stroke: #bfc6c9; stroke-linecap: round"/>
    <path d="M 414.152532 165.698717 
L 412.917 170.228999 
L 410.034093 166.522404 
" clip-path="url(#peb7e2d912f)" style="fill: none; stroke: #bfc6c9; stroke-linecap: round"/>
   </g>
   <g id="patch_84">
    <path d="M 458.328636 139.400818 
Q 455.245818 154.814909 452.163 170.228999 
" clip-path="url(#peb7e2d912f)" style="fill: none; stroke: #bfc6c9; stroke-linecap: round"/>
    <path d="M 455.445729 143.107413 
L 458.328636 139.400818 
L 459.564168 143.931101 
" clip-path="url(#peb7e2d912f)" style="fill: none; stroke: #bfc6c9; stroke-linecap: round"/>
    <path d="M 455.045907 166.522404 
L 452.163 170.228999 
L 450.927468 165.698717 
" clip-path="url(#peb7e2d912f)" style="fill: none; stroke: #bfc6c9; stroke-linecap: round"/>
   </g>
   <g id="patch_85">
    <path d="M 464.416742 139.23635 
Q 468.489496 154.751604 472.56225 170.266857 
" clip-path="url(#peb7e2d912f)" style="fill: none; stroke: #bfc6c9; stroke-linecap: round"/>
    <path d="M 463.451929 143.831906 
L 464.416742 139.23635 
L 467.514299 142.765534 
" clip-path="url(#peb7e2d912f)" style="fill: none; stroke: #bfc6c9; stroke-linecap: round"/>
    <path d="M 473.527063 165.671301 
L 472.56225 170.266857 
L 469.464693 166.737673 
" clip-path="url(#peb7e2d912f)" style="fill: none; stroke: #bfc6c9; stroke-linecap: round"/>
   </g>
  </g>
 </g>
 <defs>
  <clipPath id="peb7e2d912f">
   <rect x="0" y="0" width="487.08" height="194.724"/>
  </clipPath>
 </defs>
</svg>
