<?xml version="1.0" encoding="utf-8" standalone="no"?>
<!DOCTYPE svg PUBLIC "-//W3C//DTD SVG 1.1//EN"
  "http://www.w3.org/Graphics/SVG/1.1/DTD/svg11.dtd">
<svg xmlns:xlink="http://www.w3.org/1999/xlink" width="350.964pt" height="350.964pt" viewBox="0 0 350.964 350.964" xmlns="http://www.w3.org/2000/svg" version="1.1">
 <metadata>
  <rdf:RDF xmlns:dc="http://purl.org/dc/elements/1.1/" xmlns:cc="http://creativecommons.org/ns#" xmlns:rdf="http://www.w3.org/1999/02/22-rdf-syntax-ns#">
   <cc:Work>
    <dc:type rdf:resource="http://purl.org/dc/dcmitype/StillImage"/>
    <dc:date>2024-08-26T18:05:15.611454</dc:date>
    <dc:format>image/svg+xml</dc:format>
    <dc:creator>
     <cc:Agent>
      <dc:title>Matplotlib v3.8.3, https://matplotlib.org/</dc:title>
     </cc:Agent>
    </dc:creator>
   </cc:Work>
  </rdf:RDF>
 </metadata>
 <defs>
  <style type="text/css">*{stroke-linejoin: round; stroke-linecap: butt}</style>
 </defs>
 <g id="figure_1">
  <g id="patch_1">
   <path d="M 0 350.964 
L 350.964 350.964 
L 350.964 0 
L 0 0 
z
" style="fill: #ffffff"/>
  </g>
  <g id="axes_1">
   <g id="patch_2">
    <path d="M 52.02 61.956 
C 54.655058 61.956 57.182546 60.90908 59.045813 59.045813 
C 60.90908 57.182546 61.956 54.655058 61.956 52.02 
C 61.956 49.384942 60.90908 46.857454 59.045813 44.994187 
C 57.182546 43.13092 54.655058 42.084 52.02 42.084 
C 49.384942 42.084 46.857454 43.13092 44.994187 44.994187 
C 43.13092 46.857454 42.084 49.384942 42.084 52.02 
C 42.084 54.655058 43.13092 57.182546 44.994187 59.045813 
C 46.857454 60.90908 49.384942 61.956 52.02 61.956 
z
" style="fill: #8caed1; stroke: #8caed1; stroke-linejoin: miter"/>
   </g>
   <g id="patch_3">
    <path d="M 2.52 19.44 
L 19.44 19.44 
L 19.44 2.52 
L 2.52 2.52 
z
" style="fill: #2967a9; stroke: #2967a9; stroke-width: 4"/>
   </g>
   <g id="patch_4">
    <path d="M 124.02 61.956 
C 126.655058 61.956 129.182546 60.90908 131.045813 59.045813 
C 132.90908 57.182546 133.956 54.655058 133.956 52.02 
C 133.956 49.384942 132.90908 46.857454 131.045813 44.994187 
C 129.182546 43.13092 126.655058 42.084 124.02 42.084 
C 121.384942 42.084 118.857454 43.13092 116.994187 44.994187 
C 115.13092 46.857454 114.084 49.384942 114.084 52.02 
C 114.084 54.655058 115.13092 57.182546 116.994187 59.045813 
C 118.857454 60.90908 121.384942 61.956 124.02 61.956 
z
" style="fill: #8caed1; stroke: #8caed1; stroke-linejoin: miter"/>
   </g>
   <g id="patch_5">
    <path d="M 74.52 19.44 
L 91.44 19.44 
L 91.44 2.52 
L 74.52 2.52 
z
" style="fill: #2967a9; stroke: #2967a9; stroke-width: 4"/>
   </g>
   <g id="patch_6">
    <path d="M 196.02 61.956 
C 198.655058 61.956 201.182546 60.90908 203.045813 59.045813 
C 204.90908 57.182546 205.956 54.655058 205.956 52.02 
C 205.956 49.384942 204.90908 46.857454 203.045813 44.994187 
C 201.182546 43.13092 198.655058 42.084 196.02 42.084 
C 193.384942 42.084 190.857454 43.13092 188.994187 44.994187 
C 187.13092 46.857454 186.084 49.384942 186.084 52.02 
C 186.084 54.655058 187.13092 57.182546 188.994187 59.045813 
C 190.857454 60.90908 193.384942 61.956 196.02 61.956 
z
" style="fill: #8caed1; stroke: #8caed1; stroke-linejoin: miter"/>
   </g>
   <g id="patch_7">
    <path d="M 146.52 19.44 
L 163.44 19.44 
L 163.44 2.52 
L 146.52 2.52 
z
" style="fill: #2967a9; stroke: #2967a9; stroke-width: 4"/>
   </g>
   <g id="patch_8">
    <path d="M 268.02 61.956 
C 270.655058 61.956 273.182546 60.90908 275.045813 59.045813 
C 276.90908 57.182546 277.956 54.655058 277.956 52.02 
C 277.956 49.384942 276.90908 46.857454 275.045813 44.994187 
C 273.182546 43.13092 270.655058 42.084 268.02 42.084 
C 265.384942 42.084 262.857454 43.13092 260.994187 44.994187 
C 259.13092 46.857454 258.084 49.384942 258.084 52.02 
C 258.084 54.655058 259.13092 57.182546 260.994187 59.045813 
C 262.857454 60.90908 265.384942 61.956 268.02 61.956 
z
" style="fill: #8caed1; stroke: #8caed1; stroke-linejoin: miter"/>
   </g>
   <g id="patch_9">
    <path d="M 218.52 19.44 
L 235.44 19.44 
L 235.44 2.52 
L 218.52 2.52 
z
" style="fill: #2967a9; stroke: #2967a9; stroke-width: 4"/>
   </g>
   <g id="patch_10">
    <path d="M 340.02 61.956 
C 342.655058 61.956 345.182546 60.90908 347.045813 59.045813 
C 348.90908 57.182546 349.956 54.655058 349.956 52.02 
C 349.956 49.384942 348.90908 46.857454 347.045813 44.994187 
C 345.182546 43.13092 342.655058 42.084 340.02 42.084 
C 337.384942 42.084 334.857454 43.13092 332.994187 44.994187 
C 331.13092 46.857454 330.084 49.384942 330.084 52.02 
C 330.084 54.655058 331.13092 57.182546 332.994187 59.045813 
C 334.857454 60.90908 337.384942 61.956 340.02 61.956 
z
" style="fill: #8caed1; stroke: #8caed1; stroke-linejoin: miter"/>
   </g>
   <g id="patch_11">
    <path d="M 290.52 19.44 
L 307.44 19.44 
L 307.44 2.52 
L 290.52 2.52 
z
" style="fill: #2967a9; stroke: #2967a9; stroke-width: 4"/>
   </g>
   <g id="patch_12">
    <path d="M 52.02 133.956 
C 54.655058 133.956 57.182546 132.90908 59.045813 131.045813 
C 60.90908 129.182546 61.956 126.655058 61.956 124.02 
C 61.956 121.384942 60.90908 118.857454 59.045813 116.994187 
C 57.182546 115.13092 54.655058 114.084 52.02 114.084 
C 49.384942 114.084 46.857454 115.13092 44.994187 116.994187 
C 43.13092 118.857454 42.084 121.384942 42.084 124.02 
C 42.084 126.655058 43.13092 129.182546 44.994187 131.045813 
C 46.857454 132.90908 49.384942 133.956 52.02 133.956 
z
" style="fill: #8caed1; stroke: #8caed1; stroke-linejoin: miter"/>
   </g>
   <g id="patch_13">
    <path d="M 2.52 91.44 
L 19.44 91.44 
L 19.44 74.52 
L 2.52 74.52 
z
" style="fill: #2967a9; stroke: #2967a9; stroke-width: 4"/>
   </g>
   <g id="patch_14">
    <path d="M 124.02 133.956 
C 126.655058 133.956 129.182546 132.90908 131.045813 131.045813 
C 132.90908 129.182546 133.956 126.655058 133.956 124.02 
C 133.956 121.384942 132.90908 118.857454 131.045813 116.994187 
C 129.182546 115.13092 126.655058 114.084 124.02 114.084 
C 121.384942 114.084 118.857454 115.13092 116.994187 116.994187 
C 115.13092 118.857454 114.084 121.384942 114.084 124.02 
C 114.084 126.655058 115.13092 129.182546 116.994187 131.045813 
C 118.857454 132.90908 121.384942 133.956 124.02 133.956 
z
" style="fill: #8caed1; stroke: #8caed1; stroke-linejoin: miter"/>
   </g>
   <g id="patch_15">
    <path d="M 74.52 91.44 
L 91.44 91.44 
L 91.44 74.52 
L 74.52 74.52 
z
" style="fill: #2967a9; stroke: #2967a9; stroke-width: 4"/>
   </g>
   <g id="patch_16">
    <path d="M 196.02 133.956 
C 198.655058 133.956 201.182546 132.90908 203.045813 131.045813 
C 204.90908 129.182546 205.956 126.655058 205.956 124.02 
C 205.956 121.384942 204.90908 118.857454 203.045813 116.994187 
C 201.182546 115.13092 198.655058 114.084 196.02 114.084 
C 193.384942 114.084 190.857454 115.13092 188.994187 116.994187 
C 187.13092 118.857454 186.084 121.384942 186.084 124.02 
C 186.084 126.655058 187.13092 129.182546 188.994187 131.045813 
C 190.857454 132.90908 193.384942 133.956 196.02 133.956 
z
" style="fill: #8caed1; stroke: #8caed1; stroke-linejoin: miter"/>
   </g>
   <g id="patch_17">
    <path d="M 146.52 91.44 
L 163.44 91.44 
L 163.44 74.52 
L 146.52 74.52 
z
" style="fill: #2967a9; stroke: #2967a9; stroke-width: 4"/>
   </g>
   <g id="patch_18">
    <path d="M 268.02 133.956 
C 270.655058 133.956 273.182546 132.90908 275.045813 131.045813 
C 276.90908 129.182546 277.956 126.655058 277.956 124.02 
C 277.956 121.384942 276.90908 118.857454 275.045813 116.994187 
C 273.182546 115.13092 270.655058 114.084 268.02 114.084 
C 265.384942 114.084 262.857454 115.13092 260.994187 116.994187 
C 259.13092 118.857454 258.084 121.384942 258.084 124.02 
C 258.084 126.655058 259.13092 129.182546 260.994187 131.045813 
C 262.857454 132.90908 265.384942 133.956 268.02 133.956 
z
" style="fill: #8caed1; stroke: #8caed1; stroke-linejoin: miter"/>
   </g>
   <g id="patch_19">
    <path d="M 218.52 91.44 
L 235.44 91.44 
L 235.44 74.52 
L 218.52 74.52 
z
" style="fill: #2967a9; stroke: #2967a9; stroke-width: 4"/>
   </g>
   <g id="patch_20">
    <path d="M 340.02 133.956 
C 342.655058 133.956 345.182546 132.90908 347.045813 131.045813 
C 348.90908 129.182546 349.956 126.655058 349.956 124.02 
C 349.956 121.384942 348.90908 118.857454 347.045813 116.994187 
C 345.182546 115.13092 342.655058 114.084 340.02 114.084 
C 337.384942 114.084 334.857454 115.13092 332.994187 116.994187 
C 331.13092 118.857454 330.084 121.384942 330.084 124.02 
C 330.084 126.655058 331.13092 129.182546 332.994187 131.045813 
C 334.857454 132.90908 337.384942 133.956 340.02 133.956 
z
" style="fill: #8caed1; stroke: #8caed1; stroke-linejoin: miter"/>
   </g>
   <g id="patch_21">
    <path d="M 290.52 91.44 
L 307.44 91.44 
L 307.44 74.52 
L 290.52 74.52 
z
" style="fill: #2967a9; stroke: #2967a9; stroke-width: 4"/>
   </g>
   <g id="patch_22">
    <path d="M 52.02 205.956 
C 54.655058 205.956 57.182546 204.90908 59.045813 203.045813 
C 60.90908 201.182546 61.956 198.655058 61.956 196.02 
C 61.956 193.384942 60.90908 190.857454 59.045813 188.994187 
C 57.182546 187.13092 54.655058 186.084 52.02 186.084 
C 49.384942 186.084 46.857454 187.13092 44.994187 188.994187 
C 43.13092 190.857454 42.084 193.384942 42.084 196.02 
C 42.084 198.655058 43.13092 201.182546 44.994187 203.045813 
C 46.857454 204.90908 49.384942 205.956 52.02 205.956 
z
" style="fill: #8caed1; stroke: #8caed1; stroke-linejoin: miter"/>
   </g>
   <g id="patch_23">
    <path d="M 2.52 163.44 
L 19.44 163.44 
L 19.44 146.52 
L 2.52 146.52 
z
" style="fill: #2967a9; stroke: #2967a9; stroke-width: 4"/>
   </g>
   <g id="patch_24">
    <path d="M 124.02 205.956 
C 126.655058 205.956 129.182546 204.90908 131.045813 203.045813 
C 132.90908 201.182546 133.956 198.655058 133.956 196.02 
C 133.956 193.384942 132.90908 190.857454 131.045813 188.994187 
C 129.182546 187.13092 126.655058 186.084 124.02 186.084 
C 121.384942 186.084 118.857454 187.13092 116.994187 188.994187 
C 115.13092 190.857454 114.084 193.384942 114.084 196.02 
C 114.084 198.655058 115.13092 201.182546 116.994187 203.045813 
C 118.857454 204.90908 121.384942 205.956 124.02 205.956 
z
" style="fill: #8caed1; stroke: #8caed1; stroke-linejoin: miter"/>
   </g>
   <g id="patch_25">
    <path d="M 74.52 163.44 
L 91.44 163.44 
L 91.44 146.52 
L 74.52 146.52 
z
" style="fill: #2967a9; stroke: #2967a9; stroke-width: 4"/>
   </g>
   <g id="patch_26">
    <path d="M 196.02 205.956 
C 198.655058 205.956 201.182546 204.90908 203.045813 203.045813 
C 204.90908 201.182546 205.956 198.655058 205.956 196.02 
C 205.956 193.384942 204.90908 190.857454 203.045813 188.994187 
C 201.182546 187.13092 198.655058 186.084 196.02 186.084 
C 193.384942 186.084 190.857454 187.13092 188.994187 188.994187 
C 187.13092 190.857454 186.084 193.384942 186.084 196.02 
C 186.084 198.655058 187.13092 201.182546 188.994187 203.045813 
C 190.857454 204.90908 193.384942 205.956 196.02 205.956 
z
" style="fill: #8caed1; stroke: #8caed1; stroke-linejoin: miter"/>
   </g>
   <g id="patch_27">
    <path d="M 146.52 163.44 
L 163.44 163.44 
L 163.44 146.52 
L 146.52 146.52 
z
" style="fill: #2967a9; stroke: #2967a9; stroke-width: 4"/>
   </g>
   <g id="patch_28">
    <path d="M 268.02 205.956 
C 270.655058 205.956 273.182546 204.90908 275.045813 203.045813 
C 276.90908 201.182546 277.956 198.655058 277.956 196.02 
C 277.956 193.384942 276.90908 190.857454 275.045813 188.994187 
C 273.182546 187.13092 270.655058 186.084 268.02 186.084 
C 265.384942 186.084 262.857454 187.13092 260.994187 188.994187 
C 259.13092 190.857454 258.084 193.384942 258.084 196.02 
C 258.084 198.655058 259.13092 201.182546 260.994187 203.045813 
C 262.857454 204.90908 265.384942 205.956 268.02 205.956 
z
" style="fill: #8caed1; stroke: #8caed1; stroke-linejoin: miter"/>
   </g>
   <g id="patch_29">
    <path d="M 218.52 163.44 
L 235.44 163.44 
L 235.44 146.52 
L 218.52 146.52 
z
" style="fill: #2967a9; stroke: #2967a9; stroke-width: 4"/>
   </g>
   <g id="patch_30">
    <path d="M 340.02 205.956 
C 342.655058 205.956 345.182546 204.90908 347.045813 203.045813 
C 348.90908 201.182546 349.956 198.655058 349.956 196.02 
C 349.956 193.384942 348.90908 190.857454 347.045813 188.994187 
C 345.182546 187.13092 342.655058 186.084 340.02 186.084 
C 337.384942 186.084 334.857454 187.13092 332.994187 188.994187 
C 331.13092 190.857454 330.084 193.384942 330.084 196.02 
C 330.084 198.655058 331.13092 201.182546 332.994187 203.045813 
C 334.857454 204.90908 337.384942 205.956 340.02 205.956 
z
" style="fill: #8caed1; stroke: #8caed1; stroke-linejoin: miter"/>
   </g>
   <g id="patch_31">
    <path d="M 290.52 163.44 
L 307.44 163.44 
L 307.44 146.52 
L 290.52 146.52 
z
" style="fill: #2967a9; stroke: #2967a9; stroke-width: 4"/>
   </g>
   <g id="patch_32">
    <path d="M 52.02 277.956 
C 54.655058 277.956 57.182546 276.90908 59.045813 275.045813 
C 60.90908 273.182546 61.956 270.655058 61.956 268.02 
C 61.956 265.384942 60.90908 262.857454 59.045813 260.994187 
C 57.182546 259.13092 54.655058 258.084 52.02 258.084 
C 49.384942 258.084 46.857454 259.13092 44.994187 260.994187 
C 43.13092 262.857454 42.084 265.384942 42.084 268.02 
C 42.084 270.655058 43.13092 273.182546 44.994187 275.045813 
C 46.857454 276.90908 49.384942 277.956 52.02 277.956 
z
" style="fill: #8caed1; stroke: #8caed1; stroke-linejoin: miter"/>
   </g>
   <g id="patch_33">
    <path d="M 2.52 235.44 
L 19.44 235.44 
L 19.44 218.52 
L 2.52 218.52 
z
" style="fill: #2967a9; stroke: #2967a9; stroke-width: 4"/>
   </g>
   <g id="patch_34">
    <path d="M 124.02 277.956 
C 126.655058 277.956 129.182546 276.90908 131.045813 275.045813 
C 132.90908 273.182546 133.956 270.655058 133.956 268.02 
C 133.956 265.384942 132.90908 262.857454 131.045813 260.994187 
C 129.182546 259.13092 126.655058 258.084 124.02 258.084 
C 121.384942 258.084 118.857454 259.13092 116.994187 260.994187 
C 115.13092 262.857454 114.084 265.384942 114.084 268.02 
C 114.084 270.655058 115.13092 273.182546 116.994187 275.045813 
C 118.857454 276.90908 121.384942 277.956 124.02 277.956 
z
" style="fill: #8caed1; stroke: #8caed1; stroke-linejoin: miter"/>
   </g>
   <g id="patch_35">
    <path d="M 74.52 235.44 
L 91.44 235.44 
L 91.44 218.52 
L 74.52 218.52 
z
" style="fill: #2967a9; stroke: #2967a9; stroke-width: 4"/>
   </g>
   <g id="patch_36">
    <path d="M 196.02 277.956 
C 198.655058 277.956 201.182546 276.90908 203.045813 275.045813 
C 204.90908 273.182546 205.956 270.655058 205.956 268.02 
C 205.956 265.384942 204.90908 262.857454 203.045813 260.994187 
C 201.182546 259.13092 198.655058 258.084 196.02 258.084 
C 193.384942 258.084 190.857454 259.13092 188.994187 260.994187 
C 187.13092 262.857454 186.084 265.384942 186.084 268.02 
C 186.084 270.655058 187.13092 273.182546 188.994187 275.045813 
C 190.857454 276.90908 193.384942 277.956 196.02 277.956 
z
" style="fill: #8caed1; stroke: #8caed1; stroke-linejoin: miter"/>
   </g>
   <g id="patch_37">
    <path d="M 146.52 235.44 
L 163.44 235.44 
L 163.44 218.52 
L 146.52 218.52 
z
" style="fill: #2967a9; stroke: #2967a9; stroke-width: 4"/>
   </g>
   <g id="patch_38">
    <path d="M 268.02 277.956 
C 270.655058 277.956 273.182546 276.90908 275.045813 275.045813 
C 276.90908 273.182546 277.956 270.655058 277.956 268.02 
C 277.956 265.384942 276.90908 262.857454 275.045813 260.994187 
C 273.182546 259.13092 270.655058 258.084 268.02 258.084 
C 265.384942 258.084 262.857454 259.13092 260.994187 260.994187 
C 259.13092 262.857454 258.084 265.384942 258.084 268.02 
C 258.084 270.655058 259.13092 273.182546 260.994187 275.045813 
C 262.857454 276.90908 265.384942 277.956 268.02 277.956 
z
" style="fill: #8caed1; stroke: #8caed1; stroke-linejoin: miter"/>
   </g>
   <g id="patch_39">
    <path d="M 218.52 235.44 
L 235.44 235.44 
L 235.44 218.52 
L 218.52 218.52 
z
" style="fill: #2967a9; stroke: #2967a9; stroke-width: 4"/>
   </g>
   <g id="patch_40">
    <path d="M 340.02 277.956 
C 342.655058 277.956 345.182546 276.90908 347.045813 275.045813 
C 348.90908 273.182546 349.956 270.655058 349.956 268.02 
C 349.956 265.384942 348.90908 262.857454 347.045813 260.994187 
C 345.182546 259.13092 342.655058 258.084 340.02 258.084 
C 337.384942 258.084 334.857454 259.13092 332.994187 260.994187 
C 331.13092 262.857454 330.084 265.384942 330.084 268.02 
C 330.084 270.655058 331.13092 273.182546 332.994187 275.045813 
C 334.857454 276.90908 337.384942 277.956 340.02 277.956 
z
" style="fill: #8caed1; stroke: #8caed1; stroke-linejoin: miter"/>
   </g>
   <g id="patch_41">
    <path d="M 290.52 235.44 
L 307.44 235.44 
L 307.44 218.52 
L 290.52 218.52 
z
" style="fill: #2967a9; stroke: #2967a9; stroke-width: 4"/>
   </g>
   <g id="patch_42">
    <path d="M 52.02 349.956 
C 54.655058 349.956 57.182546 348.90908 59.045813 347.045813 
C 60.90908 345.182546 61.956 342.655058 61.956 340.02 
C 61.956 337.384942 60.90908 334.857454 59.045813 332.994187 
C 57.182546 331.13092 54.655058 330.084 52.02 330.084 
C 49.384942 330.084 46.857454 331.13092 44.994187 332.994187 
C 43.13092 334.857454 42.084 337.384942 42.084 340.02 
C 42.084 342.655058 43.13092 345.182546 44.994187 347.045813 
C 46.857454 348.90908 49.384942 349.956 52.02 349.956 
z
" style="fill: #8caed1; stroke: #8caed1; stroke-linejoin: miter"/>
   </g>
   <g id="patch_43">
    <path d="M 2.52 307.44 
L 19.44 307.44 
L 19.44 290.52 
L 2.52 290.52 
z
" style="fill: #2967a9; stroke: #2967a9; stroke-width: 4"/>
   </g>
   <g id="patch_44">
    <path d="M 124.02 349.956 
C 126.655058 349.956 129.182546 348.90908 131.045813 347.045813 
C 132.90908 345.182546 133.956 342.655058 133.956 340.02 
C 133.956 337.384942 132.90908 334.857454 131.045813 332.994187 
C 129.182546 331.13092 126.655058 330.084 124.02 330.084 
C 121.384942 330.084 118.857454 331.13092 116.994187 332.994187 
C 115.13092 334.857454 114.084 337.384942 114.084 340.02 
C 114.084 342.655058 115.13092 345.182546 116.994187 347.045813 
C 118.857454 348.90908 121.384942 349.956 124.02 349.956 
z
" style="fill: #8caed1; stroke: #8caed1; stroke-linejoin: miter"/>
   </g>
   <g id="patch_45">
    <path d="M 74.52 307.44 
L 91.44 307.44 
L 91.44 290.52 
L 74.52 290.52 
z
" style="fill: #2967a9; stroke: #2967a9; stroke-width: 4"/>
   </g>
   <g id="patch_46">
    <path d="M 196.02 349.956 
C 198.655058 349.956 201.182546 348.90908 203.045813 347.045813 
C 204.90908 345.182546 205.956 342.655058 205.956 340.02 
C 205.956 337.384942 204.90908 334.857454 203.045813 332.994187 
C 201.182546 331.13092 198.655058 330.084 196.02 330.084 
C 193.384942 330.084 190.857454 331.13092 188.994187 332.994187 
C 187.13092 334.857454 186.084 337.384942 186.084 340.02 
C 186.084 342.655058 187.13092 345.182546 188.994187 347.045813 
C 190.857454 348.90908 193.384942 349.956 196.02 349.956 
z
" style="fill: #8caed1; stroke: #8caed1; stroke-linejoin: miter"/>
   </g>
   <g id="patch_47">
    <path d="M 146.52 307.44 
L 163.44 307.44 
L 163.44 290.52 
L 146.52 290.52 
z
" style="fill: #2967a9; stroke: #2967a9; stroke-width: 4"/>
   </g>
   <g id="patch_48">
    <path d="M 268.02 349.956 
C 270.655058 349.956 273.182546 348.90908 275.045813 347.045813 
C 276.90908 345.182546 277.956 342.655058 277.956 340.02 
C 277.956 337.384942 276.90908 334.857454 275.045813 332.994187 
C 273.182546 331.13092 270.655058 330.084 268.02 330.084 
C 265.384942 330.084 262.857454 331.13092 260.994187 332.994187 
C 259.13092 334.857454 258.084 337.384942 258.084 340.02 
C 258.084 342.655058 259.13092 345.182546 260.994187 347.045813 
C 262.857454 348.90908 265.384942 349.956 268.02 349.956 
z
" style="fill: #8caed1; stroke: #8caed1; stroke-linejoin: miter"/>
   </g>
   <g id="patch_49">
    <path d="M 218.52 307.44 
L 235.44 307.44 
L 235.44 290.52 
L 218.52 290.52 
z
" style="fill: #2967a9; stroke: #2967a9; stroke-width: 4"/>
   </g>
   <g id="patch_50">
    <path d="M 340.02 349.956 
C 342.655058 349.956 345.182546 348.90908 347.045813 347.045813 
C 348.90908 345.182546 349.956 342.655058 349.956 340.02 
C 349.956 337.384942 348.90908 334.857454 347.045813 332.994187 
C 345.182546 331.13092 342.655058 330.084 340.02 330.084 
C 337.384942 330.084 334.857454 331.13092 332.994187 332.994187 
C 331.13092 334.857454 330.084 337.384942 330.084 340.02 
C 330.084 342.655058 331.13092 345.182546 332.994187 347.045813 
C 334.857454 348.90908 337.384942 349.956 340.02 349.956 
z
" style="fill: #8caed1; stroke: #8caed1; stroke-linejoin: miter"/>
   </g>
   <g id="patch_51">
    <path d="M 290.52 307.44 
L 307.44 307.44 
L 307.44 290.52 
L 290.52 290.52 
z
" style="fill: #2967a9; stroke: #2967a9; stroke-width: 4"/>
   </g>
   <g id="patch_52">
    <path d="M 41.987475 44.721767 
Q 29.759909 35.027138 20.583952 23.854483 
" clip-path="url(#p491339a7f2)" style="fill: none; stroke: #bfc6c9; stroke-linecap: round"/>
    <path d="M 21.626745 28.432974 
L 20.583952 23.854483 
L 24.872421 25.767343 
" clip-path="url(#p491339a7f2)" style="fill: none; stroke: #bfc6c9; stroke-linecap: round"/>
   </g>
   <g id="patch_53">
    <path d="M 64.263807 49.987658 
Q 88.022089 46.852067 110.671952 49.841895 
" clip-path="url(#p491339a7f2)" style="fill: none; stroke: #bfc6c9; stroke-linecap: round"/>
    <path d="M 106.782893 47.210315 
L 110.671952 49.841895 
L 106.233252 51.374195 
" clip-path="url(#p491339a7f2)" style="fill: none; stroke: #bfc6c9; stroke-linecap: round"/>
   </g>
   <g id="patch_54">
    <path d="M 54.052342 64.263807 
Q 57.187933 88.022089 54.198105 110.671952 
" clip-path="url(#p491339a7f2)" style="fill: none; stroke: #bfc6c9; stroke-linecap: round"/>
    <path d="M 56.829685 106.782893 
L 54.198105 110.671952 
L 52.665805 106.233252 
" clip-path="url(#p491339a7f2)" style="fill: none; stroke: #bfc6c9; stroke-linecap: round"/>
   </g>
   <g id="patch_55">
    <path d="M 22.998379 19.880845 
Q 35.02866 29.762558 44.024471 41.108047 
" clip-path="url(#p491339a7f2)" style="fill: none; stroke: #bfc6c9; stroke-linecap: round"/>
    <path d="M 43.060539 36.512306 
L 44.024471 41.108047 
L 39.769519 39.121748 
" clip-path="url(#p491339a7f2)" style="fill: none; stroke: #bfc6c9; stroke-linecap: round"/>
   </g>
   <g id="patch_56">
    <path d="M 113.987475 44.721767 
Q 101.759909 35.027138 92.583952 23.854483 
" clip-path="url(#p491339a7f2)" style="fill: none; stroke: #bfc6c9; stroke-linecap: round"/>
    <path d="M 93.626745 28.432974 
L 92.583952 23.854483 
L 96.872421 25.767343 
" clip-path="url(#p491339a7f2)" style="fill: none; stroke: #bfc6c9; stroke-linecap: round"/>
   </g>
   <g id="patch_57">
    <path d="M 136.263807 49.987658 
Q 160.022089 46.852067 182.671952 49.841895 
" clip-path="url(#p491339a7f2)" style="fill: none; stroke: #bfc6c9; stroke-linecap: round"/>
    <path d="M 178.782893 47.210315 
L 182.671952 49.841895 
L 178.233252 51.374195 
" clip-path="url(#p491339a7f2)" style="fill: none; stroke: #bfc6c9; stroke-linecap: round"/>
   </g>
   <g id="patch_58">
    <path d="M 111.776193 54.052342 
Q 88.017911 57.187933 65.368048 54.198105 
" clip-path="url(#p491339a7f2)" style="fill: none; stroke: #bfc6c9; stroke-linecap: round"/>
    <path d="M 69.257107 56.829685 
L 65.368048 54.198105 
L 69.806748 52.665805 
" clip-path="url(#p491339a7f2)" style="fill: none; stroke: #bfc6c9; stroke-linecap: round"/>
   </g>
   <g id="patch_59">
    <path d="M 94.998379 19.880845 
Q 107.02866 29.762558 116.024471 41.108047 
" clip-path="url(#p491339a7f2)" style="fill: none; stroke: #bfc6c9; stroke-linecap: round"/>
    <path d="M 115.060539 36.512306 
L 116.024471 41.108047 
L 111.769519 39.121748 
" clip-path="url(#p491339a7f2)" style="fill: none; stroke: #bfc6c9; stroke-linecap: round"/>
   </g>
   <g id="patch_60">
    <path d="M 185.987475 44.721767 
Q 173.759909 35.027138 164.583952 23.854483 
" clip-path="url(#p491339a7f2)" style="fill: none; stroke: #bfc6c9; stroke-linecap: round"/>
    <path d="M 165.626745 28.432974 
L 164.583952 23.854483 
L 168.872421 25.767343 
" clip-path="url(#p491339a7f2)" style="fill: none; stroke: #bfc6c9; stroke-linecap: round"/>
   </g>
   <g id="patch_61">
    <path d="M 208.263807 49.987658 
Q 232.022089 46.852067 254.671952 49.841895 
" clip-path="url(#p491339a7f2)" style="fill: none; stroke: #bfc6c9; stroke-linecap: round"/>
    <path d="M 250.782893 47.210315 
L 254.671952 49.841895 
L 250.233252 51.374195 
" clip-path="url(#p491339a7f2)" style="fill: none; stroke: #bfc6c9; stroke-linecap: round"/>
   </g>
   <g id="patch_62">
    <path d="M 183.776193 54.052342 
Q 160.017911 57.187933 137.368048 54.198105 
" clip-path="url(#p491339a7f2)" style="fill: none; stroke: #bfc6c9; stroke-linecap: round"/>
    <path d="M 141.257107 56.829685 
L 137.368048 54.198105 
L 141.806748 52.665805 
" clip-path="url(#p491339a7f2)" style="fill: none; stroke: #bfc6c9; stroke-linecap: round"/>
   </g>
   <g id="patch_63">
    <path d="M 166.998379 19.880845 
Q 179.02866 29.762558 188.024471 41.108047 
" clip-path="url(#p491339a7f2)" style="fill: none; stroke: #bfc6c9; stroke-linecap: round"/>
    <path d="M 187.060539 36.512306 
L 188.024471 41.108047 
L 183.769519 39.121748 
" clip-path="url(#p491339a7f2)" style="fill: none; stroke: #bfc6c9; stroke-linecap: round"/>
   </g>
   <g id="patch_64">
    <path d="M 257.987475 44.721767 
Q 245.759909 35.027138 236.583952 23.854483 
" clip-path="url(#p491339a7f2)" style="fill: none; stroke: #bfc6c9; stroke-linecap: round"/>
    <path d="M 237.626745 28.432974 
L 236.583952 23.854483 
L 240.872421 25.767343 
" clip-path="url(#p491339a7f2)" style="fill: none; stroke: #bfc6c9; stroke-linecap: round"/>
   </g>
   <g id="patch_65">
    <path d="M 280.263807 49.987658 
Q 304.022089 46.852067 326.671952 49.841895 
" clip-path="url(#p491339a7f2)" style="fill: none; stroke: #bfc6c9; stroke-linecap: round"/>
    <path d="M 322.782893 47.210315 
L 326.671952 49.841895 
L 322.233252 51.374195 
" clip-path="url(#p491339a7f2)" style="fill: none; stroke: #bfc6c9; stroke-linecap: round"/>
   </g>
   <g id="patch_66">
    <path d="M 255.776193 54.052342 
Q 232.017911 57.187933 209.368048 54.198105 
" clip-path="url(#p491339a7f2)" style="fill: none; stroke: #bfc6c9; stroke-linecap: round"/>
    <path d="M 213.257107 56.829685 
L 209.368048 54.198105 
L 213.806748 52.665805 
" clip-path="url(#p491339a7f2)" style="fill: none; stroke: #bfc6c9; stroke-linecap: round"/>
   </g>
   <g id="patch_67">
    <path d="M 238.998379 19.880845 
Q 251.02866 29.762558 260.024471 41.108047 
" clip-path="url(#p491339a7f2)" style="fill: none; stroke: #bfc6c9; stroke-linecap: round"/>
    <path d="M 259.060539 36.512306 
L 260.024471 41.108047 
L 255.769519 39.121748 
" clip-path="url(#p491339a7f2)" style="fill: none; stroke: #bfc6c9; stroke-linecap: round"/>
   </g>
   <g id="patch_68">
    <path d="M 329.987475 44.721767 
Q 317.759909 35.027138 308.583952 23.854483 
" clip-path="url(#p491339a7f2)" style="fill: none; stroke: #bfc6c9; stroke-linecap: round"/>
    <path d="M 309.626745 28.432974 
L 308.583952 23.854483 
L 312.872421 25.767343 
" clip-path="url(#p491339a7f2)" style="fill: none; stroke: #bfc6c9; stroke-linecap: round"/>
   </g>
   <g id="patch_69">
    <path d="M 327.776193 54.052342 
Q 304.017911 57.187933 281.368048 54.198105 
" clip-path="url(#p491339a7f2)" style="fill: none; stroke: #bfc6c9; stroke-linecap: round"/>
    <path d="M 285.257107 56.829685 
L 281.368048 54.198105 
L 285.806748 52.665805 
" clip-path="url(#p491339a7f2)" style="fill: none; stroke: #bfc6c9; stroke-linecap: round"/>
   </g>
   <g id="patch_70">
    <path d="M 342.052342 64.263807 
Q 345.187933 88.022089 342.198105 110.671952 
" clip-path="url(#p491339a7f2)" style="fill: none; stroke: #bfc6c9; stroke-linecap: round"/>
    <path d="M 344.829685 106.782893 
L 342.198105 110.671952 
L 340.665805 106.233252 
" clip-path="url(#p491339a7f2)" style="fill: none; stroke: #bfc6c9; stroke-linecap: round"/>
   </g>
   <g id="patch_71">
    <path d="M 310.998379 19.880845 
Q 323.02866 29.762558 332.024471 41.108047 
" clip-path="url(#p491339a7f2)" style="fill: none; stroke: #bfc6c9; stroke-linecap: round"/>
    <path d="M 331.060539 36.512306 
L 332.024471 41.108047 
L 327.769519 39.121748 
" clip-path="url(#p491339a7f2)" style="fill: none; stroke: #bfc6c9; stroke-linecap: round"/>
   </g>
   <g id="patch_72">
    <path d="M 41.987475 116.721767 
Q 29.759909 107.027138 20.583952 95.854483 
" clip-path="url(#p491339a7f2)" style="fill: none; stroke: #bfc6c9; stroke-linecap: round"/>
    <path d="M 21.626745 100.432974 
L 20.583952 95.854483 
L 24.872421 97.767343 
" clip-path="url(#p491339a7f2)" style="fill: none; stroke: #bfc6c9; stroke-linecap: round"/>
   </g>
   <g id="patch_73">
    <path d="M 64.263807 121.987658 
Q 88.022089 118.852067 110.671952 121.841895 
" clip-path="url(#p491339a7f2)" style="fill: none; stroke: #bfc6c9; stroke-linecap: round"/>
    <path d="M 106.782893 119.210315 
L 110.671952 121.841895 
L 106.233252 123.374195 
" clip-path="url(#p491339a7f2)" style="fill: none; stroke: #bfc6c9; stroke-linecap: round"/>
   </g>
   <g id="patch_74">
    <path d="M 54.052342 136.263807 
Q 57.187933 160.022089 54.198105 182.671952 
" clip-path="url(#p491339a7f2)" style="fill: none; stroke: #bfc6c9; stroke-linecap: round"/>
    <path d="M 56.829685 178.782893 
L 54.198105 182.671952 
L 52.665805 178.233252 
" clip-path="url(#p491339a7f2)" style="fill: none; stroke: #bfc6c9; stroke-linecap: round"/>
   </g>
   <g id="patch_75">
    <path d="M 49.987658 111.776193 
Q 46.852067 88.017911 49.841895 65.368048 
" clip-path="url(#p491339a7f2)" style="fill: none; stroke: #bfc6c9; stroke-linecap: round"/>
    <path d="M 47.210315 69.257107 
L 49.841895 65.368048 
L 51.374195 69.806748 
" clip-path="url(#p491339a7f2)" style="fill: none; stroke: #bfc6c9; stroke-linecap: round"/>
   </g>
   <g id="patch_76">
    <path d="M 22.998379 91.880845 
Q 35.02866 101.762558 44.024471 113.108047 
" clip-path="url(#p491339a7f2)" style="fill: none; stroke: #bfc6c9; stroke-linecap: round"/>
    <path d="M 43.060539 108.512306 
L 44.024471 113.108047 
L 39.769519 111.121748 
" clip-path="url(#p491339a7f2)" style="fill: none; stroke: #bfc6c9; stroke-linecap: round"/>
   </g>
   <g id="patch_77">
    <path d="M 113.987475 116.721767 
Q 101.759909 107.027138 92.583952 95.854483 
" clip-path="url(#p491339a7f2)" style="fill: none; stroke: #bfc6c9; stroke-linecap: round"/>
    <path d="M 93.626745 100.432974 
L 92.583952 95.854483 
L 96.872421 97.767343 
" clip-path="url(#p491339a7f2)" style="fill: none; stroke: #bfc6c9; stroke-linecap: round"/>
   </g>
   <g id="patch_78">
    <path d="M 136.263807 121.987658 
Q 160.022089 118.852067 182.671952 121.841895 
" clip-path="url(#p491339a7f2)" style="fill: none; stroke: #bfc6c9; stroke-linecap: round"/>
    <path d="M 178.782893 119.210315 
L 182.671952 121.841895 
L 178.233252 123.374195 
" clip-path="url(#p491339a7f2)" style="fill: none; stroke: #bfc6c9; stroke-linecap: round"/>
   </g>
   <g id="patch_79">
    <path d="M 111.776193 126.052342 
Q 88.017911 129.187933 65.368048 126.198105 
" clip-path="url(#p491339a7f2)" style="fill: none; stroke: #bfc6c9; stroke-linecap: round"/>
    <path d="M 69.257107 128.829685 
L 65.368048 126.198105 
L 69.806748 124.665805 
" clip-path="url(#p491339a7f2)" style="fill: none; stroke: #bfc6c9; stroke-linecap: round"/>
   </g>
   <g id="patch_80">
    <path d="M 94.998379 91.880845 
Q 107.02866 101.762558 116.024471 113.108047 
" clip-path="url(#p491339a7f2)" style="fill: none; stroke: #bfc6c9; stroke-linecap: round"/>
    <path d="M 115.060539 108.512306 
L 116.024471 113.108047 
L 111.769519 111.121748 
" clip-path="url(#p491339a7f2)" style="fill: none; stroke: #bfc6c9; stroke-linecap: round"/>
   </g>
   <g id="patch_81">
    <path d="M 185.987475 116.721767 
Q 173.759909 107.027138 164.583952 95.854483 
" clip-path="url(#p491339a7f2)" style="fill: none; stroke: #bfc6c9; stroke-linecap: round"/>
    <path d="M 165.626745 100.432974 
L 164.583952 95.854483 
L 168.872421 97.767343 
" clip-path="url(#p491339a7f2)" style="fill: none; stroke: #bfc6c9; stroke-linecap: round"/>
   </g>
   <g id="patch_82">
    <path d="M 208.263807 121.987658 
Q 232.022089 118.852067 254.671952 121.841895 
" clip-path="url(#p491339a7f2)" style="fill: none; stroke: #bfc6c9; stroke-linecap: round"/>
    <path d="M 250.782893 119.210315 
L 254.671952 121.841895 
L 250.233252 123.374195 
" clip-path="url(#p491339a7f2)" style="fill: none; stroke: #bfc6c9; stroke-linecap: round"/>
   </g>
   <g id="patch_83">
    <path d="M 183.776193 126.052342 
Q 160.017911 129.187933 137.368048 126.198105 
" clip-path="url(#p491339a7f2)" style="fill: none; stroke: #bfc6c9; stroke-linecap: round"/>
    <path d="M 141.257107 128.829685 
L 137.368048 126.198105 
L 141.806748 124.665805 
" clip-path="url(#p491339a7f2)" style="fill: none; stroke: #bfc6c9; stroke-linecap: round"/>
   </g>
   <g id="patch_84">
    <path d="M 166.998379 91.880845 
Q 179.02866 101.762558 188.024471 113.108047 
" clip-path="url(#p491339a7f2)" style="fill: none; stroke: #bfc6c9; stroke-linecap: round"/>
    <path d="M 187.060539 108.512306 
L 188.024471 113.108047 
L 183.769519 111.121748 
" clip-path="url(#p491339a7f2)" style="fill: none; stroke: #bfc6c9; stroke-linecap: round"/>
   </g>
   <g id="patch_85">
    <path d="M 257.987475 116.721767 
Q 245.759909 107.027138 236.583952 95.854483 
" clip-path="url(#p491339a7f2)" style="fill: none; stroke: #bfc6c9; stroke-linecap: round"/>
    <path d="M 237.626745 100.432974 
L 236.583952 95.854483 
L 240.872421 97.767343 
" clip-path="url(#p491339a7f2)" style="fill: none; stroke: #bfc6c9; stroke-linecap: round"/>
   </g>
   <g id="patch_86">
    <path d="M 280.263807 121.987658 
Q 304.022089 118.852067 326.671952 121.841895 
" clip-path="url(#p491339a7f2)" style="fill: none; stroke: #bfc6c9; stroke-linecap: round"/>
    <path d="M 322.782893 119.210315 
L 326.671952 121.841895 
L 322.233252 123.374195 
" clip-path="url(#p491339a7f2)" style="fill: none; stroke: #bfc6c9; stroke-linecap: round"/>
   </g>
   <g id="patch_87">
    <path d="M 255.776193 126.052342 
Q 232.017911 129.187933 209.368048 126.198105 
" clip-path="url(#p491339a7f2)" style="fill: none; stroke: #bfc6c9; stroke-linecap: round"/>
    <path d="M 213.257107 128.829685 
L 209.368048 126.198105 
L 213.806748 124.665805 
" clip-path="url(#p491339a7f2)" style="fill: none; stroke: #bfc6c9; stroke-linecap: round"/>
   </g>
   <g id="patch_88">
    <path d="M 238.998379 91.880845 
Q 251.02866 101.762558 260.024471 113.108047 
" clip-path="url(#p491339a7f2)" style="fill: none; stroke: #bfc6c9; stroke-linecap: round"/>
    <path d="M 259.060539 108.512306 
L 260.024471 113.108047 
L 255.769519 111.121748 
" clip-path="url(#p491339a7f2)" style="fill: none; stroke: #bfc6c9; stroke-linecap: round"/>
   </g>
   <g id="patch_89">
    <path d="M 329.987475 116.721767 
Q 317.759909 107.027138 308.583952 95.854483 
" clip-path="url(#p491339a7f2)" style="fill: none; stroke: #bfc6c9; stroke-linecap: round"/>
    <path d="M 309.626745 100.432974 
L 308.583952 95.854483 
L 312.872421 97.767343 
" clip-path="url(#p491339a7f2)" style="fill: none; stroke: #bfc6c9; stroke-linecap: round"/>
   </g>
   <g id="patch_90">
    <path d="M 327.776193 126.052342 
Q 304.017911 129.187933 281.368048 126.198105 
" clip-path="url(#p491339a7f2)" style="fill: none; stroke: #bfc6c9; stroke-linecap: round"/>
    <path d="M 285.257107 128.829685 
L 281.368048 126.198105 
L 285.806748 124.665805 
" clip-path="url(#p491339a7f2)" style="fill: none; stroke: #bfc6c9; stroke-linecap: round"/>
   </g>
   <g id="patch_91">
    <path d="M 342.052342 136.263807 
Q 345.187933 160.022089 342.198105 182.671952 
" clip-path="url(#p491339a7f2)" style="fill: none; stroke: #bfc6c9; stroke-linecap: round"/>
    <path d="M 344.829685 178.782893 
L 342.198105 182.671952 
L 340.665805 178.233252 
" clip-path="url(#p491339a7f2)" style="fill: none; stroke: #bfc6c9; stroke-linecap: round"/>
   </g>
   <g id="patch_92">
    <path d="M 337.987658 111.776193 
Q 334.852067 88.017911 337.841895 65.368048 
" clip-path="url(#p491339a7f2)" style="fill: none; stroke: #bfc6c9; stroke-linecap: round"/>
    <path d="M 335.210315 69.257107 
L 337.841895 65.368048 
L 339.374195 69.806748 
" clip-path="url(#p491339a7f2)" style="fill: none; stroke: #bfc6c9; stroke-linecap: round"/>
   </g>
   <g id="patch_93">
    <path d="M 310.998379 91.880845 
Q 323.02866 101.762558 332.024471 113.108047 
" clip-path="url(#p491339a7f2)" style="fill: none; stroke: #bfc6c9; stroke-linecap: round"/>
    <path d="M 331.060539 108.512306 
L 332.024471 113.108047 
L 327.769519 111.121748 
" clip-path="url(#p491339a7f2)" style="fill: none; stroke: #bfc6c9; stroke-linecap: round"/>
   </g>
   <g id="patch_94">
    <path d="M 41.987475 188.721767 
Q 29.759909 179.027138 20.583952 167.854483 
" clip-path="url(#p491339a7f2)" style="fill: none; stroke: #bfc6c9; stroke-linecap: round"/>
    <path d="M 21.626745 172.432974 
L 20.583952 167.854483 
L 24.872421 169.767343 
" clip-path="url(#p491339a7f2)" style="fill: none; stroke: #bfc6c9; stroke-linecap: round"/>
   </g>
   <g id="patch_95">
    <path d="M 64.263807 193.987658 
Q 88.022089 190.852067 110.671952 193.841895 
" clip-path="url(#p491339a7f2)" style="fill: none; stroke: #bfc6c9; stroke-linecap: round"/>
    <path d="M 106.782893 191.210315 
L 110.671952 193.841895 
L 106.233252 195.374195 
" clip-path="url(#p491339a7f2)" style="fill: none; stroke: #bfc6c9; stroke-linecap: round"/>
   </g>
   <g id="patch_96">
    <path d="M 54.052342 208.263807 
Q 57.187933 232.022089 54.198105 254.671952 
" clip-path="url(#p491339a7f2)" style="fill: none; stroke: #bfc6c9; stroke-linecap: round"/>
    <path d="M 56.829685 250.782893 
L 54.198105 254.671952 
L 52.665805 250.233252 
" clip-path="url(#p491339a7f2)" style="fill: none; stroke: #bfc6c9; stroke-linecap: round"/>
   </g>
   <g id="patch_97">
    <path d="M 49.987658 183.776193 
Q 46.852067 160.017911 49.841895 137.368048 
" clip-path="url(#p491339a7f2)" style="fill: none; stroke: #bfc6c9; stroke-linecap: round"/>
    <path d="M 47.210315 141.257107 
L 49.841895 137.368048 
L 51.374195 141.806748 
" clip-path="url(#p491339a7f2)" style="fill: none; stroke: #bfc6c9; stroke-linecap: round"/>
   </g>
   <g id="patch_98">
    <path d="M 22.998379 163.880845 
Q 35.02866 173.762558 44.024471 185.108047 
" clip-path="url(#p491339a7f2)" style="fill: none; stroke: #bfc6c9; stroke-linecap: round"/>
    <path d="M 43.060539 180.512306 
L 44.024471 185.108047 
L 39.769519 183.121748 
" clip-path="url(#p491339a7f2)" style="fill: none; stroke: #bfc6c9; stroke-linecap: round"/>
   </g>
   <g id="patch_99">
    <path d="M 113.987475 188.721767 
Q 101.759909 179.027138 92.583952 167.854483 
" clip-path="url(#p491339a7f2)" style="fill: none; stroke: #bfc6c9; stroke-linecap: round"/>
    <path d="M 93.626745 172.432974 
L 92.583952 167.854483 
L 96.872421 169.767343 
" clip-path="url(#p491339a7f2)" style="fill: none; stroke: #bfc6c9; stroke-linecap: round"/>
   </g>
   <g id="patch_100">
    <path d="M 136.263807 193.987658 
Q 160.022089 190.852067 182.671952 193.841895 
" clip-path="url(#p491339a7f2)" style="fill: none; stroke: #bfc6c9; stroke-linecap: round"/>
    <path d="M 178.782893 191.210315 
L 182.671952 193.841895 
L 178.233252 195.374195 
" clip-path="url(#p491339a7f2)" style="fill: none; stroke: #bfc6c9; stroke-linecap: round"/>
   </g>
   <g id="patch_101">
    <path d="M 111.776193 198.052342 
Q 88.017911 201.187933 65.368048 198.198105 
" clip-path="url(#p491339a7f2)" style="fill: none; stroke: #bfc6c9; stroke-linecap: round"/>
    <path d="M 69.257107 200.829685 
L 65.368048 198.198105 
L 69.806748 196.665805 
" clip-path="url(#p491339a7f2)" style="fill: none; stroke: #bfc6c9; stroke-linecap: round"/>
   </g>
   <g id="patch_102">
    <path d="M 94.998379 163.880845 
Q 107.02866 173.762558 116.024471 185.108047 
" clip-path="url(#p491339a7f2)" style="fill: none; stroke: #bfc6c9; stroke-linecap: round"/>
    <path d="M 115.060539 180.512306 
L 116.024471 185.108047 
L 111.769519 183.121748 
" clip-path="url(#p491339a7f2)" style="fill: none; stroke: #bfc6c9; stroke-linecap: round"/>
   </g>
   <g id="patch_103">
    <path d="M 185.987475 188.721767 
Q 173.759909 179.027138 164.583952 167.854483 
" clip-path="url(#p491339a7f2)" style="fill: none; stroke: #bfc6c9; stroke-linecap: round"/>
    <path d="M 165.626745 172.432974 
L 164.583952 167.854483 
L 168.872421 169.767343 
" clip-path="url(#p491339a7f2)" style="fill: none; stroke: #bfc6c9; stroke-linecap: round"/>
   </g>
   <g id="patch_104">
    <path d="M 208.263807 193.987658 
Q 232.022089 190.852067 254.671952 193.841895 
" clip-path="url(#p491339a7f2)" style="fill: none; stroke: #bfc6c9; stroke-linecap: round"/>
    <path d="M 250.782893 191.210315 
L 254.671952 193.841895 
L 250.233252 195.374195 
" clip-path="url(#p491339a7f2)" style="fill: none; stroke: #bfc6c9; stroke-linecap: round"/>
   </g>
   <g id="patch_105">
    <path d="M 183.776193 198.052342 
Q 160.017911 201.187933 137.368048 198.198105 
" clip-path="url(#p491339a7f2)" style="fill: none; stroke: #bfc6c9; stroke-linecap: round"/>
    <path d="M 141.257107 200.829685 
L 137.368048 198.198105 
L 141.806748 196.665805 
" clip-path="url(#p491339a7f2)" style="fill: none; stroke: #bfc6c9; stroke-linecap: round"/>
   </g>
   <g id="patch_106">
    <path d="M 166.998379 163.880845 
Q 179.02866 173.762558 188.024471 185.108047 
" clip-path="url(#p491339a7f2)" style="fill: none; stroke: #bfc6c9; stroke-linecap: round"/>
    <path d="M 187.060539 180.512306 
L 188.024471 185.108047 
L 183.769519 183.121748 
" clip-path="url(#p491339a7f2)" style="fill: none; stroke: #bfc6c9; stroke-linecap: round"/>
   </g>
   <g id="patch_107">
    <path d="M 257.987475 188.721767 
Q 245.759909 179.027138 236.583952 167.854483 
" clip-path="url(#p491339a7f2)" style="fill: none; stroke: #bfc6c9; stroke-linecap: round"/>
    <path d="M 237.626745 172.432974 
L 236.583952 167.854483 
L 240.872421 169.767343 
" clip-path="url(#p491339a7f2)" style="fill: none; stroke: #bfc6c9; stroke-linecap: round"/>
   </g>
   <g id="patch_108">
    <path d="M 280.263807 193.987658 
Q 304.022089 190.852067 326.671952 193.841895 
" clip-path="url(#p491339a7f2)" style="fill: none; stroke: #bfc6c9; stroke-linecap: round"/>
    <path d="M 322.782893 191.210315 
L 326.671952 193.841895 
L 322.233252 195.374195 
" clip-path="url(#p491339a7f2)" style="fill: none; stroke: #bfc6c9; stroke-linecap: round"/>
   </g>
   <g id="patch_109">
    <path d="M 255.776193 198.052342 
Q 232.017911 201.187933 209.368048 198.198105 
" clip-path="url(#p491339a7f2)" style="fill: none; stroke: #bfc6c9; stroke-linecap: round"/>
    <path d="M 213.257107 200.829685 
L 209.368048 198.198105 
L 213.806748 196.665805 
" clip-path="url(#p491339a7f2)" style="fill: none; stroke: #bfc6c9; stroke-linecap: round"/>
   </g>
   <g id="patch_110">
    <path d="M 238.998379 163.880845 
Q 251.02866 173.762558 260.024471 185.108047 
" clip-path="url(#p491339a7f2)" style="fill: none; stroke: #bfc6c9; stroke-linecap: round"/>
    <path d="M 259.060539 180.512306 
L 260.024471 185.108047 
L 255.769519 183.121748 
" clip-path="url(#p491339a7f2)" style="fill: none; stroke: #bfc6c9; stroke-linecap: round"/>
   </g>
   <g id="patch_111">
    <path d="M 329.987475 188.721767 
Q 317.759909 179.027138 308.583952 167.854483 
" clip-path="url(#p491339a7f2)" style="fill: none; stroke: #bfc6c9; stroke-linecap: round"/>
    <path d="M 309.626745 172.432974 
L 308.583952 167.854483 
L 312.872421 169.767343 
" clip-path="url(#p491339a7f2)" style="fill: none; stroke: #bfc6c9; stroke-linecap: round"/>
   </g>
   <g id="patch_112">
    <path d="M 327.776193 198.052342 
Q 304.017911 201.187933 281.368048 198.198105 
" clip-path="url(#p491339a7f2)" style="fill: none; stroke: #bfc6c9; stroke-linecap: round"/>
    <path d="M 285.257107 200.829685 
L 281.368048 198.198105 
L 285.806748 196.665805 
" clip-path="url(#p491339a7f2)" style="fill: none; stroke: #bfc6c9; stroke-linecap: round"/>
   </g>
   <g id="patch_113">
    <path d="M 342.052342 208.263807 
Q 345.187933 232.022089 342.198105 254.671952 
" clip-path="url(#p491339a7f2)" style="fill: none; stroke: #bfc6c9; stroke-linecap: round"/>
    <path d="M 344.829685 250.782893 
L 342.198105 254.671952 
L 340.665805 250.233252 
" clip-path="url(#p491339a7f2)" style="fill: none; stroke: #bfc6c9; stroke-linecap: round"/>
   </g>
   <g id="patch_114">
    <path d="M 337.987658 183.776193 
Q 334.852067 160.017911 337.841895 137.368048 
" clip-path="url(#p491339a7f2)" style="fill: none; stroke: #bfc6c9; stroke-linecap: round"/>
    <path d="M 335.210315 141.257107 
L 337.841895 137.368048 
L 339.374195 141.806748 
" clip-path="url(#p491339a7f2)" style="fill: none; stroke: #bfc6c9; stroke-linecap: round"/>
   </g>
   <g id="patch_115">
    <path d="M 310.998379 163.880845 
Q 323.02866 173.762558 332.024471 185.108047 
" clip-path="url(#p491339a7f2)" style="fill: none; stroke: #bfc6c9; stroke-linecap: round"/>
    <path d="M 331.060539 180.512306 
L 332.024471 185.108047 
L 327.769519 183.121748 
" clip-path="url(#p491339a7f2)" style="fill: none; stroke: #bfc6c9; stroke-linecap: round"/>
   </g>
   <g id="patch_116">
    <path d="M 41.987475 260.721767 
Q 29.759909 251.027138 20.583952 239.854483 
" clip-path="url(#p491339a7f2)" style="fill: none; stroke: #bfc6c9; stroke-linecap: round"/>
    <path d="M 21.626745 244.432974 
L 20.583952 239.854483 
L 24.872421 241.767343 
" clip-path="url(#p491339a7f2)" style="fill: none; stroke: #bfc6c9; stroke-linecap: round"/>
   </g>
   <g id="patch_117">
    <path d="M 64.263807 265.987658 
Q 88.022089 262.852067 110.671952 265.841895 
" clip-path="url(#p491339a7f2)" style="fill: none; stroke: #bfc6c9; stroke-linecap: round"/>
    <path d="M 106.782893 263.210315 
L 110.671952 265.841895 
L 106.233252 267.374195 
" clip-path="url(#p491339a7f2)" style="fill: none; stroke: #bfc6c9; stroke-linecap: round"/>
   </g>
   <g id="patch_118">
    <path d="M 54.052342 280.263807 
Q 57.187933 304.022089 54.198105 326.671952 
" clip-path="url(#p491339a7f2)" style="fill: none; stroke: #bfc6c9; stroke-linecap: round"/>
    <path d="M 56.829685 322.782893 
L 54.198105 326.671952 
L 52.665805 322.233252 
" clip-path="url(#p491339a7f2)" style="fill: none; stroke: #bfc6c9; stroke-linecap: round"/>
   </g>
   <g id="patch_119">
    <path d="M 49.987658 255.776193 
Q 46.852067 232.017911 49.841895 209.368048 
" clip-path="url(#p491339a7f2)" style="fill: none; stroke: #bfc6c9; stroke-linecap: round"/>
    <path d="M 47.210315 213.257107 
L 49.841895 209.368048 
L 51.374195 213.806748 
" clip-path="url(#p491339a7f2)" style="fill: none; stroke: #bfc6c9; stroke-linecap: round"/>
   </g>
   <g id="patch_120">
    <path d="M 22.998379 235.880845 
Q 35.02866 245.762558 44.024471 257.108047 
" clip-path="url(#p491339a7f2)" style="fill: none; stroke: #bfc6c9; stroke-linecap: round"/>
    <path d="M 43.060539 252.512306 
L 44.024471 257.108047 
L 39.769519 255.121748 
" clip-path="url(#p491339a7f2)" style="fill: none; stroke: #bfc6c9; stroke-linecap: round"/>
   </g>
   <g id="patch_121">
    <path d="M 113.987475 260.721767 
Q 101.759909 251.027138 92.583952 239.854483 
" clip-path="url(#p491339a7f2)" style="fill: none; stroke: #bfc6c9; stroke-linecap: round"/>
    <path d="M 93.626745 244.432974 
L 92.583952 239.854483 
L 96.872421 241.767343 
" clip-path="url(#p491339a7f2)" style="fill: none; stroke: #bfc6c9; stroke-linecap: round"/>
   </g>
   <g id="patch_122">
    <path d="M 136.263807 265.987658 
Q 160.022089 262.852067 182.671952 265.841895 
" clip-path="url(#p491339a7f2)" style="fill: none; stroke: #bfc6c9; stroke-linecap: round"/>
    <path d="M 178.782893 263.210315 
L 182.671952 265.841895 
L 178.233252 267.374195 
" clip-path="url(#p491339a7f2)" style="fill: none; stroke: #bfc6c9; stroke-linecap: round"/>
   </g>
   <g id="patch_123">
    <path d="M 111.776193 270.052342 
Q 88.017911 273.187933 65.368048 270.198105 
" clip-path="url(#p491339a7f2)" style="fill: none; stroke: #bfc6c9; stroke-linecap: round"/>
    <path d="M 69.257107 272.829685 
L 65.368048 270.198105 
L 69.806748 268.665805 
" clip-path="url(#p491339a7f2)" style="fill: none; stroke: #bfc6c9; stroke-linecap: round"/>
   </g>
   <g id="patch_124">
    <path d="M 94.998379 235.880845 
Q 107.02866 245.762558 116.024471 257.108047 
" clip-path="url(#p491339a7f2)" style="fill: none; stroke: #bfc6c9; stroke-linecap: round"/>
    <path d="M 115.060539 252.512306 
L 116.024471 257.108047 
L 111.769519 255.121748 
" clip-path="url(#p491339a7f2)" style="fill: none; stroke: #bfc6c9; stroke-linecap: round"/>
   </g>
   <g id="patch_125">
    <path d="M 185.987475 260.721767 
Q 173.759909 251.027138 164.583952 239.854483 
" clip-path="url(#p491339a7f2)" style="fill: none; stroke: #bfc6c9; stroke-linecap: round"/>
    <path d="M 165.626745 244.432974 
L 164.583952 239.854483 
L 168.872421 241.767343 
" clip-path="url(#p491339a7f2)" style="fill: none; stroke: #bfc6c9; stroke-linecap: round"/>
   </g>
   <g id="patch_126">
    <path d="M 208.263807 265.987658 
Q 232.022089 262.852067 254.671952 265.841895 
" clip-path="url(#p491339a7f2)" style="fill: none; stroke: #bfc6c9; stroke-linecap: round"/>
    <path d="M 250.782893 263.210315 
L 254.671952 265.841895 
L 250.233252 267.374195 
" clip-path="url(#p491339a7f2)" style="fill: none; stroke: #bfc6c9; stroke-linecap: round"/>
   </g>
   <g id="patch_127">
    <path d="M 183.776193 270.052342 
Q 160.017911 273.187933 137.368048 270.198105 
" clip-path="url(#p491339a7f2)" style="fill: none; stroke: #bfc6c9; stroke-linecap: round"/>
    <path d="M 141.257107 272.829685 
L 137.368048 270.198105 
L 141.806748 268.665805 
" clip-path="url(#p491339a7f2)" style="fill: none; stroke: #bfc6c9; stroke-linecap: round"/>
   </g>
   <g id="patch_128">
    <path d="M 166.998379 235.880845 
Q 179.02866 245.762558 188.024471 257.108047 
" clip-path="url(#p491339a7f2)" style="fill: none; stroke: #bfc6c9; stroke-linecap: round"/>
    <path d="M 187.060539 252.512306 
L 188.024471 257.108047 
L 183.769519 255.121748 
" clip-path="url(#p491339a7f2)" style="fill: none; stroke: #bfc6c9; stroke-linecap: round"/>
   </g>
   <g id="patch_129">
    <path d="M 257.987475 260.721767 
Q 245.759909 251.027138 236.583952 239.854483 
" clip-path="url(#p491339a7f2)" style="fill: none; stroke: #bfc6c9; stroke-linecap: round"/>
    <path d="M 237.626745 244.432974 
L 236.583952 239.854483 
L 240.872421 241.767343 
" clip-path="url(#p491339a7f2)" style="fill: none; stroke: #bfc6c9; stroke-linecap: round"/>
   </g>
   <g id="patch_130">
    <path d="M 280.263807 265.987658 
Q 304.022089 262.852067 326.671952 265.841895 
" clip-path="url(#p491339a7f2)" style="fill: none; stroke: #bfc6c9; stroke-linecap: round"/>
    <path d="M 322.782893 263.210315 
L 326.671952 265.841895 
L 322.233252 267.374195 
" clip-path="url(#p491339a7f2)" style="fill: none; stroke: #bfc6c9; stroke-linecap: round"/>
   </g>
   <g id="patch_131">
    <path d="M 255.776193 270.052342 
Q 232.017911 273.187933 209.368048 270.198105 
" clip-path="url(#p491339a7f2)" style="fill: none; stroke: #bfc6c9; stroke-linecap: round"/>
    <path d="M 213.257107 272.829685 
L 209.368048 270.198105 
L 213.806748 268.665805 
" clip-path="url(#p491339a7f2)" style="fill: none; stroke: #bfc6c9; stroke-linecap: round"/>
   </g>
   <g id="patch_132">
    <path d="M 238.998379 235.880845 
Q 251.02866 245.762558 260.024471 257.108047 
" clip-path="url(#p491339a7f2)" style="fill: none; stroke: #bfc6c9; stroke-linecap: round"/>
    <path d="M 259.060539 252.512306 
L 260.024471 257.108047 
L 255.769519 255.121748 
" clip-path="url(#p491339a7f2)" style="fill: none; stroke: #bfc6c9; stroke-linecap: round"/>
   </g>
   <g id="patch_133">
    <path d="M 329.987475 260.721767 
Q 317.759909 251.027138 308.583952 239.854483 
" clip-path="url(#p491339a7f2)" style="fill: none; stroke: #bfc6c9; stroke-linecap: round"/>
    <path d="M 309.626745 244.432974 
L 308.583952 239.854483 
L 312.872421 241.767343 
" clip-path="url(#p491339a7f2)" style="fill: none; stroke: #bfc6c9; stroke-linecap: round"/>
   </g>
   <g id="patch_134">
    <path d="M 327.776193 270.052342 
Q 304.017911 273.187933 281.368048 270.198105 
" clip-path="url(#p491339a7f2)" style="fill: none; stroke: #bfc6c9; stroke-linecap: round"/>
    <path d="M 285.257107 272.829685 
L 281.368048 270.198105 
L 285.806748 268.665805 
" clip-path="url(#p491339a7f2)" style="fill: none; stroke: #bfc6c9; stroke-linecap: round"/>
   </g>
   <g id="patch_135">
    <path d="M 342.052342 280.263807 
Q 345.187933 304.022089 342.198105 326.671952 
" clip-path="url(#p491339a7f2)" style="fill: none; stroke: #bfc6c9; stroke-linecap: round"/>
    <path d="M 344.829685 322.782893 
L 342.198105 326.671952 
L 340.665805 322.233252 
" clip-path="url(#p491339a7f2)" style="fill: none; stroke: #bfc6c9; stroke-linecap: round"/>
   </g>
   <g id="patch_136">
    <path d="M 337.987658 255.776193 
Q 334.852067 232.017911 337.841895 209.368048 
" clip-path="url(#p491339a7f2)" style="fill: none; stroke: #bfc6c9; stroke-linecap: round"/>
    <path d="M 335.210315 213.257107 
L 337.841895 209.368048 
L 339.374195 213.806748 
" clip-path="url(#p491339a7f2)" style="fill: none; stroke: #bfc6c9; stroke-linecap: round"/>
   </g>
   <g id="patch_137">
    <path d="M 310.998379 235.880845 
Q 323.02866 245.762558 332.024471 257.108047 
" clip-path="url(#p491339a7f2)" style="fill: none; stroke: #bfc6c9; stroke-linecap: round"/>
    <path d="M 331.060539 252.512306 
L 332.024471 257.108047 
L 327.769519 255.121748 
" clip-path="url(#p491339a7f2)" style="fill: none; stroke: #bfc6c9; stroke-linecap: round"/>
   </g>
   <g id="patch_138">
    <path d="M 41.987475 332.721767 
Q 29.759909 323.027138 20.583952 311.854483 
" clip-path="url(#p491339a7f2)" style="fill: none; stroke: #bfc6c9; stroke-linecap: round"/>
    <path d="M 21.626745 316.432974 
L 20.583952 311.854483 
L 24.872421 313.767343 
" clip-path="url(#p491339a7f2)" style="fill: none; stroke: #bfc6c9; stroke-linecap: round"/>
   </g>
   <g id="patch_139">
    <path d="M 64.263807 337.987658 
Q 88.022089 334.852067 110.671952 337.841895 
" clip-path="url(#p491339a7f2)" style="fill: none; stroke: #bfc6c9; stroke-linecap: round"/>
    <path d="M 106.782893 335.210315 
L 110.671952 337.841895 
L 106.233252 339.374195 
" clip-path="url(#p491339a7f2)" style="fill: none; stroke: #bfc6c9; stroke-linecap: round"/>
   </g>
   <g id="patch_140">
    <path d="M 49.987658 327.776193 
Q 46.852067 304.017911 49.841895 281.368048 
" clip-path="url(#p491339a7f2)" style="fill: none; stroke: #bfc6c9; stroke-linecap: round"/>
    <path d="M 47.210315 285.257107 
L 49.841895 281.368048 
L 51.374195 285.806748 
" clip-path="url(#p491339a7f2)" style="fill: none; stroke: #bfc6c9; stroke-linecap: round"/>
   </g>
   <g id="patch_141">
    <path d="M 22.998379 307.880845 
Q 35.02866 317.762558 44.024471 329.108047 
" clip-path="url(#p491339a7f2)" style="fill: none; stroke: #bfc6c9; stroke-linecap: round"/>
    <path d="M 43.060539 324.512306 
L 44.024471 329.108047 
L 39.769519 327.121748 
" clip-path="url(#p491339a7f2)" style="fill: none; stroke: #bfc6c9; stroke-linecap: round"/>
   </g>
   <g id="patch_142">
    <path d="M 113.987475 332.721767 
Q 101.759909 323.027138 92.583952 311.854483 
" clip-path="url(#p491339a7f2)" style="fill: none; stroke: #bfc6c9; stroke-linecap: round"/>
    <path d="M 93.626745 316.432974 
L 92.583952 311.854483 
L 96.872421 313.767343 
" clip-path="url(#p491339a7f2)" style="fill: none; stroke: #bfc6c9; stroke-linecap: round"/>
   </g>
   <g id="patch_143">
    <path d="M 136.263807 337.987658 
Q 160.022089 334.852067 182.671952 337.841895 
" clip-path="url(#p491339a7f2)" style="fill: none; stroke: #bfc6c9; stroke-linecap: round"/>
    <path d="M 178.782893 335.210315 
L 182.671952 337.841895 
L 178.233252 339.374195 
" clip-path="url(#p491339a7f2)" style="fill: none; stroke: #bfc6c9; stroke-linecap: round"/>
   </g>
   <g id="patch_144">
    <path d="M 111.776193 342.052342 
Q 88.017911 345.187933 65.368048 342.198105 
" clip-path="url(#p491339a7f2)" style="fill: none; stroke: #bfc6c9; stroke-linecap: round"/>
    <path d="M 69.257107 344.829685 
L 65.368048 342.198105 
L 69.806748 340.665805 
" clip-path="url(#p491339a7f2)" style="fill: none; stroke: #bfc6c9; stroke-linecap: round"/>
   </g>
   <g id="patch_145">
    <path d="M 94.998379 307.880845 
Q 107.02866 317.762558 116.024471 329.108047 
" clip-path="url(#p491339a7f2)" style="fill: none; stroke: #bfc6c9; stroke-linecap: round"/>
    <path d="M 115.060539 324.512306 
L 116.024471 329.108047 
L 111.769519 327.121748 
" clip-path="url(#p491339a7f2)" style="fill: none; stroke: #bfc6c9; stroke-linecap: round"/>
   </g>
   <g id="patch_146">
    <path d="M 185.987475 332.721767 
Q 173.759909 323.027138 164.583952 311.854483 
" clip-path="url(#p491339a7f2)" style="fill: none; stroke: #bfc6c9; stroke-linecap: round"/>
    <path d="M 165.626745 316.432974 
L 164.583952 311.854483 
L 168.872421 313.767343 
" clip-path="url(#p491339a7f2)" style="fill: none; stroke: #bfc6c9; stroke-linecap: round"/>
   </g>
   <g id="patch_147">
    <path d="M 208.263807 337.987658 
Q 232.022089 334.852067 254.671952 337.841895 
" clip-path="url(#p491339a7f2)" style="fill: none; stroke: #bfc6c9; stroke-linecap: round"/>
    <path d="M 250.782893 335.210315 
L 254.671952 337.841895 
L 250.233252 339.374195 
" clip-path="url(#p491339a7f2)" style="fill: none; stroke: #bfc6c9; stroke-linecap: round"/>
   </g>
   <g id="patch_148">
    <path d="M 183.776193 342.052342 
Q 160.017911 345.187933 137.368048 342.198105 
" clip-path="url(#p491339a7f2)" style="fill: none; stroke: #bfc6c9; stroke-linecap: round"/>
    <path d="M 141.257107 344.829685 
L 137.368048 342.198105 
L 141.806748 340.665805 
" clip-path="url(#p491339a7f2)" style="fill: none; stroke: #bfc6c9; stroke-linecap: round"/>
   </g>
   <g id="patch_149">
    <path d="M 166.998379 307.880845 
Q 179.02866 317.762558 188.024471 329.108047 
" clip-path="url(#p491339a7f2)" style="fill: none; stroke: #bfc6c9; stroke-linecap: round"/>
    <path d="M 187.060539 324.512306 
L 188.024471 329.108047 
L 183.769519 327.121748 
" clip-path="url(#p491339a7f2)" style="fill: none; stroke: #bfc6c9; stroke-linecap: round"/>
   </g>
   <g id="patch_150">
    <path d="M 257.987475 332.721767 
Q 245.759909 323.027138 236.583952 311.854483 
" clip-path="url(#p491339a7f2)" style="fill: none; stroke: #bfc6c9; stroke-linecap: round"/>
    <path d="M 237.626745 316.432974 
L 236.583952 311.854483 
L 240.872421 313.767343 
" clip-path="url(#p491339a7f2)" style="fill: none; stroke: #bfc6c9; stroke-linecap: round"/>
   </g>
   <g id="patch_151">
    <path d="M 280.263807 337.987658 
Q 304.022089 334.852067 326.671952 337.841895 
" clip-path="url(#p491339a7f2)" style="fill: none; stroke: #bfc6c9; stroke-linecap: round"/>
    <path d="M 322.782893 335.210315 
L 326.671952 337.841895 
L 322.233252 339.374195 
" clip-path="url(#p491339a7f2)" style="fill: none; stroke: #bfc6c9; stroke-linecap: round"/>
   </g>
   <g id="patch_152">
    <path d="M 255.776193 342.052342 
Q 232.017911 345.187933 209.368048 342.198105 
" clip-path="url(#p491339a7f2)" style="fill: none; stroke: #bfc6c9; stroke-linecap: round"/>
    <path d="M 213.257107 344.829685 
L 209.368048 342.198105 
L 213.806748 340.665805 
" clip-path="url(#p491339a7f2)" style="fill: none; stroke: #bfc6c9; stroke-linecap: round"/>
   </g>
   <g id="patch_153">
    <path d="M 238.998379 307.880845 
Q 251.02866 317.762558 260.024471 329.108047 
" clip-path="url(#p491339a7f2)" style="fill: none; stroke: #bfc6c9; stroke-linecap: round"/>
    <path d="M 259.060539 324.512306 
L 260.024471 329.108047 
L 255.769519 327.121748 
" clip-path="url(#p491339a7f2)" style="fill: none; stroke: #bfc6c9; stroke-linecap: round"/>
   </g>
   <g id="patch_154">
    <path d="M 329.987475 332.721767 
Q 317.759909 323.027138 308.583952 311.854483 
" clip-path="url(#p491339a7f2)" style="fill: none; stroke: #bfc6c9; stroke-linecap: round"/>
    <path d="M 309.626745 316.432974 
L 308.583952 311.854483 
L 312.872421 313.767343 
" clip-path="url(#p491339a7f2)" style="fill: none; stroke: #bfc6c9; stroke-linecap: round"/>
   </g>
   <g id="patch_155">
    <path d="M 327.776193 342.052342 
Q 304.017911 345.187933 281.368048 342.198105 
" clip-path="url(#p491339a7f2)" style="fill: none; stroke: #bfc6c9; stroke-linecap: round"/>
    <path d="M 285.257107 344.829685 
L 281.368048 342.198105 
L 285.806748 340.665805 
" clip-path="url(#p491339a7f2)" style="fill: none; stroke: #bfc6c9; stroke-linecap: round"/>
   </g>
   <g id="patch_156">
    <path d="M 337.987658 327.776193 
Q 334.852067 304.017911 337.841895 281.368048 
" clip-path="url(#p491339a7f2)" style="fill: none; stroke: #bfc6c9; stroke-linecap: round"/>
    <path d="M 335.210315 285.257107 
L 337.841895 281.368048 
L 339.374195 285.806748 
" clip-path="url(#p491339a7f2)" style="fill: none; stroke: #bfc6c9; stroke-linecap: round"/>
   </g>
   <g id="patch_157">
    <path d="M 310.998379 307.880845 
Q 323.02866 317.762558 332.024471 329.108047 
" clip-path="url(#p491339a7f2)" style="fill: none; stroke: #bfc6c9; stroke-linecap: round"/>
    <path d="M 331.060539 324.512306 
L 332.024471 329.108047 
L 327.769519 327.121748 
" clip-path="url(#p491339a7f2)" style="fill: none; stroke: #bfc6c9; stroke-linecap: round"/>
   </g>
  </g>
 </g>
 <defs>
  <clipPath id="p491339a7f2">
   <rect x="0" y="0" width="350.964" height="350.964"/>
  </clipPath>
 </defs>
</svg>
