<?xml version="1.0" encoding="utf-8" standalone="no"?>
<!DOCTYPE svg PUBLIC "-//W3C//DTD SVG 1.1//EN"
  "http://www.w3.org/Graphics/SVG/1.1/DTD/svg11.dtd">
<svg xmlns:xlink="http://www.w3.org/1999/xlink" width="350.964pt" height="350.964pt" viewBox="0 0 350.964 350.964" xmlns="http://www.w3.org/2000/svg" version="1.1">
 <metadata>
  <rdf:RDF xmlns:dc="http://purl.org/dc/elements/1.1/" xmlns:cc="http://creativecommons.org/ns#" xmlns:rdf="http://www.w3.org/1999/02/22-rdf-syntax-ns#">
   <cc:Work>
    <dc:type rdf:resource="http://purl.org/dc/dcmitype/StillImage"/>
    <dc:date>2024-08-26T18:05:20.882290</dc:date>
    <dc:format>image/svg+xml</dc:format>
    <dc:creator>
     <cc:Agent>
      <dc:title>Matplotlib v3.8.3, https://matplotlib.org/</dc:title>
     </cc:Agent>
    </dc:creator>
   </cc:Work>
  </rdf:RDF>
 </metadata>
 <defs>
  <style type="text/css">*{stroke-linejoin: round; stroke-linecap: butt}</style>
 </defs>
 <g id="figure_1">
  <g id="patch_1">
   <path d="M 0 350.964 
L 350.964 350.964 
L 350.964 0 
L 0 0 
z
" style="fill: #ffffff"/>
  </g>
  <g id="axes_1">
   <g id="patch_2">
    <path d="M 52.02 61.956 
C 54.655058 61.956 57.182546 60.90908 59.045813 59.045813 
C 60.90908 57.182546 61.956 54.655058 61.956 52.02 
C 61.956 49.384942 60.90908 46.857454 59.045813 44.994187 
C 57.182546 43.13092 54.655058 42.084 52.02 42.084 
C 49.384942 42.084 46.857454 43.13092 44.994187 44.994187 
C 43.13092 46.857454 42.084 49.384942 42.084 52.02 
C 42.084 54.655058 43.13092 57.182546 44.994187 59.045813 
C 46.857454 60.90908 49.384942 61.956 52.02 61.956 
z
" style="fill: #8caed1; stroke: #8caed1; stroke-linejoin: miter"/>
   </g>
   <g id="patch_3">
    <path d="M 2.52 19.44 
L 19.44 19.44 
L 19.44 2.52 
L 2.52 2.52 
z
" style="fill: #2967a9; stroke: #2967a9; stroke-width: 4"/>
   </g>
   <g id="patch_4">
    <path d="M 124.02 61.956 
C 126.655058 61.956 129.182546 60.90908 131.045813 59.045813 
C 132.90908 57.182546 133.956 54.655058 133.956 52.02 
C 133.956 49.384942 132.90908 46.857454 131.045813 44.994187 
C 129.182546 43.13092 126.655058 42.084 124.02 42.084 
C 121.384942 42.084 118.857454 43.13092 116.994187 44.994187 
C 115.13092 46.857454 114.084 49.384942 114.084 52.02 
C 114.084 54.655058 115.13092 57.182546 116.994187 59.045813 
C 118.857454 60.90908 121.384942 61.956 124.02 61.956 
z
" style="fill: #8caed1; stroke: #8caed1; stroke-linejoin: miter"/>
   </g>
   <g id="patch_5">
    <path d="M 74.52 19.44 
L 91.44 19.44 
L 91.44 2.52 
L 74.52 2.52 
z
" style="fill: #2967a9; stroke: #2967a9; stroke-width: 4"/>
   </g>
   <g id="patch_6">
    <path d="M 196.02 61.956 
C 198.655058 61.956 201.182546 60.90908 203.045813 59.045813 
C 204.90908 57.182546 205.956 54.655058 205.956 52.02 
C 205.956 49.384942 204.90908 46.857454 203.045813 44.994187 
C 201.182546 43.13092 198.655058 42.084 196.02 42.084 
C 193.384942 42.084 190.857454 43.13092 188.994187 44.994187 
C 187.13092 46.857454 186.084 49.384942 186.084 52.02 
C 186.084 54.655058 187.13092 57.182546 188.994187 59.045813 
C 190.857454 60.90908 193.384942 61.956 196.02 61.956 
z
" style="fill: #8caed1; stroke: #8caed1; stroke-linejoin: miter"/>
   </g>
   <g id="patch_7">
    <path d="M 146.52 19.44 
L 163.44 19.44 
L 163.44 2.52 
L 146.52 2.52 
z
" style="fill: #2967a9; stroke: #2967a9; stroke-width: 4"/>
   </g>
   <g id="patch_8">
    <path d="M 268.02 61.956 
C 270.655058 61.956 273.182546 60.90908 275.045813 59.045813 
C 276.90908 57.182546 277.956 54.655058 277.956 52.02 
C 277.956 49.384942 276.90908 46.857454 275.045813 44.994187 
C 273.182546 43.13092 270.655058 42.084 268.02 42.084 
C 265.384942 42.084 262.857454 43.13092 260.994187 44.994187 
C 259.13092 46.857454 258.084 49.384942 258.084 52.02 
C 258.084 54.655058 259.13092 57.182546 260.994187 59.045813 
C 262.857454 60.90908 265.384942 61.956 268.02 61.956 
z
" style="fill: #8caed1; stroke: #8caed1; stroke-linejoin: miter"/>
   </g>
   <g id="patch_9">
    <path d="M 218.52 19.44 
L 235.44 19.44 
L 235.44 2.52 
L 218.52 2.52 
z
" style="fill: #2967a9; stroke: #2967a9; stroke-width: 4"/>
   </g>
   <g id="patch_10">
    <path d="M 340.02 61.956 
C 342.655058 61.956 345.182546 60.90908 347.045813 59.045813 
C 348.90908 57.182546 349.956 54.655058 349.956 52.02 
C 349.956 49.384942 348.90908 46.857454 347.045813 44.994187 
C 345.182546 43.13092 342.655058 42.084 340.02 42.084 
C 337.384942 42.084 334.857454 43.13092 332.994187 44.994187 
C 331.13092 46.857454 330.084 49.384942 330.084 52.02 
C 330.084 54.655058 331.13092 57.182546 332.994187 59.045813 
C 334.857454 60.90908 337.384942 61.956 340.02 61.956 
z
" style="fill: #8caed1; stroke: #8caed1; stroke-linejoin: miter"/>
   </g>
   <g id="patch_11">
    <path d="M 290.52 19.44 
L 307.44 19.44 
L 307.44 2.52 
L 290.52 2.52 
z
" style="fill: #2967a9; stroke: #2967a9; stroke-width: 4"/>
   </g>
   <g id="patch_12">
    <path d="M 52.02 133.956 
C 54.655058 133.956 57.182546 132.90908 59.045813 131.045813 
C 60.90908 129.182546 61.956 126.655058 61.956 124.02 
C 61.956 121.384942 60.90908 118.857454 59.045813 116.994187 
C 57.182546 115.13092 54.655058 114.084 52.02 114.084 
C 49.384942 114.084 46.857454 115.13092 44.994187 116.994187 
C 43.13092 118.857454 42.084 121.384942 42.084 124.02 
C 42.084 126.655058 43.13092 129.182546 44.994187 131.045813 
C 46.857454 132.90908 49.384942 133.956 52.02 133.956 
z
" style="fill: #8caed1; stroke: #8caed1; stroke-linejoin: miter"/>
   </g>
   <g id="patch_13">
    <path d="M 2.52 91.44 
L 19.44 91.44 
L 19.44 74.52 
L 2.52 74.52 
z
" style="fill: #2967a9; stroke: #2967a9; stroke-width: 4"/>
   </g>
   <g id="patch_14">
    <path d="M 124.02 133.956 
C 126.655058 133.956 129.182546 132.90908 131.045813 131.045813 
C 132.90908 129.182546 133.956 126.655058 133.956 124.02 
C 133.956 121.384942 132.90908 118.857454 131.045813 116.994187 
C 129.182546 115.13092 126.655058 114.084 124.02 114.084 
C 121.384942 114.084 118.857454 115.13092 116.994187 116.994187 
C 115.13092 118.857454 114.084 121.384942 114.084 124.02 
C 114.084 126.655058 115.13092 129.182546 116.994187 131.045813 
C 118.857454 132.90908 121.384942 133.956 124.02 133.956 
z
" style="fill: #8caed1; stroke: #8caed1; stroke-linejoin: miter"/>
   </g>
   <g id="patch_15">
    <path d="M 74.52 91.44 
L 91.44 91.44 
L 91.44 74.52 
L 74.52 74.52 
z
" style="fill: #2967a9; stroke: #2967a9; stroke-width: 4"/>
   </g>
   <g id="patch_16">
    <path d="M 196.02 133.956 
C 198.655058 133.956 201.182546 132.90908 203.045813 131.045813 
C 204.90908 129.182546 205.956 126.655058 205.956 124.02 
C 205.956 121.384942 204.90908 118.857454 203.045813 116.994187 
C 201.182546 115.13092 198.655058 114.084 196.02 114.084 
C 193.384942 114.084 190.857454 115.13092 188.994187 116.994187 
C 187.13092 118.857454 186.084 121.384942 186.084 124.02 
C 186.084 126.655058 187.13092 129.182546 188.994187 131.045813 
C 190.857454 132.90908 193.384942 133.956 196.02 133.956 
z
" style="fill: #8caed1; stroke: #8caed1; stroke-linejoin: miter"/>
   </g>
   <g id="patch_17">
    <path d="M 146.52 91.44 
L 163.44 91.44 
L 163.44 74.52 
L 146.52 74.52 
z
" style="fill: #2967a9; stroke: #2967a9; stroke-width: 4"/>
   </g>
   <g id="patch_18">
    <path d="M 268.02 133.956 
C 270.655058 133.956 273.182546 132.90908 275.045813 131.045813 
C 276.90908 129.182546 277.956 126.655058 277.956 124.02 
C 277.956 121.384942 276.90908 118.857454 275.045813 116.994187 
C 273.182546 115.13092 270.655058 114.084 268.02 114.084 
C 265.384942 114.084 262.857454 115.13092 260.994187 116.994187 
C 259.13092 118.857454 258.084 121.384942 258.084 124.02 
C 258.084 126.655058 259.13092 129.182546 260.994187 131.045813 
C 262.857454 132.90908 265.384942 133.956 268.02 133.956 
z
" style="fill: #8caed1; stroke: #8caed1; stroke-linejoin: miter"/>
   </g>
   <g id="patch_19">
    <path d="M 218.52 91.44 
L 235.44 91.44 
L 235.44 74.52 
L 218.52 74.52 
z
" style="fill: #2967a9; stroke: #2967a9; stroke-width: 4"/>
   </g>
   <g id="patch_20">
    <path d="M 340.02 133.956 
C 342.655058 133.956 345.182546 132.90908 347.045813 131.045813 
C 348.90908 129.182546 349.956 126.655058 349.956 124.02 
C 349.956 121.384942 348.90908 118.857454 347.045813 116.994187 
C 345.182546 115.13092 342.655058 114.084 340.02 114.084 
C 337.384942 114.084 334.857454 115.13092 332.994187 116.994187 
C 331.13092 118.857454 330.084 121.384942 330.084 124.02 
C 330.084 126.655058 331.13092 129.182546 332.994187 131.045813 
C 334.857454 132.90908 337.384942 133.956 340.02 133.956 
z
" style="fill: #8caed1; stroke: #8caed1; stroke-linejoin: miter"/>
   </g>
   <g id="patch_21">
    <path d="M 290.52 91.44 
L 307.44 91.44 
L 307.44 74.52 
L 290.52 74.52 
z
" style="fill: #2967a9; stroke: #2967a9; stroke-width: 4"/>
   </g>
   <g id="patch_22">
    <path d="M 52.02 205.956 
C 54.655058 205.956 57.182546 204.90908 59.045813 203.045813 
C 60.90908 201.182546 61.956 198.655058 61.956 196.02 
C 61.956 193.384942 60.90908 190.857454 59.045813 188.994187 
C 57.182546 187.13092 54.655058 186.084 52.02 186.084 
C 49.384942 186.084 46.857454 187.13092 44.994187 188.994187 
C 43.13092 190.857454 42.084 193.384942 42.084 196.02 
C 42.084 198.655058 43.13092 201.182546 44.994187 203.045813 
C 46.857454 204.90908 49.384942 205.956 52.02 205.956 
z
" style="fill: #8caed1; stroke: #8caed1; stroke-linejoin: miter"/>
   </g>
   <g id="patch_23">
    <path d="M 2.52 163.44 
L 19.44 163.44 
L 19.44 146.52 
L 2.52 146.52 
z
" style="fill: #2967a9; stroke: #2967a9; stroke-width: 4"/>
   </g>
   <g id="patch_24">
    <path d="M 124.02 205.956 
C 126.655058 205.956 129.182546 204.90908 131.045813 203.045813 
C 132.90908 201.182546 133.956 198.655058 133.956 196.02 
C 133.956 193.384942 132.90908 190.857454 131.045813 188.994187 
C 129.182546 187.13092 126.655058 186.084 124.02 186.084 
C 121.384942 186.084 118.857454 187.13092 116.994187 188.994187 
C 115.13092 190.857454 114.084 193.384942 114.084 196.02 
C 114.084 198.655058 115.13092 201.182546 116.994187 203.045813 
C 118.857454 204.90908 121.384942 205.956 124.02 205.956 
z
" style="fill: #8caed1; stroke: #8caed1; stroke-linejoin: miter"/>
   </g>
   <g id="patch_25">
    <path d="M 74.52 163.44 
L 91.44 163.44 
L 91.44 146.52 
L 74.52 146.52 
z
" style="fill: #2967a9; stroke: #2967a9; stroke-width: 4"/>
   </g>
   <g id="patch_26">
    <path d="M 196.02 205.956 
C 198.655058 205.956 201.182546 204.90908 203.045813 203.045813 
C 204.90908 201.182546 205.956 198.655058 205.956 196.02 
C 205.956 193.384942 204.90908 190.857454 203.045813 188.994187 
C 201.182546 187.13092 198.655058 186.084 196.02 186.084 
C 193.384942 186.084 190.857454 187.13092 188.994187 188.994187 
C 187.13092 190.857454 186.084 193.384942 186.084 196.02 
C 186.084 198.655058 187.13092 201.182546 188.994187 203.045813 
C 190.857454 204.90908 193.384942 205.956 196.02 205.956 
z
" style="fill: #8caed1; stroke: #8caed1; stroke-linejoin: miter"/>
   </g>
   <g id="patch_27">
    <path d="M 146.52 163.44 
L 163.44 163.44 
L 163.44 146.52 
L 146.52 146.52 
z
" style="fill: #2967a9; stroke: #2967a9; stroke-width: 4"/>
   </g>
   <g id="patch_28">
    <path d="M 268.02 205.956 
C 270.655058 205.956 273.182546 204.90908 275.045813 203.045813 
C 276.90908 201.182546 277.956 198.655058 277.956 196.02 
C 277.956 193.384942 276.90908 190.857454 275.045813 188.994187 
C 273.182546 187.13092 270.655058 186.084 268.02 186.084 
C 265.384942 186.084 262.857454 187.13092 260.994187 188.994187 
C 259.13092 190.857454 258.084 193.384942 258.084 196.02 
C 258.084 198.655058 259.13092 201.182546 260.994187 203.045813 
C 262.857454 204.90908 265.384942 205.956 268.02 205.956 
z
" style="fill: #8caed1; stroke: #8caed1; stroke-linejoin: miter"/>
   </g>
   <g id="patch_29">
    <path d="M 218.52 163.44 
L 235.44 163.44 
L 235.44 146.52 
L 218.52 146.52 
z
" style="fill: #2967a9; stroke: #2967a9; stroke-width: 4"/>
   </g>
   <g id="patch_30">
    <path d="M 340.02 205.956 
C 342.655058 205.956 345.182546 204.90908 347.045813 203.045813 
C 348.90908 201.182546 349.956 198.655058 349.956 196.02 
C 349.956 193.384942 348.90908 190.857454 347.045813 188.994187 
C 345.182546 187.13092 342.655058 186.084 340.02 186.084 
C 337.384942 186.084 334.857454 187.13092 332.994187 188.994187 
C 331.13092 190.857454 330.084 193.384942 330.084 196.02 
C 330.084 198.655058 331.13092 201.182546 332.994187 203.045813 
C 334.857454 204.90908 337.384942 205.956 340.02 205.956 
z
" style="fill: #8caed1; stroke: #8caed1; stroke-linejoin: miter"/>
   </g>
   <g id="patch_31">
    <path d="M 290.52 163.44 
L 307.44 163.44 
L 307.44 146.52 
L 290.52 146.52 
z
" style="fill: #2967a9; stroke: #2967a9; stroke-width: 4"/>
   </g>
   <g id="patch_32">
    <path d="M 52.02 277.956 
C 54.655058 277.956 57.182546 276.90908 59.045813 275.045813 
C 60.90908 273.182546 61.956 270.655058 61.956 268.02 
C 61.956 265.384942 60.90908 262.857454 59.045813 260.994187 
C 57.182546 259.13092 54.655058 258.084 52.02 258.084 
C 49.384942 258.084 46.857454 259.13092 44.994187 260.994187 
C 43.13092 262.857454 42.084 265.384942 42.084 268.02 
C 42.084 270.655058 43.13092 273.182546 44.994187 275.045813 
C 46.857454 276.90908 49.384942 277.956 52.02 277.956 
z
" style="fill: #8caed1; stroke: #8caed1; stroke-linejoin: miter"/>
   </g>
   <g id="patch_33">
    <path d="M 2.52 235.44 
L 19.44 235.44 
L 19.44 218.52 
L 2.52 218.52 
z
" style="fill: #2967a9; stroke: #2967a9; stroke-width: 4"/>
   </g>
   <g id="patch_34">
    <path d="M 124.02 277.956 
C 126.655058 277.956 129.182546 276.90908 131.045813 275.045813 
C 132.90908 273.182546 133.956 270.655058 133.956 268.02 
C 133.956 265.384942 132.90908 262.857454 131.045813 260.994187 
C 129.182546 259.13092 126.655058 258.084 124.02 258.084 
C 121.384942 258.084 118.857454 259.13092 116.994187 260.994187 
C 115.13092 262.857454 114.084 265.384942 114.084 268.02 
C 114.084 270.655058 115.13092 273.182546 116.994187 275.045813 
C 118.857454 276.90908 121.384942 277.956 124.02 277.956 
z
" style="fill: #8caed1; stroke: #8caed1; stroke-linejoin: miter"/>
   </g>
   <g id="patch_35">
    <path d="M 74.52 235.44 
L 91.44 235.44 
L 91.44 218.52 
L 74.52 218.52 
z
" style="fill: #2967a9; stroke: #2967a9; stroke-width: 4"/>
   </g>
   <g id="patch_36">
    <path d="M 196.02 277.956 
C 198.655058 277.956 201.182546 276.90908 203.045813 275.045813 
C 204.90908 273.182546 205.956 270.655058 205.956 268.02 
C 205.956 265.384942 204.90908 262.857454 203.045813 260.994187 
C 201.182546 259.13092 198.655058 258.084 196.02 258.084 
C 193.384942 258.084 190.857454 259.13092 188.994187 260.994187 
C 187.13092 262.857454 186.084 265.384942 186.084 268.02 
C 186.084 270.655058 187.13092 273.182546 188.994187 275.045813 
C 190.857454 276.90908 193.384942 277.956 196.02 277.956 
z
" style="fill: #8caed1; stroke: #8caed1; stroke-linejoin: miter"/>
   </g>
   <g id="patch_37">
    <path d="M 146.52 235.44 
L 163.44 235.44 
L 163.44 218.52 
L 146.52 218.52 
z
" style="fill: #2967a9; stroke: #2967a9; stroke-width: 4"/>
   </g>
   <g id="patch_38">
    <path d="M 268.02 277.956 
C 270.655058 277.956 273.182546 276.90908 275.045813 275.045813 
C 276.90908 273.182546 277.956 270.655058 277.956 268.02 
C 277.956 265.384942 276.90908 262.857454 275.045813 260.994187 
C 273.182546 259.13092 270.655058 258.084 268.02 258.084 
C 265.384942 258.084 262.857454 259.13092 260.994187 260.994187 
C 259.13092 262.857454 258.084 265.384942 258.084 268.02 
C 258.084 270.655058 259.13092 273.182546 260.994187 275.045813 
C 262.857454 276.90908 265.384942 277.956 268.02 277.956 
z
" style="fill: #8caed1; stroke: #8caed1; stroke-linejoin: miter"/>
   </g>
   <g id="patch_39">
    <path d="M 218.52 235.44 
L 235.44 235.44 
L 235.44 218.52 
L 218.52 218.52 
z
" style="fill: #2967a9; stroke: #2967a9; stroke-width: 4"/>
   </g>
   <g id="patch_40">
    <path d="M 340.02 277.956 
C 342.655058 277.956 345.182546 276.90908 347.045813 275.045813 
C 348.90908 273.182546 349.956 270.655058 349.956 268.02 
C 349.956 265.384942 348.90908 262.857454 347.045813 260.994187 
C 345.182546 259.13092 342.655058 258.084 340.02 258.084 
C 337.384942 258.084 334.857454 259.13092 332.994187 260.994187 
C 331.13092 262.857454 330.084 265.384942 330.084 268.02 
C 330.084 270.655058 331.13092 273.182546 332.994187 275.045813 
C 334.857454 276.90908 337.384942 277.956 340.02 277.956 
z
" style="fill: #8caed1; stroke: #8caed1; stroke-linejoin: miter"/>
   </g>
   <g id="patch_41">
    <path d="M 290.52 235.44 
L 307.44 235.44 
L 307.44 218.52 
L 290.52 218.52 
z
" style="fill: #2967a9; stroke: #2967a9; stroke-width: 4"/>
   </g>
   <g id="patch_42">
    <path d="M 52.02 349.956 
C 54.655058 349.956 57.182546 348.90908 59.045813 347.045813 
C 60.90908 345.182546 61.956 342.655058 61.956 340.02 
C 61.956 337.384942 60.90908 334.857454 59.045813 332.994187 
C 57.182546 331.13092 54.655058 330.084 52.02 330.084 
C 49.384942 330.084 46.857454 331.13092 44.994187 332.994187 
C 43.13092 334.857454 42.084 337.384942 42.084 340.02 
C 42.084 342.655058 43.13092 345.182546 44.994187 347.045813 
C 46.857454 348.90908 49.384942 349.956 52.02 349.956 
z
" style="fill: #8caed1; stroke: #8caed1; stroke-linejoin: miter"/>
   </g>
   <g id="patch_43">
    <path d="M 2.52 307.44 
L 19.44 307.44 
L 19.44 290.52 
L 2.52 290.52 
z
" style="fill: #2967a9; stroke: #2967a9; stroke-width: 4"/>
   </g>
   <g id="patch_44">
    <path d="M 124.02 349.956 
C 126.655058 349.956 129.182546 348.90908 131.045813 347.045813 
C 132.90908 345.182546 133.956 342.655058 133.956 340.02 
C 133.956 337.384942 132.90908 334.857454 131.045813 332.994187 
C 129.182546 331.13092 126.655058 330.084 124.02 330.084 
C 121.384942 330.084 118.857454 331.13092 116.994187 332.994187 
C 115.13092 334.857454 114.084 337.384942 114.084 340.02 
C 114.084 342.655058 115.13092 345.182546 116.994187 347.045813 
C 118.857454 348.90908 121.384942 349.956 124.02 349.956 
z
" style="fill: #8caed1; stroke: #8caed1; stroke-linejoin: miter"/>
   </g>
   <g id="patch_45">
    <path d="M 74.52 307.44 
L 91.44 307.44 
L 91.44 290.52 
L 74.52 290.52 
z
" style="fill: #2967a9; stroke: #2967a9; stroke-width: 4"/>
   </g>
   <g id="patch_46">
    <path d="M 196.02 349.956 
C 198.655058 349.956 201.182546 348.90908 203.045813 347.045813 
C 204.90908 345.182546 205.956 342.655058 205.956 340.02 
C 205.956 337.384942 204.90908 334.857454 203.045813 332.994187 
C 201.182546 331.13092 198.655058 330.084 196.02 330.084 
C 193.384942 330.084 190.857454 331.13092 188.994187 332.994187 
C 187.13092 334.857454 186.084 337.384942 186.084 340.02 
C 186.084 342.655058 187.13092 345.182546 188.994187 347.045813 
C 190.857454 348.90908 193.384942 349.956 196.02 349.956 
z
" style="fill: #8caed1; stroke: #8caed1; stroke-linejoin: miter"/>
   </g>
   <g id="patch_47">
    <path d="M 146.52 307.44 
L 163.44 307.44 
L 163.44 290.52 
L 146.52 290.52 
z
" style="fill: #2967a9; stroke: #2967a9; stroke-width: 4"/>
   </g>
   <g id="patch_48">
    <path d="M 268.02 349.956 
C 270.655058 349.956 273.182546 348.90908 275.045813 347.045813 
C 276.90908 345.182546 277.956 342.655058 277.956 340.02 
C 277.956 337.384942 276.90908 334.857454 275.045813 332.994187 
C 273.182546 331.13092 270.655058 330.084 268.02 330.084 
C 265.384942 330.084 262.857454 331.13092 260.994187 332.994187 
C 259.13092 334.857454 258.084 337.384942 258.084 340.02 
C 258.084 342.655058 259.13092 345.182546 260.994187 347.045813 
C 262.857454 348.90908 265.384942 349.956 268.02 349.956 
z
" style="fill: #8caed1; stroke: #8caed1; stroke-linejoin: miter"/>
   </g>
   <g id="patch_49">
    <path d="M 218.52 307.44 
L 235.44 307.44 
L 235.44 290.52 
L 218.52 290.52 
z
" style="fill: #2967a9; stroke: #2967a9; stroke-width: 4"/>
   </g>
   <g id="patch_50">
    <path d="M 340.02 349.956 
C 342.655058 349.956 345.182546 348.90908 347.045813 347.045813 
C 348.90908 345.182546 349.956 342.655058 349.956 340.02 
C 349.956 337.384942 348.90908 334.857454 347.045813 332.994187 
C 345.182546 331.13092 342.655058 330.084 340.02 330.084 
C 337.384942 330.084 334.857454 331.13092 332.994187 332.994187 
C 331.13092 334.857454 330.084 337.384942 330.084 340.02 
C 330.084 342.655058 331.13092 345.182546 332.994187 347.045813 
C 334.857454 348.90908 337.384942 349.956 340.02 349.956 
z
" style="fill: #8caed1; stroke: #8caed1; stroke-linejoin: miter"/>
   </g>
   <g id="patch_51">
    <path d="M 290.52 307.44 
L 307.44 307.44 
L 307.44 290.52 
L 290.52 290.52 
z
" style="fill: #2967a9; stroke: #2967a9; stroke-width: 4"/>
   </g>
   <g id="patch_52">
    <path d="M 41.987475 44.721767 
Q 29.759909 35.027138 20.583952 23.854483 
" clip-path="url(#p9d1f16bcb0)" style="fill: none; stroke: #bfc6c9; stroke-linecap: round"/>
    <path d="M 21.626745 28.432974 
L 20.583952 23.854483 
L 24.872421 25.767343 
" clip-path="url(#p9d1f16bcb0)" style="fill: none; stroke: #bfc6c9; stroke-linecap: round"/>
   </g>
   <g id="patch_53">
    <path d="M 64.263807 49.987658 
Q 88.022089 46.852067 110.671952 49.841895 
" clip-path="url(#p9d1f16bcb0)" style="fill: none; stroke: #bfc6c9; stroke-linecap: round"/>
    <path d="M 106.782893 47.210315 
L 110.671952 49.841895 
L 106.233252 51.374195 
" clip-path="url(#p9d1f16bcb0)" style="fill: none; stroke: #bfc6c9; stroke-linecap: round"/>
   </g>
   <g id="patch_54">
    <path d="M 54.052342 64.263807 
Q 57.187933 88.022089 54.198105 110.671952 
" clip-path="url(#p9d1f16bcb0)" style="fill: none; stroke: #bfc6c9; stroke-linecap: round"/>
    <path d="M 56.829685 106.782893 
L 54.198105 110.671952 
L 52.665805 106.233252 
" clip-path="url(#p9d1f16bcb0)" style="fill: none; stroke: #bfc6c9; stroke-linecap: round"/>
   </g>
   <g id="patch_55">
    <path d="M 22.998379 19.880845 
Q 35.02866 29.762558 44.024471 41.108047 
" clip-path="url(#p9d1f16bcb0)" style="fill: none; stroke: #bfc6c9; stroke-linecap: round"/>
    <path d="M 43.060539 36.512306 
L 44.024471 41.108047 
L 39.769519 39.121748 
" clip-path="url(#p9d1f16bcb0)" style="fill: none; stroke: #bfc6c9; stroke-linecap: round"/>
   </g>
   <g id="patch_56">
    <path d="M 113.987475 44.721767 
Q 101.759909 35.027138 92.583952 23.854483 
" clip-path="url(#p9d1f16bcb0)" style="fill: none; stroke: #bfc6c9; stroke-linecap: round"/>
    <path d="M 93.626745 28.432974 
L 92.583952 23.854483 
L 96.872421 25.767343 
" clip-path="url(#p9d1f16bcb0)" style="fill: none; stroke: #bfc6c9; stroke-linecap: round"/>
   </g>
   <g id="patch_57">
    <path d="M 136.263807 49.987658 
Q 160.022089 46.852067 182.671952 49.841895 
" clip-path="url(#p9d1f16bcb0)" style="fill: none; stroke: #bfc6c9; stroke-linecap: round"/>
    <path d="M 178.782893 47.210315 
L 182.671952 49.841895 
L 178.233252 51.374195 
" clip-path="url(#p9d1f16bcb0)" style="fill: none; stroke: #bfc6c9; stroke-linecap: round"/>
   </g>
   <g id="patch_58">
    <path d="M 111.776193 54.052342 
Q 88.017911 57.187933 65.368048 54.198105 
" clip-path="url(#p9d1f16bcb0)" style="fill: none; stroke: #bfc6c9; stroke-linecap: round"/>
    <path d="M 69.257107 56.829685 
L 65.368048 54.198105 
L 69.806748 52.665805 
" clip-path="url(#p9d1f16bcb0)" style="fill: none; stroke: #bfc6c9; stroke-linecap: round"/>
   </g>
   <g id="patch_59">
    <path d="M 94.998379 19.880845 
Q 107.02866 29.762558 116.024471 41.108047 
" clip-path="url(#p9d1f16bcb0)" style="fill: none; stroke: #bfc6c9; stroke-linecap: round"/>
    <path d="M 115.060539 36.512306 
L 116.024471 41.108047 
L 111.769519 39.121748 
" clip-path="url(#p9d1f16bcb0)" style="fill: none; stroke: #bfc6c9; stroke-linecap: round"/>
   </g>
   <g id="patch_60">
    <path d="M 185.987475 44.721767 
Q 173.759909 35.027138 164.583952 23.854483 
" clip-path="url(#p9d1f16bcb0)" style="fill: none; stroke: #bfc6c9; stroke-linecap: round"/>
    <path d="M 165.626745 28.432974 
L 164.583952 23.854483 
L 168.872421 25.767343 
" clip-path="url(#p9d1f16bcb0)" style="fill: none; stroke: #bfc6c9; stroke-linecap: round"/>
   </g>
   <g id="patch_61">
    <path d="M 208.263807 49.987658 
Q 232.022089 46.852067 254.671952 49.841895 
" clip-path="url(#p9d1f16bcb0)" style="fill: none; stroke: #bfc6c9; stroke-linecap: round"/>
    <path d="M 250.782893 47.210315 
L 254.671952 49.841895 
L 250.233252 51.374195 
" clip-path="url(#p9d1f16bcb0)" style="fill: none; stroke: #bfc6c9; stroke-linecap: round"/>
   </g>
   <g id="patch_62">
    <path d="M 183.776193 54.052342 
Q 160.017911 57.187933 137.368048 54.198105 
" clip-path="url(#p9d1f16bcb0)" style="fill: none; stroke: #bfc6c9; stroke-linecap: round"/>
    <path d="M 141.257107 56.829685 
L 137.368048 54.198105 
L 141.806748 52.665805 
" clip-path="url(#p9d1f16bcb0)" style="fill: none; stroke: #bfc6c9; stroke-linecap: round"/>
   </g>
   <g id="patch_63">
    <path d="M 166.998379 19.880845 
Q 179.02866 29.762558 188.024471 41.108047 
" clip-path="url(#p9d1f16bcb0)" style="fill: none; stroke: #bfc6c9; stroke-linecap: round"/>
    <path d="M 187.060539 36.512306 
L 188.024471 41.108047 
L 183.769519 39.121748 
" clip-path="url(#p9d1f16bcb0)" style="fill: none; stroke: #bfc6c9; stroke-linecap: round"/>
   </g>
   <g id="patch_64">
    <path d="M 257.987475 44.721767 
Q 245.759909 35.027138 236.583952 23.854483 
" clip-path="url(#p9d1f16bcb0)" style="fill: none; stroke: #bfc6c9; stroke-linecap: round"/>
    <path d="M 237.626745 28.432974 
L 236.583952 23.854483 
L 240.872421 25.767343 
" clip-path="url(#p9d1f16bcb0)" style="fill: none; stroke: #bfc6c9; stroke-linecap: round"/>
   </g>
   <g id="patch_65">
    <path d="M 280.263807 49.987658 
Q 304.022089 46.852067 326.671952 49.841895 
" clip-path="url(#p9d1f16bcb0)" style="fill: none; stroke: #bfc6c9; stroke-linecap: round"/>
    <path d="M 322.782893 47.210315 
L 326.671952 49.841895 
L 322.233252 51.374195 
" clip-path="url(#p9d1f16bcb0)" style="fill: none; stroke: #bfc6c9; stroke-linecap: round"/>
   </g>
   <g id="patch_66">
    <path d="M 255.776193 54.052342 
Q 232.017911 57.187933 209.368048 54.198105 
" clip-path="url(#p9d1f16bcb0)" style="fill: none; stroke: #bfc6c9; stroke-linecap: round"/>
    <path d="M 213.257107 56.829685 
L 209.368048 54.198105 
L 213.806748 52.665805 
" clip-path="url(#p9d1f16bcb0)" style="fill: none; stroke: #bfc6c9; stroke-linecap: round"/>
   </g>
   <g id="patch_67">
    <path d="M 238.998379 19.880845 
Q 251.02866 29.762558 260.024471 41.108047 
" clip-path="url(#p9d1f16bcb0)" style="fill: none; stroke: #bfc6c9; stroke-linecap: round"/>
    <path d="M 259.060539 36.512306 
L 260.024471 41.108047 
L 255.769519 39.121748 
" clip-path="url(#p9d1f16bcb0)" style="fill: none; stroke: #bfc6c9; stroke-linecap: round"/>
   </g>
   <g id="patch_68">
    <path d="M 329.987475 44.721767 
Q 317.759909 35.027138 308.583952 23.854483 
" clip-path="url(#p9d1f16bcb0)" style="fill: none; stroke: #bfc6c9; stroke-linecap: round"/>
    <path d="M 309.626745 28.432974 
L 308.583952 23.854483 
L 312.872421 25.767343 
" clip-path="url(#p9d1f16bcb0)" style="fill: none; stroke: #bfc6c9; stroke-linecap: round"/>
   </g>
   <g id="patch_69">
    <path d="M 327.776193 54.052342 
Q 304.017911 57.187933 281.368048 54.198105 
" clip-path="url(#p9d1f16bcb0)" style="fill: none; stroke: #bfc6c9; stroke-linecap: round"/>
    <path d="M 285.257107 56.829685 
L 281.368048 54.198105 
L 285.806748 52.665805 
" clip-path="url(#p9d1f16bcb0)" style="fill: none; stroke: #bfc6c9; stroke-linecap: round"/>
   </g>
   <g id="patch_70">
    <path d="M 342.052342 64.263807 
Q 345.187933 88.022089 342.198105 110.671952 
" clip-path="url(#p9d1f16bcb0)" style="fill: none; stroke: #bfc6c9; stroke-linecap: round"/>
    <path d="M 344.829685 106.782893 
L 342.198105 110.671952 
L 340.665805 106.233252 
" clip-path="url(#p9d1f16bcb0)" style="fill: none; stroke: #bfc6c9; stroke-linecap: round"/>
   </g>
   <g id="patch_71">
    <path d="M 310.998379 19.880845 
Q 323.02866 29.762558 332.024471 41.108047 
" clip-path="url(#p9d1f16bcb0)" style="fill: none; stroke: #bfc6c9; stroke-linecap: round"/>
    <path d="M 331.060539 36.512306 
L 332.024471 41.108047 
L 327.769519 39.121748 
" clip-path="url(#p9d1f16bcb0)" style="fill: none; stroke: #bfc6c9; stroke-linecap: round"/>
   </g>
   <g id="patch_72">
    <path d="M 41.987475 116.721767 
Q 29.759909 107.027138 20.583952 95.854483 
" clip-path="url(#p9d1f16bcb0)" style="fill: none; stroke: #bfc6c9; stroke-linecap: round"/>
    <path d="M 21.626745 100.432974 
L 20.583952 95.854483 
L 24.872421 97.767343 
" clip-path="url(#p9d1f16bcb0)" style="fill: none; stroke: #bfc6c9; stroke-linecap: round"/>
   </g>
   <g id="patch_73">
    <path d="M 64.263807 121.987658 
Q 88.022089 118.852067 110.671952 121.841895 
" clip-path="url(#p9d1f16bcb0)" style="fill: none; stroke: #bfc6c9; stroke-linecap: round"/>
    <path d="M 106.782893 119.210315 
L 110.671952 121.841895 
L 106.233252 123.374195 
" clip-path="url(#p9d1f16bcb0)" style="fill: none; stroke: #bfc6c9; stroke-linecap: round"/>
   </g>
   <g id="patch_74">
    <path d="M 54.052342 136.263807 
Q 57.187933 160.022089 54.198105 182.671952 
" clip-path="url(#p9d1f16bcb0)" style="fill: none; stroke: #bfc6c9; stroke-linecap: round"/>
    <path d="M 56.829685 178.782893 
L 54.198105 182.671952 
L 52.665805 178.233252 
" clip-path="url(#p9d1f16bcb0)" style="fill: none; stroke: #bfc6c9; stroke-linecap: round"/>
   </g>
   <g id="patch_75">
    <path d="M 49.987658 111.776193 
Q 46.852067 88.017911 49.841895 65.368048 
" clip-path="url(#p9d1f16bcb0)" style="fill: none; stroke: #bfc6c9; stroke-linecap: round"/>
    <path d="M 47.210315 69.257107 
L 49.841895 65.368048 
L 51.374195 69.806748 
" clip-path="url(#p9d1f16bcb0)" style="fill: none; stroke: #bfc6c9; stroke-linecap: round"/>
   </g>
   <g id="patch_76">
    <path d="M 22.998379 91.880845 
Q 35.02866 101.762558 44.024471 113.108047 
" clip-path="url(#p9d1f16bcb0)" style="fill: none; stroke: #bfc6c9; stroke-linecap: round"/>
    <path d="M 43.060539 108.512306 
L 44.024471 113.108047 
L 39.769519 111.121748 
" clip-path="url(#p9d1f16bcb0)" style="fill: none; stroke: #bfc6c9; stroke-linecap: round"/>
   </g>
   <g id="patch_77">
    <path d="M 113.987475 116.721767 
Q 101.759909 107.027138 92.583952 95.854483 
" clip-path="url(#p9d1f16bcb0)" style="fill: none; stroke: #bfc6c9; stroke-linecap: round"/>
    <path d="M 93.626745 100.432974 
L 92.583952 95.854483 
L 96.872421 97.767343 
" clip-path="url(#p9d1f16bcb0)" style="fill: none; stroke: #bfc6c9; stroke-linecap: round"/>
   </g>
   <g id="patch_78">
    <path d="M 136.263807 121.987658 
Q 160.022089 118.852067 182.671952 121.841895 
" clip-path="url(#p9d1f16bcb0)" style="fill: none; stroke: #bfc6c9; stroke-linecap: round"/>
    <path d="M 178.782893 119.210315 
L 182.671952 121.841895 
L 178.233252 123.374195 
" clip-path="url(#p9d1f16bcb0)" style="fill: none; stroke: #bfc6c9; stroke-linecap: round"/>
   </g>
   <g id="patch_79">
    <path d="M 111.776193 126.052342 
Q 88.017911 129.187933 65.368048 126.198105 
" clip-path="url(#p9d1f16bcb0)" style="fill: none; stroke: #bfc6c9; stroke-linecap: round"/>
    <path d="M 69.257107 128.829685 
L 65.368048 126.198105 
L 69.806748 124.665805 
" clip-path="url(#p9d1f16bcb0)" style="fill: none; stroke: #bfc6c9; stroke-linecap: round"/>
   </g>
   <g id="patch_80">
    <path d="M 94.998379 91.880845 
Q 107.02866 101.762558 116.024471 113.108047 
" clip-path="url(#p9d1f16bcb0)" style="fill: none; stroke: #bfc6c9; stroke-linecap: round"/>
    <path d="M 115.060539 108.512306 
L 116.024471 113.108047 
L 111.769519 111.121748 
" clip-path="url(#p9d1f16bcb0)" style="fill: none; stroke: #bfc6c9; stroke-linecap: round"/>
   </g>
   <g id="patch_81">
    <path d="M 185.987475 116.721767 
Q 173.759909 107.027138 164.583952 95.854483 
" clip-path="url(#p9d1f16bcb0)" style="fill: none; stroke: #bfc6c9; stroke-linecap: round"/>
    <path d="M 165.626745 100.432974 
L 164.583952 95.854483 
L 168.872421 97.767343 
" clip-path="url(#p9d1f16bcb0)" style="fill: none; stroke: #bfc6c9; stroke-linecap: round"/>
   </g>
   <g id="patch_82">
    <path d="M 208.263807 121.987658 
Q 232.022089 118.852067 254.671952 121.841895 
" clip-path="url(#p9d1f16bcb0)" style="fill: none; stroke: #bfc6c9; stroke-linecap: round"/>
    <path d="M 250.782893 119.210315 
L 254.671952 121.841895 
L 250.233252 123.374195 
" clip-path="url(#p9d1f16bcb0)" style="fill: none; stroke: #bfc6c9; stroke-linecap: round"/>
   </g>
   <g id="patch_83">
    <path d="M 183.776193 126.052342 
Q 160.017911 129.187933 137.368048 126.198105 
" clip-path="url(#p9d1f16bcb0)" style="fill: none; stroke: #bfc6c9; stroke-linecap: round"/>
    <path d="M 141.257107 128.829685 
L 137.368048 126.198105 
L 141.806748 124.665805 
" clip-path="url(#p9d1f16bcb0)" style="fill: none; stroke: #bfc6c9; stroke-linecap: round"/>
   </g>
   <g id="patch_84">
    <path d="M 166.998379 91.880845 
Q 179.02866 101.762558 188.024471 113.108047 
" clip-path="url(#p9d1f16bcb0)" style="fill: none; stroke: #bfc6c9; stroke-linecap: round"/>
    <path d="M 187.060539 108.512306 
L 188.024471 113.108047 
L 183.769519 111.121748 
" clip-path="url(#p9d1f16bcb0)" style="fill: none; stroke: #bfc6c9; stroke-linecap: round"/>
   </g>
   <g id="patch_85">
    <path d="M 257.987475 116.721767 
Q 245.759909 107.027138 236.583952 95.854483 
" clip-path="url(#p9d1f16bcb0)" style="fill: none; stroke: #bfc6c9; stroke-linecap: round"/>
    <path d="M 237.626745 100.432974 
L 236.583952 95.854483 
L 240.872421 97.767343 
" clip-path="url(#p9d1f16bcb0)" style="fill: none; stroke: #bfc6c9; stroke-linecap: round"/>
   </g>
   <g id="patch_86">
    <path d="M 280.263807 121.987658 
Q 304.022089 118.852067 326.671952 121.841895 
" clip-path="url(#p9d1f16bcb0)" style="fill: none; stroke: #bfc6c9; stroke-linecap: round"/>
    <path d="M 322.782893 119.210315 
L 326.671952 121.841895 
L 322.233252 123.374195 
" clip-path="url(#p9d1f16bcb0)" style="fill: none; stroke: #bfc6c9; stroke-linecap: round"/>
   </g>
   <g id="patch_87">
    <path d="M 255.776193 126.052342 
Q 232.017911 129.187933 209.368048 126.198105 
" clip-path="url(#p9d1f16bcb0)" style="fill: none; stroke: #bfc6c9; stroke-linecap: round"/>
    <path d="M 213.257107 128.829685 
L 209.368048 126.198105 
L 213.806748 124.665805 
" clip-path="url(#p9d1f16bcb0)" style="fill: none; stroke: #bfc6c9; stroke-linecap: round"/>
   </g>
   <g id="patch_88">
    <path d="M 238.998379 91.880845 
Q 251.02866 101.762558 260.024471 113.108047 
" clip-path="url(#p9d1f16bcb0)" style="fill: none; stroke: #bfc6c9; stroke-linecap: round"/>
    <path d="M 259.060539 108.512306 
L 260.024471 113.108047 
L 255.769519 111.121748 
" clip-path="url(#p9d1f16bcb0)" style="fill: none; stroke: #bfc6c9; stroke-linecap: round"/>
   </g>
   <g id="patch_89">
    <path d="M 329.987475 116.721767 
Q 317.759909 107.027138 308.583952 95.854483 
" clip-path="url(#p9d1f16bcb0)" style="fill: none; stroke: #bfc6c9; stroke-linecap: round"/>
    <path d="M 309.626745 100.432974 
L 308.583952 95.854483 
L 312.872421 97.767343 
" clip-path="url(#p9d1f16bcb0)" style="fill: none; stroke: #bfc6c9; stroke-linecap: round"/>
   </g>
   <g id="patch_90">
    <path d="M 327.776193 126.052342 
Q 304.017911 129.187933 281.368048 126.198105 
" clip-path="url(#p9d1f16bcb0)" style="fill: none; stroke: #bfc6c9; stroke-linecap: round"/>
    <path d="M 285.257107 128.829685 
L 281.368048 126.198105 
L 285.806748 124.665805 
" clip-path="url(#p9d1f16bcb0)" style="fill: none; stroke: #bfc6c9; stroke-linecap: round"/>
   </g>
   <g id="patch_91">
    <path d="M 342.052342 136.263807 
Q 345.187933 160.022089 342.198105 182.671952 
" clip-path="url(#p9d1f16bcb0)" style="fill: none; stroke: #bfc6c9; stroke-linecap: round"/>
    <path d="M 344.829685 178.782893 
L 342.198105 182.671952 
L 340.665805 178.233252 
" clip-path="url(#p9d1f16bcb0)" style="fill: none; stroke: #bfc6c9; stroke-linecap: round"/>
   </g>
   <g id="patch_92">
    <path d="M 337.987658 111.776193 
Q 334.852067 88.017911 337.841895 65.368048 
" clip-path="url(#p9d1f16bcb0)" style="fill: none; stroke: #bfc6c9; stroke-linecap: round"/>
    <path d="M 335.210315 69.257107 
L 337.841895 65.368048 
L 339.374195 69.806748 
" clip-path="url(#p9d1f16bcb0)" style="fill: none; stroke: #bfc6c9; stroke-linecap: round"/>
   </g>
   <g id="patch_93">
    <path d="M 310.998379 91.880845 
Q 323.02866 101.762558 332.024471 113.108047 
" clip-path="url(#p9d1f16bcb0)" style="fill: none; stroke: #bfc6c9; stroke-linecap: round"/>
    <path d="M 331.060539 108.512306 
L 332.024471 113.108047 
L 327.769519 111.121748 
" clip-path="url(#p9d1f16bcb0)" style="fill: none; stroke: #bfc6c9; stroke-linecap: round"/>
   </g>
   <g id="patch_94">
    <path d="M 41.987475 188.721767 
Q 29.759909 179.027138 20.583952 167.854483 
" clip-path="url(#p9d1f16bcb0)" style="fill: none; stroke: #bfc6c9; stroke-linecap: round"/>
    <path d="M 21.626745 172.432974 
L 20.583952 167.854483 
L 24.872421 169.767343 
" clip-path="url(#p9d1f16bcb0)" style="fill: none; stroke: #bfc6c9; stroke-linecap: round"/>
   </g>
   <g id="patch_95">
    <path d="M 64.263807 193.987658 
Q 88.022089 190.852067 110.671952 193.841895 
" clip-path="url(#p9d1f16bcb0)" style="fill: none; stroke: #bfc6c9; stroke-linecap: round"/>
    <path d="M 106.782893 191.210315 
L 110.671952 193.841895 
L 106.233252 195.374195 
" clip-path="url(#p9d1f16bcb0)" style="fill: none; stroke: #bfc6c9; stroke-linecap: round"/>
   </g>
   <g id="patch_96">
    <path d="M 54.052342 208.263807 
Q 57.187933 232.022089 54.198105 254.671952 
" clip-path="url(#p9d1f16bcb0)" style="fill: none; stroke: #bfc6c9; stroke-linecap: round"/>
    <path d="M 56.829685 250.782893 
L 54.198105 254.671952 
L 52.665805 250.233252 
" clip-path="url(#p9d1f16bcb0)" style="fill: none; stroke: #bfc6c9; stroke-linecap: round"/>
   </g>
   <g id="patch_97">
    <path d="M 49.987658 183.776193 
Q 46.852067 160.017911 49.841895 137.368048 
" clip-path="url(#p9d1f16bcb0)" style="fill: none; stroke: #bfc6c9; stroke-linecap: round"/>
    <path d="M 47.210315 141.257107 
L 49.841895 137.368048 
L 51.374195 141.806748 
" clip-path="url(#p9d1f16bcb0)" style="fill: none; stroke: #bfc6c9; stroke-linecap: round"/>
   </g>
   <g id="patch_98">
    <path d="M 22.998379 163.880845 
Q 35.02866 173.762558 44.024471 185.108047 
" clip-path="url(#p9d1f16bcb0)" style="fill: none; stroke: #bfc6c9; stroke-linecap: round"/>
    <path d="M 43.060539 180.512306 
L 44.024471 185.108047 
L 39.769519 183.121748 
" clip-path="url(#p9d1f16bcb0)" style="fill: none; stroke: #bfc6c9; stroke-linecap: round"/>
   </g>
   <g id="patch_99">
    <path d="M 113.987475 188.721767 
Q 101.759909 179.027138 92.583952 167.854483 
" clip-path="url(#p9d1f16bcb0)" style="fill: none; stroke: #bfc6c9; stroke-linecap: round"/>
    <path d="M 93.626745 172.432974 
L 92.583952 167.854483 
L 96.872421 169.767343 
" clip-path="url(#p9d1f16bcb0)" style="fill: none; stroke: #bfc6c9; stroke-linecap: round"/>
   </g>
   <g id="patch_100">
    <path d="M 136.263807 193.987658 
Q 160.022089 190.852067 182.671952 193.841895 
" clip-path="url(#p9d1f16bcb0)" style="fill: none; stroke: #bfc6c9; stroke-linecap: round"/>
    <path d="M 178.782893 191.210315 
L 182.671952 193.841895 
L 178.233252 195.374195 
" clip-path="url(#p9d1f16bcb0)" style="fill: none; stroke: #bfc6c9; stroke-linecap: round"/>
   </g>
   <g id="patch_101">
    <path d="M 111.776193 198.052342 
Q 88.017911 201.187933 65.368048 198.198105 
" clip-path="url(#p9d1f16bcb0)" style="fill: none; stroke: #bfc6c9; stroke-linecap: round"/>
    <path d="M 69.257107 200.829685 
L 65.368048 198.198105 
L 69.806748 196.665805 
" clip-path="url(#p9d1f16bcb0)" style="fill: none; stroke: #bfc6c9; stroke-linecap: round"/>
   </g>
   <g id="patch_102">
    <path d="M 94.998379 163.880845 
Q 107.02866 173.762558 116.024471 185.108047 
" clip-path="url(#p9d1f16bcb0)" style="fill: none; stroke: #bfc6c9; stroke-linecap: round"/>
    <path d="M 115.060539 180.512306 
L 116.024471 185.108047 
L 111.769519 183.121748 
" clip-path="url(#p9d1f16bcb0)" style="fill: none; stroke: #bfc6c9; stroke-linecap: round"/>
   </g>
   <g id="patch_103">
    <path d="M 185.987475 188.721767 
Q 173.759909 179.027138 164.583952 167.854483 
" clip-path="url(#p9d1f16bcb0)" style="fill: none; stroke: #bfc6c9; stroke-linecap: round"/>
    <path d="M 165.626745 172.432974 
L 164.583952 167.854483 
L 168.872421 169.767343 
" clip-path="url(#p9d1f16bcb0)" style="fill: none; stroke: #bfc6c9; stroke-linecap: round"/>
   </g>
   <g id="patch_104">
    <path d="M 208.263807 193.987658 
Q 232.022089 190.852067 254.671952 193.841895 
" clip-path="url(#p9d1f16bcb0)" style="fill: none; stroke: #bfc6c9; stroke-linecap: round"/>
    <path d="M 250.782893 191.210315 
L 254.671952 193.841895 
L 250.233252 195.374195 
" clip-path="url(#p9d1f16bcb0)" style="fill: none; stroke: #bfc6c9; stroke-linecap: round"/>
   </g>
   <g id="patch_105">
    <path d="M 183.776193 198.052342 
Q 160.017911 201.187933 137.368048 198.198105 
" clip-path="url(#p9d1f16bcb0)" style="fill: none; stroke: #bfc6c9; stroke-linecap: round"/>
    <path d="M 141.257107 200.829685 
L 137.368048 198.198105 
L 141.806748 196.665805 
" clip-path="url(#p9d1f16bcb0)" style="fill: none; stroke: #bfc6c9; stroke-linecap: round"/>
   </g>
   <g id="patch_106">
    <path d="M 166.998379 163.880845 
Q 179.02866 173.762558 188.024471 185.108047 
" clip-path="url(#p9d1f16bcb0)" style="fill: none; stroke: #bfc6c9; stroke-linecap: round"/>
    <path d="M 187.060539 180.512306 
L 188.024471 185.108047 
L 183.769519 183.121748 
" clip-path="url(#p9d1f16bcb0)" style="fill: none; stroke: #bfc6c9; stroke-linecap: round"/>
   </g>
   <g id="patch_107">
    <path d="M 257.987475 188.721767 
Q 245.759909 179.027138 236.583952 167.854483 
" clip-path="url(#p9d1f16bcb0)" style="fill: none; stroke: #bfc6c9; stroke-linecap: round"/>
    <path d="M 237.626745 172.432974 
L 236.583952 167.854483 
L 240.872421 169.767343 
" clip-path="url(#p9d1f16bcb0)" style="fill: none; stroke: #bfc6c9; stroke-linecap: round"/>
   </g>
   <g id="patch_108">
    <path d="M 280.263807 193.987658 
Q 304.022089 190.852067 326.671952 193.841895 
" clip-path="url(#p9d1f16bcb0)" style="fill: none; stroke: #bfc6c9; stroke-linecap: round"/>
    <path d="M 322.782893 191.210315 
L 326.671952 193.841895 
L 322.233252 195.374195 
" clip-path="url(#p9d1f16bcb0)" style="fill: none; stroke: #bfc6c9; stroke-linecap: round"/>
   </g>
   <g id="patch_109">
    <path d="M 255.776193 198.052342 
Q 232.017911 201.187933 209.368048 198.198105 
" clip-path="url(#p9d1f16bcb0)" style="fill: none; stroke: #bfc6c9; stroke-linecap: round"/>
    <path d="M 213.257107 200.829685 
L 209.368048 198.198105 
L 213.806748 196.665805 
" clip-path="url(#p9d1f16bcb0)" style="fill: none; stroke: #bfc6c9; stroke-linecap: round"/>
   </g>
   <g id="patch_110">
    <path d="M 238.998379 163.880845 
Q 251.02866 173.762558 260.024471 185.108047 
" clip-path="url(#p9d1f16bcb0)" style="fill: none; stroke: #bfc6c9; stroke-linecap: round"/>
    <path d="M 259.060539 180.512306 
L 260.024471 185.108047 
L 255.769519 183.121748 
" clip-path="url(#p9d1f16bcb0)" style="fill: none; stroke: #bfc6c9; stroke-linecap: round"/>
   </g>
   <g id="patch_111">
    <path d="M 329.987475 188.721767 
Q 317.759909 179.027138 308.583952 167.854483 
" clip-path="url(#p9d1f16bcb0)" style="fill: none; stroke: #bfc6c9; stroke-linecap: round"/>
    <path d="M 309.626745 172.432974 
L 308.583952 167.854483 
L 312.872421 169.767343 
" clip-path="url(#p9d1f16bcb0)" style="fill: none; stroke: #bfc6c9; stroke-linecap: round"/>
   </g>
   <g id="patch_112">
    <path d="M 327.776193 198.052342 
Q 304.017911 201.187933 281.368048 198.198105 
" clip-path="url(#p9d1f16bcb0)" style="fill: none; stroke: #bfc6c9; stroke-linecap: round"/>
    <path d="M 285.257107 200.829685 
L 281.368048 198.198105 
L 285.806748 196.665805 
" clip-path="url(#p9d1f16bcb0)" style="fill: none; stroke: #bfc6c9; stroke-linecap: round"/>
   </g>
   <g id="patch_113">
    <path d="M 342.052342 208.263807 
Q 345.187933 232.022089 342.198105 254.671952 
" clip-path="url(#p9d1f16bcb0)" style="fill: none; stroke: #bfc6c9; stroke-linecap: round"/>
    <path d="M 344.829685 250.782893 
L 342.198105 254.671952 
L 340.665805 250.233252 
" clip-path="url(#p9d1f16bcb0)" style="fill: none; stroke: #bfc6c9; stroke-linecap: round"/>
   </g>
   <g id="patch_114">
    <path d="M 337.987658 183.776193 
Q 334.852067 160.017911 337.841895 137.368048 
" clip-path="url(#p9d1f16bcb0)" style="fill: none; stroke: #bfc6c9; stroke-linecap: round"/>
    <path d="M 335.210315 141.257107 
L 337.841895 137.368048 
L 339.374195 141.806748 
" clip-path="url(#p9d1f16bcb0)" style="fill: none; stroke: #bfc6c9; stroke-linecap: round"/>
   </g>
   <g id="patch_115">
    <path d="M 310.998379 163.880845 
Q 323.02866 173.762558 332.024471 185.108047 
" clip-path="url(#p9d1f16bcb0)" style="fill: none; stroke: #bfc6c9; stroke-linecap: round"/>
    <path d="M 331.060539 180.512306 
L 332.024471 185.108047 
L 327.769519 183.121748 
" clip-path="url(#p9d1f16bcb0)" style="fill: none; stroke: #bfc6c9; stroke-linecap: round"/>
   </g>
   <g id="patch_116">
    <path d="M 41.987475 260.721767 
Q 29.759909 251.027138 20.583952 239.854483 
" clip-path="url(#p9d1f16bcb0)" style="fill: none; stroke: #bfc6c9; stroke-linecap: round"/>
    <path d="M 21.626745 244.432974 
L 20.583952 239.854483 
L 24.872421 241.767343 
" clip-path="url(#p9d1f16bcb0)" style="fill: none; stroke: #bfc6c9; stroke-linecap: round"/>
   </g>
   <g id="patch_117">
    <path d="M 64.263807 265.987658 
Q 88.022089 262.852067 110.671952 265.841895 
" clip-path="url(#p9d1f16bcb0)" style="fill: none; stroke: #bfc6c9; stroke-linecap: round"/>
    <path d="M 106.782893 263.210315 
L 110.671952 265.841895 
L 106.233252 267.374195 
" clip-path="url(#p9d1f16bcb0)" style="fill: none; stroke: #bfc6c9; stroke-linecap: round"/>
   </g>
   <g id="patch_118">
    <path d="M 54.052342 280.263807 
Q 57.187933 304.022089 54.198105 326.671952 
" clip-path="url(#p9d1f16bcb0)" style="fill: none; stroke: #bfc6c9; stroke-linecap: round"/>
    <path d="M 56.829685 322.782893 
L 54.198105 326.671952 
L 52.665805 322.233252 
" clip-path="url(#p9d1f16bcb0)" style="fill: none; stroke: #bfc6c9; stroke-linecap: round"/>
   </g>
   <g id="patch_119">
    <path d="M 49.987658 255.776193 
Q 46.852067 232.017911 49.841895 209.368048 
" clip-path="url(#p9d1f16bcb0)" style="fill: none; stroke: #bfc6c9; stroke-linecap: round"/>
    <path d="M 47.210315 213.257107 
L 49.841895 209.368048 
L 51.374195 213.806748 
" clip-path="url(#p9d1f16bcb0)" style="fill: none; stroke: #bfc6c9; stroke-linecap: round"/>
   </g>
   <g id="patch_120">
    <path d="M 22.998379 235.880845 
Q 35.02866 245.762558 44.024471 257.108047 
" clip-path="url(#p9d1f16bcb0)" style="fill: none; stroke: #bfc6c9; stroke-linecap: round"/>
    <path d="M 43.060539 252.512306 
L 44.024471 257.108047 
L 39.769519 255.121748 
" clip-path="url(#p9d1f16bcb0)" style="fill: none; stroke: #bfc6c9; stroke-linecap: round"/>
   </g>
   <g id="patch_121">
    <path d="M 113.987475 260.721767 
Q 101.759909 251.027138 92.583952 239.854483 
" clip-path="url(#p9d1f16bcb0)" style="fill: none; stroke: #bfc6c9; stroke-linecap: round"/>
    <path d="M 93.626745 244.432974 
L 92.583952 239.854483 
L 96.872421 241.767343 
" clip-path="url(#p9d1f16bcb0)" style="fill: none; stroke: #bfc6c9; stroke-linecap: round"/>
   </g>
   <g id="patch_122">
    <path d="M 136.263807 265.987658 
Q 160.022089 262.852067 182.671952 265.841895 
" clip-path="url(#p9d1f16bcb0)" style="fill: none; stroke: #bfc6c9; stroke-linecap: round"/>
    <path d="M 178.782893 263.210315 
L 182.671952 265.841895 
L 178.233252 267.374195 
" clip-path="url(#p9d1f16bcb0)" style="fill: none; stroke: #bfc6c9; stroke-linecap: round"/>
   </g>
   <g id="patch_123">
    <path d="M 111.776193 270.052342 
Q 88.017911 273.187933 65.368048 270.198105 
" clip-path="url(#p9d1f16bcb0)" style="fill: none; stroke: #bfc6c9; stroke-linecap: round"/>
    <path d="M 69.257107 272.829685 
L 65.368048 270.198105 
L 69.806748 268.665805 
" clip-path="url(#p9d1f16bcb0)" style="fill: none; stroke: #bfc6c9; stroke-linecap: round"/>
   </g>
   <g id="patch_124">
    <path d="M 94.998379 235.880845 
Q 107.02866 245.762558 116.024471 257.108047 
" clip-path="url(#p9d1f16bcb0)" style="fill: none; stroke: #bfc6c9; stroke-linecap: round"/>
    <path d="M 115.060539 252.512306 
L 116.024471 257.108047 
L 111.769519 255.121748 
" clip-path="url(#p9d1f16bcb0)" style="fill: none; stroke: #bfc6c9; stroke-linecap: round"/>
   </g>
   <g id="patch_125">
    <path d="M 185.987475 260.721767 
Q 173.759909 251.027138 164.583952 239.854483 
" clip-path="url(#p9d1f16bcb0)" style="fill: none; stroke: #bfc6c9; stroke-linecap: round"/>
    <path d="M 165.626745 244.432974 
L 164.583952 239.854483 
L 168.872421 241.767343 
" clip-path="url(#p9d1f16bcb0)" style="fill: none; stroke: #bfc6c9; stroke-linecap: round"/>
   </g>
   <g id="patch_126">
    <path d="M 208.263807 265.987658 
Q 232.022089 262.852067 254.671952 265.841895 
" clip-path="url(#p9d1f16bcb0)" style="fill: none; stroke: #bfc6c9; stroke-linecap: round"/>
    <path d="M 250.782893 263.210315 
L 254.671952 265.841895 
L 250.233252 267.374195 
" clip-path="url(#p9d1f16bcb0)" style="fill: none; stroke: #bfc6c9; stroke-linecap: round"/>
   </g>
   <g id="patch_127">
    <path d="M 183.776193 270.052342 
Q 160.017911 273.187933 137.368048 270.198105 
" clip-path="url(#p9d1f16bcb0)" style="fill: none; stroke: #bfc6c9; stroke-linecap: round"/>
    <path d="M 141.257107 272.829685 
L 137.368048 270.198105 
L 141.806748 268.665805 
" clip-path="url(#p9d1f16bcb0)" style="fill: none; stroke: #bfc6c9; stroke-linecap: round"/>
   </g>
   <g id="patch_128">
    <path d="M 166.998379 235.880845 
Q 179.02866 245.762558 188.024471 257.108047 
" clip-path="url(#p9d1f16bcb0)" style="fill: none; stroke: #bfc6c9; stroke-linecap: round"/>
    <path d="M 187.060539 252.512306 
L 188.024471 257.108047 
L 183.769519 255.121748 
" clip-path="url(#p9d1f16bcb0)" style="fill: none; stroke: #bfc6c9; stroke-linecap: round"/>
   </g>
   <g id="patch_129">
    <path d="M 257.987475 260.721767 
Q 245.759909 251.027138 236.583952 239.854483 
" clip-path="url(#p9d1f16bcb0)" style="fill: none; stroke: #bfc6c9; stroke-linecap: round"/>
    <path d="M 237.626745 244.432974 
L 236.583952 239.854483 
L 240.872421 241.767343 
" clip-path="url(#p9d1f16bcb0)" style="fill: none; stroke: #bfc6c9; stroke-linecap: round"/>
   </g>
   <g id="patch_130">
    <path d="M 280.263807 265.987658 
Q 304.022089 262.852067 326.671952 265.841895 
" clip-path="url(#p9d1f16bcb0)" style="fill: none; stroke: #bfc6c9; stroke-linecap: round"/>
    <path d="M 322.782893 263.210315 
L 326.671952 265.841895 
L 322.233252 267.374195 
" clip-path="url(#p9d1f16bcb0)" style="fill: none; stroke: #bfc6c9; stroke-linecap: round"/>
   </g>
   <g id="patch_131">
    <path d="M 255.776193 270.052342 
Q 232.017911 273.187933 209.368048 270.198105 
" clip-path="url(#p9d1f16bcb0)" style="fill: none; stroke: #bfc6c9; stroke-linecap: round"/>
    <path d="M 213.257107 272.829685 
L 209.368048 270.198105 
L 213.806748 268.665805 
" clip-path="url(#p9d1f16bcb0)" style="fill: none; stroke: #bfc6c9; stroke-linecap: round"/>
   </g>
   <g id="patch_132">
    <path d="M 238.998379 235.880845 
Q 251.02866 245.762558 260.024471 257.108047 
" clip-path="url(#p9d1f16bcb0)" style="fill: none; stroke: #bfc6c9; stroke-linecap: round"/>
    <path d="M 259.060539 252.512306 
L 260.024471 257.108047 
L 255.769519 255.121748 
" clip-path="url(#p9d1f16bcb0)" style="fill: none; stroke: #bfc6c9; stroke-linecap: round"/>
   </g>
   <g id="patch_133">
    <path d="M 329.987475 260.721767 
Q 317.759909 251.027138 308.583952 239.854483 
" clip-path="url(#p9d1f16bcb0)" style="fill: none; stroke: #bfc6c9; stroke-linecap: round"/>
    <path d="M 309.626745 244.432974 
L 308.583952 239.854483 
L 312.872421 241.767343 
" clip-path="url(#p9d1f16bcb0)" style="fill: none; stroke: #bfc6c9; stroke-linecap: round"/>
   </g>
   <g id="patch_134">
    <path d="M 327.776193 270.052342 
Q 304.017911 273.187933 281.368048 270.198105 
" clip-path="url(#p9d1f16bcb0)" style="fill: none; stroke: #bfc6c9; stroke-linecap: round"/>
    <path d="M 285.257107 272.829685 
L 281.368048 270.198105 
L 285.806748 268.665805 
" clip-path="url(#p9d1f16bcb0)" style="fill: none; stroke: #bfc6c9; stroke-linecap: round"/>
   </g>
   <g id="patch_135">
    <path d="M 342.052342 280.263807 
Q 345.187933 304.022089 342.198105 326.671952 
" clip-path="url(#p9d1f16bcb0)" style="fill: none; stroke: #bfc6c9; stroke-linecap: round"/>
    <path d="M 344.829685 322.782893 
L 342.198105 326.671952 
L 340.665805 322.233252 
" clip-path="url(#p9d1f16bcb0)" style="fill: none; stroke: #bfc6c9; stroke-linecap: round"/>
   </g>
   <g id="patch_136">
    <path d="M 337.987658 255.776193 
Q 334.852067 232.017911 337.841895 209.368048 
" clip-path="url(#p9d1f16bcb0)" style="fill: none; stroke: #bfc6c9; stroke-linecap: round"/>
    <path d="M 335.210315 213.257107 
L 337.841895 209.368048 
L 339.374195 213.806748 
" clip-path="url(#p9d1f16bcb0)" style="fill: none; stroke: #bfc6c9; stroke-linecap: round"/>
   </g>
   <g id="patch_137">
    <path d="M 310.998379 235.880845 
Q 323.02866 245.762558 332.024471 257.108047 
" clip-path="url(#p9d1f16bcb0)" style="fill: none; stroke: #bfc6c9; stroke-linecap: round"/>
    <path d="M 331.060539 252.512306 
L 332.024471 257.108047 
L 327.769519 255.121748 
" clip-path="url(#p9d1f16bcb0)" style="fill: none; stroke: #bfc6c9; stroke-linecap: round"/>
   </g>
   <g id="patch_138">
    <path d="M 41.987475 332.721767 
Q 29.759909 323.027138 20.583952 311.854483 
" clip-path="url(#p9d1f16bcb0)" style="fill: none; stroke: #bfc6c9; stroke-linecap: round"/>
    <path d="M 21.626745 316.432974 
L 20.583952 311.854483 
L 24.872421 313.767343 
" clip-path="url(#p9d1f16bcb0)" style="fill: none; stroke: #bfc6c9; stroke-linecap: round"/>
   </g>
   <g id="patch_139">
    <path d="M 64.263807 337.987658 
Q 88.022089 334.852067 110.671952 337.841895 
" clip-path="url(#p9d1f16bcb0)" style="fill: none; stroke: #bfc6c9; stroke-linecap: round"/>
    <path d="M 106.782893 335.210315 
L 110.671952 337.841895 
L 106.233252 339.374195 
" clip-path="url(#p9d1f16bcb0)" style="fill: none; stroke: #bfc6c9; stroke-linecap: round"/>
   </g>
   <g id="patch_140">
    <path d="M 49.987658 327.776193 
Q 46.852067 304.017911 49.841895 281.368048 
" clip-path="url(#p9d1f16bcb0)" style="fill: none; stroke: #bfc6c9; stroke-linecap: round"/>
    <path d="M 47.210315 285.257107 
L 49.841895 281.368048 
L 51.374195 285.806748 
" clip-path="url(#p9d1f16bcb0)" style="fill: none; stroke: #bfc6c9; stroke-linecap: round"/>
   </g>
   <g id="patch_141">
    <path d="M 22.998379 307.880845 
Q 35.02866 317.762558 44.024471 329.108047 
" clip-path="url(#p9d1f16bcb0)" style="fill: none; stroke: #bfc6c9; stroke-linecap: round"/>
    <path d="M 43.060539 324.512306 
L 44.024471 329.108047 
L 39.769519 327.121748 
" clip-path="url(#p9d1f16bcb0)" style="fill: none; stroke: #bfc6c9; stroke-linecap: round"/>
   </g>
   <g id="patch_142">
    <path d="M 113.987475 332.721767 
Q 101.759909 323.027138 92.583952 311.854483 
" clip-path="url(#p9d1f16bcb0)" style="fill: none; stroke: #bfc6c9; stroke-linecap: round"/>
    <path d="M 93.626745 316.432974 
L 92.583952 311.854483 
L 96.872421 313.767343 
" clip-path="url(#p9d1f16bcb0)" style="fill: none; stroke: #bfc6c9; stroke-linecap: round"/>
   </g>
   <g id="patch_143">
    <path d="M 136.263807 337.987658 
Q 160.022089 334.852067 182.671952 337.841895 
" clip-path="url(#p9d1f16bcb0)" style="fill: none; stroke: #bfc6c9; stroke-linecap: round"/>
    <path d="M 178.782893 335.210315 
L 182.671952 337.841895 
L 178.233252 339.374195 
" clip-path="url(#p9d1f16bcb0)" style="fill: none; stroke: #bfc6c9; stroke-linecap: round"/>
   </g>
   <g id="patch_144">
    <path d="M 111.776193 342.052342 
Q 88.017911 345.187933 65.368048 342.198105 
" clip-path="url(#p9d1f16bcb0)" style="fill: none; stroke: #bfc6c9; stroke-linecap: round"/>
    <path d="M 69.257107 344.829685 
L 65.368048 342.198105 
L 69.806748 340.665805 
" clip-path="url(#p9d1f16bcb0)" style="fill: none; stroke: #bfc6c9; stroke-linecap: round"/>
   </g>
   <g id="patch_145">
    <path d="M 94.998379 307.880845 
Q 107.02866 317.762558 116.024471 329.108047 
" clip-path="url(#p9d1f16bcb0)" style="fill: none; stroke: #bfc6c9; stroke-linecap: round"/>
    <path d="M 115.060539 324.512306 
L 116.024471 329.108047 
L 111.769519 327.121748 
" clip-path="url(#p9d1f16bcb0)" style="fill: none; stroke: #bfc6c9; stroke-linecap: round"/>
   </g>
   <g id="patch_146">
    <path d="M 185.987475 332.721767 
Q 173.759909 323.027138 164.583952 311.854483 
" clip-path="url(#p9d1f16bcb0)" style="fill: none; stroke: #bfc6c9; stroke-linecap: round"/>
    <path d="M 165.626745 316.432974 
L 164.583952 311.854483 
L 168.872421 313.767343 
" clip-path="url(#p9d1f16bcb0)" style="fill: none; stroke: #bfc6c9; stroke-linecap: round"/>
   </g>
   <g id="patch_147">
    <path d="M 208.263807 337.987658 
Q 232.022089 334.852067 254.671952 337.841895 
" clip-path="url(#p9d1f16bcb0)" style="fill: none; stroke: #bfc6c9; stroke-linecap: round"/>
    <path d="M 250.782893 335.210315 
L 254.671952 337.841895 
L 250.233252 339.374195 
" clip-path="url(#p9d1f16bcb0)" style="fill: none; stroke: #bfc6c9; stroke-linecap: round"/>
   </g>
   <g id="patch_148">
    <path d="M 183.776193 342.052342 
Q 160.017911 345.187933 137.368048 342.198105 
" clip-path="url(#p9d1f16bcb0)" style="fill: none; stroke: #bfc6c9; stroke-linecap: round"/>
    <path d="M 141.257107 344.829685 
L 137.368048 342.198105 
L 141.806748 340.665805 
" clip-path="url(#p9d1f16bcb0)" style="fill: none; stroke: #bfc6c9; stroke-linecap: round"/>
   </g>
   <g id="patch_149">
    <path d="M 166.998379 307.880845 
Q 179.02866 317.762558 188.024471 329.108047 
" clip-path="url(#p9d1f16bcb0)" style="fill: none; stroke: #bfc6c9; stroke-linecap: round"/>
    <path d="M 187.060539 324.512306 
L 188.024471 329.108047 
L 183.769519 327.121748 
" clip-path="url(#p9d1f16bcb0)" style="fill: none; stroke: #bfc6c9; stroke-linecap: round"/>
   </g>
   <g id="patch_150">
    <path d="M 257.987475 332.721767 
Q 245.759909 323.027138 236.583952 311.854483 
" clip-path="url(#p9d1f16bcb0)" style="fill: none; stroke: #bfc6c9; stroke-linecap: round"/>
    <path d="M 237.626745 316.432974 
L 236.583952 311.854483 
L 240.872421 313.767343 
" clip-path="url(#p9d1f16bcb0)" style="fill: none; stroke: #bfc6c9; stroke-linecap: round"/>
   </g>
   <g id="patch_151">
    <path d="M 280.263807 337.987658 
Q 304.022089 334.852067 326.671952 337.841895 
" clip-path="url(#p9d1f16bcb0)" style="fill: none; stroke: #bfc6c9; stroke-linecap: round"/>
    <path d="M 322.782893 335.210315 
L 326.671952 337.841895 
L 322.233252 339.374195 
" clip-path="url(#p9d1f16bcb0)" style="fill: none; stroke: #bfc6c9; stroke-linecap: round"/>
   </g>
   <g id="patch_152">
    <path d="M 255.776193 342.052342 
Q 232.017911 345.187933 209.368048 342.198105 
" clip-path="url(#p9d1f16bcb0)" style="fill: none; stroke: #bfc6c9; stroke-linecap: round"/>
    <path d="M 213.257107 344.829685 
L 209.368048 342.198105 
L 213.806748 340.665805 
" clip-path="url(#p9d1f16bcb0)" style="fill: none; stroke: #bfc6c9; stroke-linecap: round"/>
   </g>
   <g id="patch_153">
    <path d="M 238.998379 307.880845 
Q 251.02866 317.762558 260.024471 329.108047 
" clip-path="url(#p9d1f16bcb0)" style="fill: none; stroke: #bfc6c9; stroke-linecap: round"/>
    <path d="M 259.060539 324.512306 
L 260.024471 329.108047 
L 255.769519 327.121748 
" clip-path="url(#p9d1f16bcb0)" style="fill: none; stroke: #bfc6c9; stroke-linecap: round"/>
   </g>
   <g id="patch_154">
    <path d="M 329.987475 332.721767 
Q 317.759909 323.027138 308.583952 311.854483 
" clip-path="url(#p9d1f16bcb0)" style="fill: none; stroke: #bfc6c9; stroke-linecap: round"/>
    <path d="M 309.626745 316.432974 
L 308.583952 311.854483 
L 312.872421 313.767343 
" clip-path="url(#p9d1f16bcb0)" style="fill: none; stroke: #bfc6c9; stroke-linecap: round"/>
   </g>
   <g id="patch_155">
    <path d="M 327.776193 342.052342 
Q 304.017911 345.187933 281.368048 342.198105 
" clip-path="url(#p9d1f16bcb0)" style="fill: none; stroke: #bfc6c9; stroke-linecap: round"/>
    <path d="M 285.257107 344.829685 
L 281.368048 342.198105 
L 285.806748 340.665805 
" clip-path="url(#p9d1f16bcb0)" style="fill: none; stroke: #bfc6c9; stroke-linecap: round"/>
   </g>
   <g id="patch_156">
    <path d="M 337.987658 327.776193 
Q 334.852067 304.017911 337.841895 281.368048 
" clip-path="url(#p9d1f16bcb0)" style="fill: none; stroke: #bfc6c9; stroke-linecap: round"/>
    <path d="M 335.210315 285.257107 
L 337.841895 281.368048 
L 339.374195 285.806748 
" clip-path="url(#p9d1f16bcb0)" style="fill: none; stroke: #bfc6c9; stroke-linecap: round"/>
   </g>
   <g id="patch_157">
    <path d="M 310.998379 307.880845 
Q 323.02866 317.762558 332.024471 329.108047 
" clip-path="url(#p9d1f16bcb0)" style="fill: none; stroke: #bfc6c9; stroke-linecap: round"/>
    <path d="M 331.060539 324.512306 
L 332.024471 329.108047 
L 327.769519 327.121748 
" clip-path="url(#p9d1f16bcb0)" style="fill: none; stroke: #bfc6c9; stroke-linecap: round"/>
   </g>
   <g id="text_1">
    <!-- $\node{n0}$ -->
    <g transform="translate(47.069722 54.353937) scale(0.09 -0.09)">
     <defs>
      <path id="NotoSerif-Regular-6e" d="M 179 0 
L 1901 0 
L 1901 271 
L 1869 271 
C 1728 271 1606 297 1510 348 
C 1408 393 1357 516 1357 703 
L 1357 2063 
C 1357 2250 1382 2418 1434 2579 
C 1478 2740 1562 2863 1677 2966 
C 1786 3056 1939 3108 2131 3108 
C 2394 3108 2573 3030 2675 2876 
C 2784 2721 2835 2502 2835 2224 
L 2835 0 
L 3949 0 
L 3949 271 
L 3917 271 
C 3770 271 3654 297 3571 348 
C 3482 406 3437 535 3437 735 
L 3437 2257 
C 3437 2702 3341 3017 3149 3224 
C 2963 3417 2701 3520 2362 3520 
C 2157 3520 1971 3482 1805 3404 
C 1645 3333 1498 3172 1363 2934 
L 1331 2934 
L 1248 3456 
L 211 3456 
L 211 3185 
L 243 3185 
C 384 3185 506 3159 602 3108 
C 704 3056 755 2934 755 2747 
L 755 735 
C 755 535 704 406 602 348 
C 499 297 378 271 230 271 
L 179 271 
L 179 0 
z
" transform="scale(0.015625)"/>
      <path id="NotoSerif-Regular-30" d="M 1792 -64 
C 2131 -64 2406 32 2624 232 
C 2848 432 3014 710 3123 1058 
C 3232 1419 3290 1833 3290 2310 
C 3290 2787 3238 3201 3123 3562 
C 3021 3910 2854 4189 2630 4382 
C 2406 4575 2131 4672 1798 4672 
C 1446 4672 1158 4575 934 4382 
C 710 4189 550 3917 448 3562 
C 339 3207 288 2794 288 2317 
C 288 1840 339 1419 448 1065 
C 550 710 710 432 934 232 
C 1158 32 1440 -64 1792 -64 
z
M 1792 284 
C 1478 284 1261 464 1139 820 
C 1018 1174 954 1671 954 2310 
C 954 2950 1018 3446 1139 3794 
C 1267 4150 1485 4324 1798 4324 
C 2106 4324 2317 4150 2445 3794 
C 2560 3446 2624 2950 2624 2310 
C 2624 1671 2560 1174 2445 820 
C 2317 464 2106 284 1792 284 
z
" transform="scale(0.015625)"/>
     </defs>
     <use xlink:href="#NotoSerif-Regular-6e" transform="scale(0.913673)"/>
     <use xlink:href="#NotoSerif-Regular-30" transform="translate(58.931929 0) scale(0.913673)"/>
    </g>
   </g>
   <g id="text_2">
    <!-- $\node{n25}$ -->
    <g style="fill: #ffffff" transform="translate(3.73138 13.313937) scale(0.09 -0.09)">
     <defs>
      <path id="NotoSerif-Regular-32" d="M 390 0 
L 3142 0 
L 3174 1116 
L 2906 1116 
L 2880 1000 
C 2848 878 2803 761 2733 664 
C 2662 567 2534 516 2342 516 
L 864 516 
L 1946 1723 
C 2285 2097 2547 2426 2733 2710 
C 2918 3000 3014 3291 3014 3594 
C 3014 3923 2899 4182 2669 4375 
C 2438 4575 2118 4672 1715 4672 
C 1299 4672 986 4588 781 4427 
C 563 4266 461 4060 461 3807 
C 461 3646 512 3536 621 3472 
C 730 3420 858 3388 1011 3388 
C 1011 3562 1030 3717 1062 3859 
C 1101 4008 1171 4124 1274 4214 
C 1376 4305 1523 4350 1715 4350 
C 1939 4350 2106 4272 2214 4124 
C 2317 3976 2368 3775 2368 3530 
C 2368 3330 2342 3143 2278 2969 
C 2227 2794 2131 2607 1997 2413 
C 1862 2214 1683 1981 1459 1716 
L 390 471 
L 390 0 
z
" transform="scale(0.015625)"/>
      <path id="NotoSerif-Regular-35" d="M 1562 -64 
C 1888 -64 2170 0 2400 115 
C 2630 243 2803 411 2931 629 
C 3046 853 3110 1109 3110 1399 
C 3110 1700 3046 1950 2918 2155 
C 2790 2348 2618 2502 2394 2605 
C 2176 2700 1926 2752 1651 2752 
C 1466 2752 1306 2739 1184 2720 
C 1062 2694 966 2668 902 2649 
L 1024 4092 
L 2266 4092 
C 2400 4092 2490 4072 2534 4026 
C 2573 3981 2598 3916 2611 3824 
L 2637 3628 
L 2906 3628 
L 2874 4608 
L 736 4608 
L 531 2301 
L 685 2256 
C 768 2288 864 2320 973 2352 
C 1082 2385 1248 2397 1472 2397 
C 1766 2397 2003 2315 2176 2154 
C 2355 1988 2445 1737 2445 1399 
C 2445 1130 2406 918 2330 758 
C 2246 598 2138 489 1997 418 
C 1862 348 1702 316 1530 316 
C 1267 316 1075 380 947 502 
C 819 623 755 777 755 963 
C 621 963 518 931 448 860 
C 384 797 352 706 352 584 
C 352 488 384 391 461 296 
C 525 192 653 109 826 39 
C 998 -32 1248 -64 1562 -64 
z
" transform="scale(0.015625)"/>
     </defs>
     <use xlink:href="#NotoSerif-Regular-6e" transform="scale(0.913673)"/>
     <use xlink:href="#NotoSerif-Regular-32" transform="translate(58.931929 0) scale(0.913673)"/>
     <use xlink:href="#NotoSerif-Regular-35" transform="translate(110.006224 0) scale(0.913673)"/>
    </g>
   </g>
   <g id="text_3">
    <!-- $\node{n1}$ -->
    <g transform="translate(119.069722 54.353937) scale(0.09 -0.09)">
     <defs>
      <path id="NotoSerif-Regular-31" d="M 614 0 
L 3053 0 
L 3053 271 
L 2739 271 
C 2592 271 2470 297 2368 348 
C 2266 406 2214 536 2214 736 
L 2214 4640 
L 1805 4640 
L 1357 4303 
C 1146 4142 973 4031 832 3960 
C 685 3888 550 3837 422 3805 
C 422 3701 454 3618 512 3553 
C 570 3489 646 3456 742 3456 
C 870 3456 998 3521 1126 3644 
C 1261 3767 1408 3928 1568 4129 
L 1568 736 
C 1568 536 1517 406 1414 348 
C 1312 297 1190 271 1043 271 
L 614 271 
L 614 0 
z
" transform="scale(0.015625)"/>
     </defs>
     <use xlink:href="#NotoSerif-Regular-6e" transform="scale(0.913673)"/>
     <use xlink:href="#NotoSerif-Regular-31" transform="translate(58.931929 0) scale(0.913673)"/>
    </g>
   </g>
   <g id="text_4">
    <!-- $\node{n26}$ -->
    <g style="fill: #ffffff" transform="translate(75.73138 13.313937) scale(0.09 -0.09)">
     <defs>
      <path id="NotoSerif-Regular-36" d="M 1875 -64 
C 2163 -64 2413 0 2618 130 
C 2822 266 2982 448 3085 682 
C 3200 915 3251 1181 3251 1487 
C 3251 1901 3136 2226 2906 2466 
C 2669 2699 2355 2816 1965 2816 
C 1754 2816 1574 2784 1434 2713 
C 1280 2642 1158 2565 1050 2481 
C 1069 3101 1165 3569 1331 3889 
C 1498 4202 1741 4363 2061 4363 
C 2266 4363 2413 4293 2496 4145 
C 2579 3998 2624 3826 2624 3615 
C 2950 3615 3117 3743 3117 3999 
C 3117 4172 3027 4332 2854 4467 
C 2682 4601 2413 4672 2061 4672 
C 1779 4672 1536 4608 1318 4479 
C 1114 4356 934 4182 800 3962 
C 666 3736 563 3485 493 3201 
C 422 2924 390 2626 390 2323 
C 390 1756 454 1297 589 942 
C 717 594 896 335 1114 181 
C 1344 13 1594 -64 1875 -64 
z
M 1894 290 
C 1638 290 1434 433 1280 712 
C 1133 992 1050 1461 1043 2110 
C 1126 2202 1242 2286 1382 2364 
C 1517 2449 1670 2487 1837 2487 
C 2086 2487 2272 2403 2406 2234 
C 2534 2065 2598 1792 2598 1421 
C 2598 1025 2534 739 2419 556 
C 2291 381 2118 290 1894 290 
z
" transform="scale(0.015625)"/>
     </defs>
     <use xlink:href="#NotoSerif-Regular-6e" transform="scale(0.913673)"/>
     <use xlink:href="#NotoSerif-Regular-32" transform="translate(58.931929 0) scale(0.913673)"/>
     <use xlink:href="#NotoSerif-Regular-36" transform="translate(110.006224 0) scale(0.913673)"/>
    </g>
   </g>
   <g id="text_5">
    <!-- $\node{n2}$ -->
    <g transform="translate(191.069722 54.353937) scale(0.09 -0.09)">
     <use xlink:href="#NotoSerif-Regular-6e" transform="scale(0.913673)"/>
     <use xlink:href="#NotoSerif-Regular-32" transform="translate(58.931929 0) scale(0.913673)"/>
    </g>
   </g>
   <g id="text_6">
    <!-- $\node{n27}$ -->
    <g style="fill: #ffffff" transform="translate(147.73138 13.313937) scale(0.09 -0.09)">
     <defs>
      <path id="NotoSerif-Regular-37" d="M 1126 0 
L 1696 0 
L 3270 4425 
L 3270 4612 
L 410 4612 
L 378 3444 
L 646 3444 
L 672 3766 
C 691 3986 819 4096 1043 4096 
L 2637 4096 
L 1126 0 
z
" transform="scale(0.015625)"/>
     </defs>
     <use xlink:href="#NotoSerif-Regular-6e" transform="scale(0.913673)"/>
     <use xlink:href="#NotoSerif-Regular-32" transform="translate(58.931929 0) scale(0.913673)"/>
     <use xlink:href="#NotoSerif-Regular-37" transform="translate(110.006224 0) scale(0.913673)"/>
    </g>
   </g>
   <g id="text_7">
    <!-- $\node{n3}$ -->
    <g transform="translate(263.069722 54.353937) scale(0.09 -0.09)">
     <defs>
      <path id="NotoSerif-Regular-33" d="M 1581 -64 
C 1766 -64 1952 -39 2138 6 
C 2330 53 2509 130 2669 234 
C 2829 344 2963 487 3059 662 
C 3155 843 3206 1063 3206 1322 
C 3206 1536 3168 1718 3091 1854 
C 3014 1997 2918 2113 2790 2198 
C 2675 2282 2541 2346 2406 2386 
C 2272 2431 2144 2457 2022 2470 
C 2221 2515 2394 2597 2547 2707 
C 2701 2823 2822 2964 2912 3118 
C 3002 3285 3046 3458 3046 3651 
C 3046 3979 2925 4229 2675 4402 
C 2432 4582 2106 4672 1702 4672 
C 1286 4672 973 4588 768 4428 
C 550 4268 448 4062 448 3811 
C 448 3651 499 3541 608 3478 
C 717 3426 845 3394 998 3394 
C 998 3567 1018 3721 1050 3863 
C 1088 4010 1158 4125 1261 4215 
C 1363 4305 1510 4350 1702 4350 
C 1952 4350 2125 4279 2227 4144 
C 2336 4004 2387 3805 2387 3554 
C 2387 3355 2342 3176 2253 3028 
C 2163 2880 2042 2765 1894 2681 
C 1741 2598 1568 2560 1382 2560 
L 1178 2560 
L 1178 2231 
L 1382 2231 
C 1741 2231 2022 2146 2227 1984 
C 2438 1822 2541 1602 2541 1329 
C 2541 1069 2496 862 2406 712 
C 2317 563 2202 452 2061 388 
C 1914 316 1760 284 1587 284 
C 1325 284 1126 361 986 504 
C 845 660 774 842 774 1069 
C 653 1069 557 1030 486 959 
C 410 887 371 784 371 654 
C 371 466 467 299 659 156 
C 851 6 1158 -64 1581 -64 
z
" transform="scale(0.015625)"/>
     </defs>
     <use xlink:href="#NotoSerif-Regular-6e" transform="scale(0.913673)"/>
     <use xlink:href="#NotoSerif-Regular-33" transform="translate(58.931929 0) scale(0.913673)"/>
    </g>
   </g>
   <g id="text_8">
    <!-- $\node{n28}$ -->
    <g style="fill: #ffffff" transform="translate(219.73138 13.313937) scale(0.09 -0.09)">
     <defs>
      <path id="NotoSerif-Regular-38" d="M 1747 -64 
C 2214 -64 2592 52 2867 277 
C 3142 504 3283 826 3283 1233 
C 3283 1511 3187 1749 2989 1949 
C 2790 2150 2534 2324 2221 2472 
C 2483 2601 2688 2743 2848 2904 
C 3008 3059 3085 3278 3085 3562 
C 3085 3885 2976 4150 2752 4363 
C 2534 4569 2227 4672 1824 4672 
C 1498 4672 1229 4620 1024 4504 
C 826 4401 678 4253 582 4078 
C 486 3904 442 3717 442 3517 
C 442 3246 518 3014 672 2826 
C 826 2639 1024 2471 1267 2336 
C 1082 2246 922 2149 768 2046 
C 627 1943 506 1820 422 1677 
C 339 1536 294 1361 294 1155 
C 294 929 346 730 461 543 
C 563 355 730 206 947 103 
C 1158 -13 1427 -64 1747 -64 
z
M 1907 2622 
C 1619 2757 1408 2893 1261 3034 
C 1114 3176 1043 3363 1043 3595 
C 1043 3821 1107 4002 1235 4150 
C 1363 4298 1549 4369 1786 4369 
C 1965 4369 2106 4330 2214 4253 
C 2323 4176 2400 4079 2445 3956 
C 2490 3834 2515 3711 2515 3576 
C 2515 3350 2470 3170 2394 3021 
C 2304 2873 2144 2744 1907 2622 
z
M 1779 232 
C 1491 232 1280 316 1133 477 
C 986 645 915 865 915 1129 
C 915 1368 973 1581 1094 1756 
C 1216 1930 1376 2072 1574 2181 
C 1990 2001 2278 1827 2445 1664 
C 2618 1503 2701 1310 2701 1091 
C 2701 839 2618 632 2445 477 
C 2278 309 2054 232 1779 232 
z
" transform="scale(0.015625)"/>
     </defs>
     <use xlink:href="#NotoSerif-Regular-6e" transform="scale(0.913673)"/>
     <use xlink:href="#NotoSerif-Regular-32" transform="translate(58.931929 0) scale(0.913673)"/>
     <use xlink:href="#NotoSerif-Regular-38" transform="translate(110.006224 0) scale(0.913673)"/>
    </g>
   </g>
   <g id="text_9">
    <!-- $\node{n4}$ -->
    <g transform="translate(335.069722 54.353937) scale(0.09 -0.09)">
     <defs>
      <path id="NotoSerif-Regular-34" d="M 1376 0 
L 3302 0 
L 3302 271 
L 3219 271 
C 3072 271 2950 297 2848 349 
C 2746 408 2694 539 2694 742 
L 2694 1280 
L 3488 1280 
L 3488 1641 
L 2694 1641 
L 2694 4608 
L 2086 4608 
L 109 1544 
L 109 1280 
L 2080 1280 
L 2080 742 
C 2080 539 2029 408 1926 349 
C 1824 297 1702 271 1555 271 
L 1376 271 
L 1376 0 
z
M 570 1641 
L 1549 3169 
C 1587 3227 1632 3304 1690 3400 
C 1747 3491 1805 3586 1862 3683 
C 1920 3785 1978 3882 2022 3966 
C 2067 4049 2106 4113 2125 4158 
C 2118 4024 2106 3882 2099 3722 
C 2093 3561 2086 3407 2086 3247 
C 2080 3092 2080 2951 2080 2829 
L 2080 1641 
L 570 1641 
z
" transform="scale(0.015625)"/>
     </defs>
     <use xlink:href="#NotoSerif-Regular-6e" transform="scale(0.913673)"/>
     <use xlink:href="#NotoSerif-Regular-34" transform="translate(58.931929 0) scale(0.913673)"/>
    </g>
   </g>
   <g id="text_10">
    <!-- $\node{n29}$ -->
    <g style="fill: #ffffff" transform="translate(291.73138 13.313937) scale(0.09 -0.09)">
     <defs>
      <path id="NotoSerif-Regular-39" d="M 1453 -64 
C 1766 -64 2029 7 2253 149 
C 2470 284 2650 478 2790 716 
C 2925 954 3027 1231 3091 1541 
C 3155 1844 3187 2166 3187 2507 
C 3187 3016 3123 3429 2995 3745 
C 2867 4060 2688 4298 2470 4446 
C 2240 4595 1984 4672 1696 4672 
C 1408 4672 1165 4608 960 4467 
C 755 4339 602 4146 486 3915 
C 384 3671 326 3402 326 3094 
C 326 2664 442 2337 678 2119 
C 915 1901 1216 1792 1587 1792 
C 1811 1792 2003 1837 2157 1927 
C 2310 2018 2432 2121 2528 2231 
C 2509 1575 2413 1089 2240 771 
C 2074 453 1811 291 1459 291 
C 1261 291 1101 342 986 446 
C 864 551 774 668 717 804 
C 672 785 627 752 589 693 
C 544 642 525 577 525 494 
C 525 402 550 318 602 227 
C 659 150 755 79 890 20 
C 1024 -38 1216 -64 1453 -64 
z
M 1728 2173 
C 1478 2173 1293 2249 1171 2403 
C 1050 2556 986 2807 986 3158 
C 986 3536 1050 3824 1178 4016 
C 1299 4222 1472 4317 1696 4317 
C 1946 4317 2144 4190 2291 3934 
C 2445 3677 2528 3261 2534 2691 
C 2477 2556 2381 2435 2246 2326 
C 2112 2224 1939 2173 1728 2173 
z
" transform="scale(0.015625)"/>
     </defs>
     <use xlink:href="#NotoSerif-Regular-6e" transform="scale(0.913673)"/>
     <use xlink:href="#NotoSerif-Regular-32" transform="translate(58.931929 0) scale(0.913673)"/>
     <use xlink:href="#NotoSerif-Regular-39" transform="translate(110.006224 0) scale(0.913673)"/>
    </g>
   </g>
   <g id="text_11">
    <!-- $\node{n5}$ -->
    <g transform="translate(47.069722 126.353937) scale(0.09 -0.09)">
     <use xlink:href="#NotoSerif-Regular-6e" transform="scale(0.913673)"/>
     <use xlink:href="#NotoSerif-Regular-35" transform="translate(58.931929 0) scale(0.913673)"/>
    </g>
   </g>
   <g id="text_12">
    <!-- $\node{n30}$ -->
    <g style="fill: #ffffff" transform="translate(3.73138 85.313937) scale(0.09 -0.09)">
     <use xlink:href="#NotoSerif-Regular-6e" transform="scale(0.913673)"/>
     <use xlink:href="#NotoSerif-Regular-33" transform="translate(58.931929 0) scale(0.913673)"/>
     <use xlink:href="#NotoSerif-Regular-30" transform="translate(110.006224 0) scale(0.913673)"/>
    </g>
   </g>
   <g id="text_13">
    <!-- $\node{n6}$ -->
    <g transform="translate(119.069722 126.353937) scale(0.09 -0.09)">
     <use xlink:href="#NotoSerif-Regular-6e" transform="scale(0.913673)"/>
     <use xlink:href="#NotoSerif-Regular-36" transform="translate(58.931929 0) scale(0.913673)"/>
    </g>
   </g>
   <g id="text_14">
    <!-- $\node{n31}$ -->
    <g style="fill: #ffffff" transform="translate(75.73138 85.313937) scale(0.09 -0.09)">
     <use xlink:href="#NotoSerif-Regular-6e" transform="scale(0.913673)"/>
     <use xlink:href="#NotoSerif-Regular-33" transform="translate(58.931929 0) scale(0.913673)"/>
     <use xlink:href="#NotoSerif-Regular-31" transform="translate(110.006224 0) scale(0.913673)"/>
    </g>
   </g>
   <g id="text_15">
    <!-- $\node{n7}$ -->
    <g transform="translate(191.069722 126.353937) scale(0.09 -0.09)">
     <use xlink:href="#NotoSerif-Regular-6e" transform="scale(0.913673)"/>
     <use xlink:href="#NotoSerif-Regular-37" transform="translate(58.931929 0) scale(0.913673)"/>
    </g>
   </g>
   <g id="text_16">
    <!-- $\node{n32}$ -->
    <g style="fill: #ffffff" transform="translate(147.73138 85.313937) scale(0.09 -0.09)">
     <use xlink:href="#NotoSerif-Regular-6e" transform="scale(0.913673)"/>
     <use xlink:href="#NotoSerif-Regular-33" transform="translate(58.931929 0) scale(0.913673)"/>
     <use xlink:href="#NotoSerif-Regular-32" transform="translate(110.006224 0) scale(0.913673)"/>
    </g>
   </g>
   <g id="text_17">
    <!-- $\node{n8}$ -->
    <g transform="translate(263.069722 126.353937) scale(0.09 -0.09)">
     <use xlink:href="#NotoSerif-Regular-6e" transform="scale(0.913673)"/>
     <use xlink:href="#NotoSerif-Regular-38" transform="translate(58.931929 0) scale(0.913673)"/>
    </g>
   </g>
   <g id="text_18">
    <!-- $\node{n33}$ -->
    <g style="fill: #ffffff" transform="translate(219.73138 85.313937) scale(0.09 -0.09)">
     <use xlink:href="#NotoSerif-Regular-6e" transform="scale(0.913673)"/>
     <use xlink:href="#NotoSerif-Regular-33" transform="translate(58.931929 0) scale(0.913673)"/>
     <use xlink:href="#NotoSerif-Regular-33" transform="translate(110.006224 0) scale(0.913673)"/>
    </g>
   </g>
   <g id="text_19">
    <!-- $\node{n9}$ -->
    <g transform="translate(335.069722 126.353937) scale(0.09 -0.09)">
     <use xlink:href="#NotoSerif-Regular-6e" transform="scale(0.913673)"/>
     <use xlink:href="#NotoSerif-Regular-39" transform="translate(58.931929 0) scale(0.913673)"/>
    </g>
   </g>
   <g id="text_20">
    <!-- $\node{n34}$ -->
    <g style="fill: #ffffff" transform="translate(291.73138 85.313937) scale(0.09 -0.09)">
     <use xlink:href="#NotoSerif-Regular-6e" transform="scale(0.913673)"/>
     <use xlink:href="#NotoSerif-Regular-33" transform="translate(58.931929 0) scale(0.913673)"/>
     <use xlink:href="#NotoSerif-Regular-34" transform="translate(110.006224 0) scale(0.913673)"/>
    </g>
   </g>
   <g id="text_21">
    <!-- $\node{n10}$ -->
    <g transform="translate(44.77138 198.353937) scale(0.09 -0.09)">
     <use xlink:href="#NotoSerif-Regular-6e" transform="scale(0.913673)"/>
     <use xlink:href="#NotoSerif-Regular-31" transform="translate(58.931929 0) scale(0.913673)"/>
     <use xlink:href="#NotoSerif-Regular-30" transform="translate(110.006224 0) scale(0.913673)"/>
    </g>
   </g>
   <g id="text_22">
    <!-- $\node{n35}$ -->
    <g style="fill: #ffffff" transform="translate(3.73138 157.313937) scale(0.09 -0.09)">
     <use xlink:href="#NotoSerif-Regular-6e" transform="scale(0.913673)"/>
     <use xlink:href="#NotoSerif-Regular-33" transform="translate(58.931929 0) scale(0.913673)"/>
     <use xlink:href="#NotoSerif-Regular-35" transform="translate(110.006224 0) scale(0.913673)"/>
    </g>
   </g>
   <g id="text_23">
    <!-- $\node{n11}$ -->
    <g transform="translate(116.77138 198.353937) scale(0.09 -0.09)">
     <use xlink:href="#NotoSerif-Regular-6e" transform="scale(0.913673)"/>
     <use xlink:href="#NotoSerif-Regular-31" transform="translate(58.931929 0) scale(0.913673)"/>
     <use xlink:href="#NotoSerif-Regular-31" transform="translate(110.006224 0) scale(0.913673)"/>
    </g>
   </g>
   <g id="text_24">
    <!-- $\node{n36}$ -->
    <g style="fill: #ffffff" transform="translate(75.73138 157.313937) scale(0.09 -0.09)">
     <use xlink:href="#NotoSerif-Regular-6e" transform="scale(0.913673)"/>
     <use xlink:href="#NotoSerif-Regular-33" transform="translate(58.931929 0) scale(0.913673)"/>
     <use xlink:href="#NotoSerif-Regular-36" transform="translate(110.006224 0) scale(0.913673)"/>
    </g>
   </g>
   <g id="text_25">
    <!-- $\node{n12}$ -->
    <g transform="translate(188.77138 198.353937) scale(0.09 -0.09)">
     <use xlink:href="#NotoSerif-Regular-6e" transform="scale(0.913673)"/>
     <use xlink:href="#NotoSerif-Regular-31" transform="translate(58.931929 0) scale(0.913673)"/>
     <use xlink:href="#NotoSerif-Regular-32" transform="translate(110.006224 0) scale(0.913673)"/>
    </g>
   </g>
   <g id="text_26">
    <!-- $\node{n37}$ -->
    <g style="fill: #ffffff" transform="translate(147.73138 157.313937) scale(0.09 -0.09)">
     <use xlink:href="#NotoSerif-Regular-6e" transform="scale(0.913673)"/>
     <use xlink:href="#NotoSerif-Regular-33" transform="translate(58.931929 0) scale(0.913673)"/>
     <use xlink:href="#NotoSerif-Regular-37" transform="translate(110.006224 0) scale(0.913673)"/>
    </g>
   </g>
   <g id="text_27">
    <!-- $\node{n13}$ -->
    <g transform="translate(260.77138 198.353937) scale(0.09 -0.09)">
     <use xlink:href="#NotoSerif-Regular-6e" transform="scale(0.913673)"/>
     <use xlink:href="#NotoSerif-Regular-31" transform="translate(58.931929 0) scale(0.913673)"/>
     <use xlink:href="#NotoSerif-Regular-33" transform="translate(110.006224 0) scale(0.913673)"/>
    </g>
   </g>
   <g id="text_28">
    <!-- $\node{n38}$ -->
    <g style="fill: #ffffff" transform="translate(219.73138 157.313937) scale(0.09 -0.09)">
     <use xlink:href="#NotoSerif-Regular-6e" transform="scale(0.913673)"/>
     <use xlink:href="#NotoSerif-Regular-33" transform="translate(58.931929 0) scale(0.913673)"/>
     <use xlink:href="#NotoSerif-Regular-38" transform="translate(110.006224 0) scale(0.913673)"/>
    </g>
   </g>
   <g id="text_29">
    <!-- $\node{n14}$ -->
    <g transform="translate(332.77138 198.353937) scale(0.09 -0.09)">
     <use xlink:href="#NotoSerif-Regular-6e" transform="scale(0.913673)"/>
     <use xlink:href="#NotoSerif-Regular-31" transform="translate(58.931929 0) scale(0.913673)"/>
     <use xlink:href="#NotoSerif-Regular-34" transform="translate(110.006224 0) scale(0.913673)"/>
    </g>
   </g>
   <g id="text_30">
    <!-- $\node{n39}$ -->
    <g style="fill: #ffffff" transform="translate(291.73138 157.313937) scale(0.09 -0.09)">
     <use xlink:href="#NotoSerif-Regular-6e" transform="scale(0.913673)"/>
     <use xlink:href="#NotoSerif-Regular-33" transform="translate(58.931929 0) scale(0.913673)"/>
     <use xlink:href="#NotoSerif-Regular-39" transform="translate(110.006224 0) scale(0.913673)"/>
    </g>
   </g>
   <g id="text_31">
    <!-- $\node{n15}$ -->
    <g transform="translate(44.77138 270.353937) scale(0.09 -0.09)">
     <use xlink:href="#NotoSerif-Regular-6e" transform="scale(0.913673)"/>
     <use xlink:href="#NotoSerif-Regular-31" transform="translate(58.931929 0) scale(0.913673)"/>
     <use xlink:href="#NotoSerif-Regular-35" transform="translate(110.006224 0) scale(0.913673)"/>
    </g>
   </g>
   <g id="text_32">
    <!-- $\node{n40}$ -->
    <g style="fill: #ffffff" transform="translate(3.73138 229.313937) scale(0.09 -0.09)">
     <use xlink:href="#NotoSerif-Regular-6e" transform="scale(0.913673)"/>
     <use xlink:href="#NotoSerif-Regular-34" transform="translate(58.931929 0) scale(0.913673)"/>
     <use xlink:href="#NotoSerif-Regular-30" transform="translate(110.006224 0) scale(0.913673)"/>
    </g>
   </g>
   <g id="text_33">
    <!-- $\node{n16}$ -->
    <g transform="translate(116.77138 270.353937) scale(0.09 -0.09)">
     <use xlink:href="#NotoSerif-Regular-6e" transform="scale(0.913673)"/>
     <use xlink:href="#NotoSerif-Regular-31" transform="translate(58.931929 0) scale(0.913673)"/>
     <use xlink:href="#NotoSerif-Regular-36" transform="translate(110.006224 0) scale(0.913673)"/>
    </g>
   </g>
   <g id="text_34">
    <!-- $\node{n41}$ -->
    <g style="fill: #ffffff" transform="translate(75.73138 229.313937) scale(0.09 -0.09)">
     <use xlink:href="#NotoSerif-Regular-6e" transform="scale(0.913673)"/>
     <use xlink:href="#NotoSerif-Regular-34" transform="translate(58.931929 0) scale(0.913673)"/>
     <use xlink:href="#NotoSerif-Regular-31" transform="translate(110.006224 0) scale(0.913673)"/>
    </g>
   </g>
   <g id="text_35">
    <!-- $\node{n17}$ -->
    <g transform="translate(188.77138 270.353937) scale(0.09 -0.09)">
     <use xlink:href="#NotoSerif-Regular-6e" transform="scale(0.913673)"/>
     <use xlink:href="#NotoSerif-Regular-31" transform="translate(58.931929 0) scale(0.913673)"/>
     <use xlink:href="#NotoSerif-Regular-37" transform="translate(110.006224 0) scale(0.913673)"/>
    </g>
   </g>
   <g id="text_36">
    <!-- $\node{n42}$ -->
    <g style="fill: #ffffff" transform="translate(147.73138 229.313937) scale(0.09 -0.09)">
     <use xlink:href="#NotoSerif-Regular-6e" transform="scale(0.913673)"/>
     <use xlink:href="#NotoSerif-Regular-34" transform="translate(58.931929 0) scale(0.913673)"/>
     <use xlink:href="#NotoSerif-Regular-32" transform="translate(110.006224 0) scale(0.913673)"/>
    </g>
   </g>
   <g id="text_37">
    <!-- $\node{n18}$ -->
    <g transform="translate(260.77138 270.353937) scale(0.09 -0.09)">
     <use xlink:href="#NotoSerif-Regular-6e" transform="scale(0.913673)"/>
     <use xlink:href="#NotoSerif-Regular-31" transform="translate(58.931929 0) scale(0.913673)"/>
     <use xlink:href="#NotoSerif-Regular-38" transform="translate(110.006224 0) scale(0.913673)"/>
    </g>
   </g>
   <g id="text_38">
    <!-- $\node{n43}$ -->
    <g style="fill: #ffffff" transform="translate(219.73138 229.313937) scale(0.09 -0.09)">
     <use xlink:href="#NotoSerif-Regular-6e" transform="scale(0.913673)"/>
     <use xlink:href="#NotoSerif-Regular-34" transform="translate(58.931929 0) scale(0.913673)"/>
     <use xlink:href="#NotoSerif-Regular-33" transform="translate(110.006224 0) scale(0.913673)"/>
    </g>
   </g>
   <g id="text_39">
    <!-- $\node{n19}$ -->
    <g transform="translate(332.77138 270.353937) scale(0.09 -0.09)">
     <use xlink:href="#NotoSerif-Regular-6e" transform="scale(0.913673)"/>
     <use xlink:href="#NotoSerif-Regular-31" transform="translate(58.931929 0) scale(0.913673)"/>
     <use xlink:href="#NotoSerif-Regular-39" transform="translate(110.006224 0) scale(0.913673)"/>
    </g>
   </g>
   <g id="text_40">
    <!-- $\node{n44}$ -->
    <g style="fill: #ffffff" transform="translate(291.73138 229.313937) scale(0.09 -0.09)">
     <use xlink:href="#NotoSerif-Regular-6e" transform="scale(0.913673)"/>
     <use xlink:href="#NotoSerif-Regular-34" transform="translate(58.931929 0) scale(0.913673)"/>
     <use xlink:href="#NotoSerif-Regular-34" transform="translate(110.006224 0) scale(0.913673)"/>
    </g>
   </g>
   <g id="text_41">
    <!-- $\node{n20}$ -->
    <g transform="translate(44.77138 342.353937) scale(0.09 -0.09)">
     <use xlink:href="#NotoSerif-Regular-6e" transform="scale(0.913673)"/>
     <use xlink:href="#NotoSerif-Regular-32" transform="translate(58.931929 0) scale(0.913673)"/>
     <use xlink:href="#NotoSerif-Regular-30" transform="translate(110.006224 0) scale(0.913673)"/>
    </g>
   </g>
   <g id="text_42">
    <!-- $\node{n45}$ -->
    <g style="fill: #ffffff" transform="translate(3.73138 301.313937) scale(0.09 -0.09)">
     <use xlink:href="#NotoSerif-Regular-6e" transform="scale(0.913673)"/>
     <use xlink:href="#NotoSerif-Regular-34" transform="translate(58.931929 0) scale(0.913673)"/>
     <use xlink:href="#NotoSerif-Regular-35" transform="translate(110.006224 0) scale(0.913673)"/>
    </g>
   </g>
   <g id="text_43">
    <!-- $\node{n21}$ -->
    <g transform="translate(116.77138 342.353937) scale(0.09 -0.09)">
     <use xlink:href="#NotoSerif-Regular-6e" transform="scale(0.913673)"/>
     <use xlink:href="#NotoSerif-Regular-32" transform="translate(58.931929 0) scale(0.913673)"/>
     <use xlink:href="#NotoSerif-Regular-31" transform="translate(110.006224 0) scale(0.913673)"/>
    </g>
   </g>
   <g id="text_44">
    <!-- $\node{n46}$ -->
    <g style="fill: #ffffff" transform="translate(75.73138 301.313937) scale(0.09 -0.09)">
     <use xlink:href="#NotoSerif-Regular-6e" transform="scale(0.913673)"/>
     <use xlink:href="#NotoSerif-Regular-34" transform="translate(58.931929 0) scale(0.913673)"/>
     <use xlink:href="#NotoSerif-Regular-36" transform="translate(110.006224 0) scale(0.913673)"/>
    </g>
   </g>
   <g id="text_45">
    <!-- $\node{n22}$ -->
    <g transform="translate(188.77138 342.353937) scale(0.09 -0.09)">
     <use xlink:href="#NotoSerif-Regular-6e" transform="scale(0.913673)"/>
     <use xlink:href="#NotoSerif-Regular-32" transform="translate(58.931929 0) scale(0.913673)"/>
     <use xlink:href="#NotoSerif-Regular-32" transform="translate(110.006224 0) scale(0.913673)"/>
    </g>
   </g>
   <g id="text_46">
    <!-- $\node{n47}$ -->
    <g style="fill: #ffffff" transform="translate(147.73138 301.313937) scale(0.09 -0.09)">
     <use xlink:href="#NotoSerif-Regular-6e" transform="scale(0.913673)"/>
     <use xlink:href="#NotoSerif-Regular-34" transform="translate(58.931929 0) scale(0.913673)"/>
     <use xlink:href="#NotoSerif-Regular-37" transform="translate(110.006224 0) scale(0.913673)"/>
    </g>
   </g>
   <g id="text_47">
    <!-- $\node{n23}$ -->
    <g transform="translate(260.77138 342.353937) scale(0.09 -0.09)">
     <use xlink:href="#NotoSerif-Regular-6e" transform="scale(0.913673)"/>
     <use xlink:href="#NotoSerif-Regular-32" transform="translate(58.931929 0) scale(0.913673)"/>
     <use xlink:href="#NotoSerif-Regular-33" transform="translate(110.006224 0) scale(0.913673)"/>
    </g>
   </g>
   <g id="text_48">
    <!-- $\node{n48}$ -->
    <g style="fill: #ffffff" transform="translate(219.73138 301.313937) scale(0.09 -0.09)">
     <use xlink:href="#NotoSerif-Regular-6e" transform="scale(0.913673)"/>
     <use xlink:href="#NotoSerif-Regular-34" transform="translate(58.931929 0) scale(0.913673)"/>
     <use xlink:href="#NotoSerif-Regular-38" transform="translate(110.006224 0) scale(0.913673)"/>
    </g>
   </g>
   <g id="text_49">
    <!-- $\node{n24}$ -->
    <g transform="translate(332.77138 342.353937) scale(0.09 -0.09)">
     <use xlink:href="#NotoSerif-Regular-6e" transform="scale(0.913673)"/>
     <use xlink:href="#NotoSerif-Regular-32" transform="translate(58.931929 0) scale(0.913673)"/>
     <use xlink:href="#NotoSerif-Regular-34" transform="translate(110.006224 0) scale(0.913673)"/>
    </g>
   </g>
   <g id="text_50">
    <!-- $\node{n49}$ -->
    <g style="fill: #ffffff" transform="translate(291.73138 301.313937) scale(0.09 -0.09)">
     <use xlink:href="#NotoSerif-Regular-6e" transform="scale(0.913673)"/>
     <use xlink:href="#NotoSerif-Regular-34" transform="translate(58.931929 0) scale(0.913673)"/>
     <use xlink:href="#NotoSerif-Regular-39" transform="translate(110.006224 0) scale(0.913673)"/>
    </g>
   </g>
  </g>
 </g>
 <defs>
  <clipPath id="p9d1f16bcb0">
   <rect x="0" y="0" width="350.964" height="350.964"/>
  </clipPath>
 </defs>
</svg>
