<?xml version="1.0" encoding="utf-8" standalone="no"?>
<!DOCTYPE svg PUBLIC "-//W3C//DTD SVG 1.1//EN"
  "http://www.w3.org/Graphics/SVG/1.1/DTD/svg11.dtd">
<svg xmlns:xlink="http://www.w3.org/1999/xlink" width="412.2pt" height="412.2pt" viewBox="0 0 412.2 412.2" xmlns="http://www.w3.org/2000/svg" version="1.1">
 <metadata>
  <rdf:RDF xmlns:dc="http://purl.org/dc/elements/1.1/" xmlns:cc="http://creativecommons.org/ns#" xmlns:rdf="http://www.w3.org/1999/02/22-rdf-syntax-ns#">
   <cc:Work>
    <dc:type rdf:resource="http://purl.org/dc/dcmitype/StillImage"/>
    <dc:date>2024-08-26T18:01:12.995187</dc:date>
    <dc:format>image/svg+xml</dc:format>
    <dc:creator>
     <cc:Agent>
      <dc:title>Matplotlib v3.8.3, https://matplotlib.org/</dc:title>
     </cc:Agent>
    </dc:creator>
   </cc:Work>
  </rdf:RDF>
 </metadata>
 <defs>
  <style type="text/css">*{stroke-linejoin: round; stroke-linecap: butt}</style>
 </defs>
 <g id="figure_1">
  <g id="patch_1">
   <path d="M 0 412.2 
L 412.2 412.2 
L 412.2 0 
L 0 0 
z
" style="fill: #ffffff"/>
  </g>
  <g id="axes_1">
   <g id="patch_2">
    <path d="M 343.62 216.036 
C 346.255058 216.036 348.782546 214.98908 350.645813 213.125813 
C 352.50908 211.262546 353.556 208.735058 353.556 206.1 
C 353.556 203.464942 352.50908 200.937454 350.645813 199.074187 
C 348.782546 197.21092 346.255058 196.164 343.62 196.164 
C 340.984942 196.164 338.457454 197.21092 336.594187 199.074187 
C 334.73092 200.937454 333.684 203.464942 333.684 206.1 
C 333.684 208.735058 334.73092 211.262546 336.594187 213.125813 
C 338.457454 214.98908 340.984942 216.036 343.62 216.036 
z
" style="fill: #8caed1; stroke: #8caed1; stroke-linejoin: miter"/>
   </g>
   <g id="patch_3">
    <path d="M 324.9 147.636 
C 327.535058 147.636 330.062546 146.58908 331.925813 144.725813 
C 333.78908 142.862546 334.836 140.335058 334.836 137.7 
C 334.836 135.064942 333.78908 132.537454 331.925813 130.674187 
C 330.062546 128.81092 327.535058 127.764 324.9 127.764 
C 322.264942 127.764 319.737454 128.81092 317.874187 130.674187 
C 316.01092 132.537454 314.964 135.064942 314.964 137.7 
C 314.964 140.335058 316.01092 142.862546 317.874187 144.725813 
C 319.737454 146.58908 322.264942 147.636 324.9 147.636 
z
" style="fill: #8caed1; stroke: #8caed1; stroke-linejoin: miter"/>
   </g>
   <g id="patch_4">
    <path d="M 274.5 97.236 
C 277.135058 97.236 279.662546 96.18908 281.525813 94.325813 
C 283.38908 92.462546 284.436 89.935058 284.436 87.3 
C 284.436 84.664942 283.38908 82.137454 281.525813 80.274187 
C 279.662546 78.41092 277.135058 77.364 274.5 77.364 
C 271.864942 77.364 269.337454 78.41092 267.474187 80.274187 
C 265.61092 82.137454 264.564 84.664942 264.564 87.3 
C 264.564 89.935058 265.61092 92.462546 267.474187 94.325813 
C 269.337454 96.18908 271.864942 97.236 274.5 97.236 
z
" style="fill: #8caed1; stroke: #8caed1; stroke-linejoin: miter"/>
   </g>
   <g id="patch_5">
    <path d="M 206.1 78.516 
C 208.735058 78.516 211.262546 77.46908 213.125813 75.605813 
C 214.98908 73.742546 216.036 71.215058 216.036 68.58 
C 216.036 65.944942 214.98908 63.417454 213.125813 61.554187 
C 211.262546 59.69092 208.735058 58.644 206.1 58.644 
C 203.464942 58.644 200.937454 59.69092 199.074187 61.554187 
C 197.21092 63.417454 196.164 65.944942 196.164 68.58 
C 196.164 71.215058 197.21092 73.742546 199.074187 75.605813 
C 200.937454 77.46908 203.464942 78.516 206.1 78.516 
z
" style="fill: #8caed1; stroke: #8caed1; stroke-linejoin: miter"/>
   </g>
   <g id="patch_6">
    <path d="M 137.7 97.236 
C 140.335058 97.236 142.862546 96.18908 144.725813 94.325813 
C 146.58908 92.462546 147.636 89.935058 147.636 87.3 
C 147.636 84.664942 146.58908 82.137454 144.725813 80.274187 
C 142.862546 78.41092 140.335058 77.364 137.7 77.364 
C 135.064942 77.364 132.537454 78.41092 130.674187 80.274187 
C 128.81092 82.137454 127.764 84.664942 127.764 87.3 
C 127.764 89.935058 128.81092 92.462546 130.674187 94.325813 
C 132.537454 96.18908 135.064942 97.236 137.7 97.236 
z
" style="fill: #8caed1; stroke: #8caed1; stroke-linejoin: miter"/>
   </g>
   <g id="patch_7">
    <path d="M 87.3 147.636 
C 89.935058 147.636 92.462546 146.58908 94.325813 144.725813 
C 96.18908 142.862546 97.236 140.335058 97.236 137.7 
C 97.236 135.064942 96.18908 132.537454 94.325813 130.674187 
C 92.462546 128.81092 89.935058 127.764 87.3 127.764 
C 84.664942 127.764 82.137454 128.81092 80.274187 130.674187 
C 78.41092 132.537454 77.364 135.064942 77.364 137.7 
C 77.364 140.335058 78.41092 142.862546 80.274187 144.725813 
C 82.137454 146.58908 84.664942 147.636 87.3 147.636 
z
" style="fill: #8caed1; stroke: #8caed1; stroke-linejoin: miter"/>
   </g>
   <g id="patch_8">
    <path d="M 68.58 216.036 
C 71.215058 216.036 73.742546 214.98908 75.605813 213.125813 
C 77.46908 211.262546 78.516 208.735058 78.516 206.1 
C 78.516 203.464942 77.46908 200.937454 75.605813 199.074187 
C 73.742546 197.21092 71.215058 196.164 68.58 196.164 
C 65.944942 196.164 63.417454 197.21092 61.554187 199.074187 
C 59.69092 200.937454 58.644 203.464942 58.644 206.1 
C 58.644 208.735058 59.69092 211.262546 61.554187 213.125813 
C 63.417454 214.98908 65.944942 216.036 68.58 216.036 
z
" style="fill: #8caed1; stroke: #8caed1; stroke-linejoin: miter"/>
   </g>
   <g id="patch_9">
    <path d="M 87.3 284.436 
C 89.935058 284.436 92.462546 283.38908 94.325813 281.525813 
C 96.18908 279.662546 97.236 277.135058 97.236 274.5 
C 97.236 271.864942 96.18908 269.337454 94.325813 267.474187 
C 92.462546 265.61092 89.935058 264.564 87.3 264.564 
C 84.664942 264.564 82.137454 265.61092 80.274187 267.474187 
C 78.41092 269.337454 77.364 271.864942 77.364 274.5 
C 77.364 277.135058 78.41092 279.662546 80.274187 281.525813 
C 82.137454 283.38908 84.664942 284.436 87.3 284.436 
z
" style="fill: #8caed1; stroke: #8caed1; stroke-linejoin: miter"/>
   </g>
   <g id="patch_10">
    <path d="M 137.7 334.836 
C 140.335058 334.836 142.862546 333.78908 144.725813 331.925813 
C 146.58908 330.062546 147.636 327.535058 147.636 324.9 
C 147.636 322.264942 146.58908 319.737454 144.725813 317.874187 
C 142.862546 316.01092 140.335058 314.964 137.7 314.964 
C 135.064942 314.964 132.537454 316.01092 130.674187 317.874187 
C 128.81092 319.737454 127.764 322.264942 127.764 324.9 
C 127.764 327.535058 128.81092 330.062546 130.674187 331.925813 
C 132.537454 333.78908 135.064942 334.836 137.7 334.836 
z
" style="fill: #8caed1; stroke: #8caed1; stroke-linejoin: miter"/>
   </g>
   <g id="patch_11">
    <path d="M 206.1 353.556 
C 208.735058 353.556 211.262546 352.50908 213.125813 350.645813 
C 214.98908 348.782546 216.036 346.255058 216.036 343.62 
C 216.036 340.984942 214.98908 338.457454 213.125813 336.594187 
C 211.262546 334.73092 208.735058 333.684 206.1 333.684 
C 203.464942 333.684 200.937454 334.73092 199.074187 336.594187 
C 197.21092 338.457454 196.164 340.984942 196.164 343.62 
C 196.164 346.255058 197.21092 348.782546 199.074187 350.645813 
C 200.937454 352.50908 203.464942 353.556 206.1 353.556 
z
" style="fill: #8caed1; stroke: #8caed1; stroke-linejoin: miter"/>
   </g>
   <g id="patch_12">
    <path d="M 274.5 334.836 
C 277.135058 334.836 279.662546 333.78908 281.525813 331.925813 
C 283.38908 330.062546 284.436 327.535058 284.436 324.9 
C 284.436 322.264942 283.38908 319.737454 281.525813 317.874187 
C 279.662546 316.01092 277.135058 314.964 274.5 314.964 
C 271.864942 314.964 269.337454 316.01092 267.474187 317.874187 
C 265.61092 319.737454 264.564 322.264942 264.564 324.9 
C 264.564 327.535058 265.61092 330.062546 267.474187 331.925813 
C 269.337454 333.78908 271.864942 334.836 274.5 334.836 
z
" style="fill: #8caed1; stroke: #8caed1; stroke-linejoin: miter"/>
   </g>
   <g id="patch_13">
    <path d="M 324.9 284.436 
C 327.535058 284.436 330.062546 283.38908 331.925813 281.525813 
C 333.78908 279.662546 334.836 277.135058 334.836 274.5 
C 334.836 271.864942 333.78908 269.337454 331.925813 267.474187 
C 330.062546 265.61092 327.535058 264.564 324.9 264.564 
C 322.264942 264.564 319.737454 265.61092 317.874187 267.474187 
C 316.01092 269.337454 314.964 271.864942 314.964 274.5 
C 314.964 277.135058 316.01092 279.662546 317.874187 281.525813 
C 319.737454 283.38908 322.264942 284.436 324.9 284.436 
z
" style="fill: #8caed1; stroke: #8caed1; stroke-linejoin: miter"/>
   </g>
   <g id="patch_14">
    <path d="M 392.76 214.56 
L 409.68 214.56 
L 409.68 197.64 
L 392.76 197.64 
z
" style="fill: #2967a9; stroke: #2967a9; stroke-width: 4"/>
   </g>
   <g id="patch_15">
    <path d="M 366.84 117.36 
L 383.76 117.36 
L 383.76 100.44 
L 366.84 100.44 
z
" style="fill: #2967a9; stroke: #2967a9; stroke-width: 4"/>
   </g>
   <g id="patch_16">
    <path d="M 294.84 45.36 
L 311.76 45.36 
L 311.76 28.44 
L 294.84 28.44 
z
" style="fill: #2967a9; stroke: #2967a9; stroke-width: 4"/>
   </g>
   <g id="patch_17">
    <path d="M 197.64 19.44 
L 214.56 19.44 
L 214.56 2.52 
L 197.64 2.52 
z
" style="fill: #2967a9; stroke: #2967a9; stroke-width: 4"/>
   </g>
   <g id="patch_18">
    <path d="M 100.44 45.36 
L 117.36 45.36 
L 117.36 28.44 
L 100.44 28.44 
z
" style="fill: #2967a9; stroke: #2967a9; stroke-width: 4"/>
   </g>
   <g id="patch_19">
    <path d="M 28.44 117.36 
L 45.36 117.36 
L 45.36 100.44 
L 28.44 100.44 
z
" style="fill: #2967a9; stroke: #2967a9; stroke-width: 4"/>
   </g>
   <g id="patch_20">
    <path d="M 2.52 214.56 
L 19.44 214.56 
L 19.44 197.64 
L 2.52 197.64 
z
" style="fill: #2967a9; stroke: #2967a9; stroke-width: 4"/>
   </g>
   <g id="patch_21">
    <path d="M 28.44 311.76 
L 45.36 311.76 
L 45.36 294.84 
L 28.44 294.84 
z
" style="fill: #2967a9; stroke: #2967a9; stroke-width: 4"/>
   </g>
   <g id="patch_22">
    <path d="M 100.44 383.76 
L 117.36 383.76 
L 117.36 366.84 
L 100.44 366.84 
z
" style="fill: #2967a9; stroke: #2967a9; stroke-width: 4"/>
   </g>
   <g id="patch_23">
    <path d="M 197.64 409.68 
L 214.56 409.68 
L 214.56 392.76 
L 197.64 392.76 
z
" style="fill: #2967a9; stroke: #2967a9; stroke-width: 4"/>
   </g>
   <g id="patch_24">
    <path d="M 294.84 383.76 
L 311.76 383.76 
L 311.76 366.84 
L 294.84 366.84 
z
" style="fill: #2967a9; stroke: #2967a9; stroke-width: 4"/>
   </g>
   <g id="patch_25">
    <path d="M 366.84 311.76 
L 383.76 311.76 
L 383.76 294.84 
L 366.84 294.84 
z
" style="fill: #2967a9; stroke: #2967a9; stroke-width: 4"/>
   </g>
   <g id="patch_26">
    <path d="M 338.433481 194.824509 
Q 329.38179 173.255204 326.336303 151.191468 
" clip-path="url(#pe7f2c96181)" style="fill: none; stroke: #bfc6c9; stroke-linecap: round"/>
    <path d="M 324.830314 155.639164 
L 326.336303 151.191468 
L 328.990866 155.064877 
" clip-path="url(#pe7f2c96181)" style="fill: none; stroke: #bfc6c9; stroke-linecap: round"/>
   </g>
   <g id="patch_27">
    <path d="M 342.335987 218.488162 
Q 339.137495 241.656369 330.519775 262.192077 
" clip-path="url(#pe7f2c96181)" style="fill: none; stroke: #bfc6c9; stroke-linecap: round"/>
    <path d="M 334.081392 259.131867 
L 330.519775 262.192077 
L 330.208577 257.506657 
" clip-path="url(#pe7f2c96181)" style="fill: none; stroke: #bfc6c9; stroke-linecap: round"/>
   </g>
   <g id="patch_28">
    <path d="M 355.873982 204.170593 
Q 372.322379 202.280624 387.659879 204.022152 
" clip-path="url(#pe7f2c96181)" style="fill: none; stroke: #bfc6c9; stroke-linecap: round"/>
    <path d="M 383.723622 201.461708 
L 387.659879 204.022152 
L 383.249769 205.634891 
" clip-path="url(#pe7f2c96181)" style="fill: none; stroke: #bfc6c9; stroke-linecap: round"/>
   </g>
   <g id="patch_29">
    <path d="M 314.809673 130.477525 
Q 296.092839 116.10524 282.401717 98.274922 
" clip-path="url(#pe7f2c96181)" style="fill: none; stroke: #bfc6c9; stroke-linecap: round"/>
    <path d="M 283.294009 102.885108 
L 282.401717 98.274922 
L 286.625241 100.3272 
" clip-path="url(#pe7f2c96181)" style="fill: none; stroke: #bfc6c9; stroke-linecap: round"/>
   </g>
   <g id="patch_30">
    <path d="M 330.086519 148.975491 
Q 339.13821 170.544796 342.183697 192.608532 
" clip-path="url(#pe7f2c96181)" style="fill: none; stroke: #bfc6c9; stroke-linecap: round"/>
    <path d="M 343.689686 188.160836 
L 342.183697 192.608532 
L 339.529134 188.735123 
" clip-path="url(#pe7f2c96181)" style="fill: none; stroke: #bfc6c9; stroke-linecap: round"/>
   </g>
   <g id="patch_31">
    <path d="M 334.616402 129.915 
Q 347.891127 120.156843 361.971828 114.049025 
" clip-path="url(#pe7f2c96181)" style="fill: none; stroke: #bfc6c9; stroke-linecap: round"/>
    <path d="M 357.283024 113.793842 
L 361.971828 114.049025 
L 358.954399 117.646959 
" clip-path="url(#pe7f2c96181)" style="fill: none; stroke: #bfc6c9; stroke-linecap: round"/>
   </g>
   <g id="patch_32">
    <path d="M 262.111838 86.015987 
Q 238.943631 82.817495 218.407923 74.199775 
" clip-path="url(#pe7f2c96181)" style="fill: none; stroke: #bfc6c9; stroke-linecap: round"/>
    <path d="M 221.468133 77.761392 
L 218.407923 74.199775 
L 223.093343 73.888577 
" clip-path="url(#pe7f2c96181)" style="fill: none; stroke: #bfc6c9; stroke-linecap: round"/>
   </g>
   <g id="patch_33">
    <path d="M 284.590327 94.522475 
Q 303.307161 108.89476 316.998283 126.725078 
" clip-path="url(#pe7f2c96181)" style="fill: none; stroke: #bfc6c9; stroke-linecap: round"/>
    <path d="M 316.105991 122.114892 
L 316.998283 126.725078 
L 312.774759 124.6728 
" clip-path="url(#pe7f2c96181)" style="fill: none; stroke: #bfc6c9; stroke-linecap: round"/>
   </g>
   <g id="patch_34">
    <path d="M 278.902733 75.697229 
Q 284.955933 61.543187 293.163195 49.901937 
" clip-path="url(#pe7f2c96181)" style="fill: none; stroke: #bfc6c9; stroke-linecap: round"/>
    <path d="M 289.026779 52.124562 
L 293.163195 49.901937 
L 292.459445 54.544645 
" clip-path="url(#pe7f2c96181)" style="fill: none; stroke: #bfc6c9; stroke-linecap: round"/>
   </g>
   <g id="patch_35">
    <path d="M 194.824509 73.766519 
Q 173.255204 82.81821 151.191468 85.863697 
" clip-path="url(#pe7f2c96181)" style="fill: none; stroke: #bfc6c9; stroke-linecap: round"/>
    <path d="M 155.639164 87.369686 
L 151.191468 85.863697 
L 155.064877 83.209134 
" clip-path="url(#pe7f2c96181)" style="fill: none; stroke: #bfc6c9; stroke-linecap: round"/>
   </g>
   <g id="patch_36">
    <path d="M 218.488162 69.864013 
Q 241.656369 73.062505 262.192077 81.680225 
" clip-path="url(#pe7f2c96181)" style="fill: none; stroke: #bfc6c9; stroke-linecap: round"/>
    <path d="M 259.131867 78.118608 
L 262.192077 81.680225 
L 257.506657 81.991423 
" clip-path="url(#pe7f2c96181)" style="fill: none; stroke: #bfc6c9; stroke-linecap: round"/>
   </g>
   <g id="patch_37">
    <path d="M 204.170593 56.326018 
Q 202.280624 39.877621 204.022152 24.540121 
" clip-path="url(#pe7f2c96181)" style="fill: none; stroke: #bfc6c9; stroke-linecap: round"/>
    <path d="M 201.461708 28.476378 
L 204.022152 24.540121 
L 205.634891 28.950231 
" clip-path="url(#pe7f2c96181)" style="fill: none; stroke: #bfc6c9; stroke-linecap: round"/>
   </g>
   <g id="patch_38">
    <path d="M 130.477525 97.390327 
Q 116.10524 116.107161 98.274922 129.798283 
" clip-path="url(#pe7f2c96181)" style="fill: none; stroke: #bfc6c9; stroke-linecap: round"/>
    <path d="M 102.885108 128.905991 
L 98.274922 129.798283 
L 100.3272 125.574759 
" clip-path="url(#pe7f2c96181)" style="fill: none; stroke: #bfc6c9; stroke-linecap: round"/>
   </g>
   <g id="patch_39">
    <path d="M 148.975491 82.113481 
Q 170.544796 73.06179 192.608532 70.016303 
" clip-path="url(#pe7f2c96181)" style="fill: none; stroke: #bfc6c9; stroke-linecap: round"/>
    <path d="M 188.160836 68.510314 
L 192.608532 70.016303 
L 188.735123 72.670866 
" clip-path="url(#pe7f2c96181)" style="fill: none; stroke: #bfc6c9; stroke-linecap: round"/>
   </g>
   <g id="patch_40">
    <path d="M 129.915 77.583598 
Q 120.156843 64.308873 114.049025 50.228172 
" clip-path="url(#pe7f2c96181)" style="fill: none; stroke: #bfc6c9; stroke-linecap: round"/>
    <path d="M 113.793842 54.916976 
L 114.049025 50.228172 
L 117.646959 53.245601 
" clip-path="url(#pe7f2c96181)" style="fill: none; stroke: #bfc6c9; stroke-linecap: round"/>
   </g>
   <g id="patch_41">
    <path d="M 86.015987 150.088162 
Q 82.817495 173.256369 74.199775 193.792077 
" clip-path="url(#pe7f2c96181)" style="fill: none; stroke: #bfc6c9; stroke-linecap: round"/>
    <path d="M 77.761392 190.731867 
L 74.199775 193.792077 
L 73.888577 189.106657 
" clip-path="url(#pe7f2c96181)" style="fill: none; stroke: #bfc6c9; stroke-linecap: round"/>
   </g>
   <g id="patch_42">
    <path d="M 94.522475 127.609673 
Q 108.89476 108.892839 126.725078 95.201717 
" clip-path="url(#pe7f2c96181)" style="fill: none; stroke: #bfc6c9; stroke-linecap: round"/>
    <path d="M 122.114892 96.094009 
L 126.725078 95.201717 
L 124.6728 99.425241 
" clip-path="url(#pe7f2c96181)" style="fill: none; stroke: #bfc6c9; stroke-linecap: round"/>
   </g>
   <g id="patch_43">
    <path d="M 75.697229 133.297267 
Q 61.543187 127.244067 49.901937 119.036805 
" clip-path="url(#pe7f2c96181)" style="fill: none; stroke: #bfc6c9; stroke-linecap: round"/>
    <path d="M 52.124562 123.173221 
L 49.901937 119.036805 
L 54.544645 119.740555 
" clip-path="url(#pe7f2c96181)" style="fill: none; stroke: #bfc6c9; stroke-linecap: round"/>
   </g>
   <g id="patch_44">
    <path d="M 73.766519 217.375491 
Q 82.81821 238.944796 85.863697 261.008532 
" clip-path="url(#pe7f2c96181)" style="fill: none; stroke: #bfc6c9; stroke-linecap: round"/>
    <path d="M 87.369686 256.560836 
L 85.863697 261.008532 
L 83.209134 257.135123 
" clip-path="url(#pe7f2c96181)" style="fill: none; stroke: #bfc6c9; stroke-linecap: round"/>
   </g>
   <g id="patch_45">
    <path d="M 69.864013 193.711838 
Q 73.062505 170.543631 81.680225 150.007923 
" clip-path="url(#pe7f2c96181)" style="fill: none; stroke: #bfc6c9; stroke-linecap: round"/>
    <path d="M 78.118608 153.068133 
L 81.680225 150.007923 
L 81.991423 154.693343 
" clip-path="url(#pe7f2c96181)" style="fill: none; stroke: #bfc6c9; stroke-linecap: round"/>
   </g>
   <g id="patch_46">
    <path d="M 56.326018 208.029407 
Q 39.877621 209.919376 24.540121 208.177848 
" clip-path="url(#pe7f2c96181)" style="fill: none; stroke: #bfc6c9; stroke-linecap: round"/>
    <path d="M 28.476378 210.738292 
L 24.540121 208.177848 
L 28.950231 206.565109 
" clip-path="url(#pe7f2c96181)" style="fill: none; stroke: #bfc6c9; stroke-linecap: round"/>
   </g>
   <g id="patch_47">
    <path d="M 97.390327 281.722475 
Q 116.107161 296.09476 129.798283 313.925078 
" clip-path="url(#pe7f2c96181)" style="fill: none; stroke: #bfc6c9; stroke-linecap: round"/>
    <path d="M 128.905991 309.314892 
L 129.798283 313.925078 
L 125.574759 311.8728 
" clip-path="url(#pe7f2c96181)" style="fill: none; stroke: #bfc6c9; stroke-linecap: round"/>
   </g>
   <g id="patch_48">
    <path d="M 82.113481 263.224509 
Q 73.06179 241.655204 70.016303 219.591468 
" clip-path="url(#pe7f2c96181)" style="fill: none; stroke: #bfc6c9; stroke-linecap: round"/>
    <path d="M 68.510314 224.039164 
L 70.016303 219.591468 
L 72.670866 223.464877 
" clip-path="url(#pe7f2c96181)" style="fill: none; stroke: #bfc6c9; stroke-linecap: round"/>
   </g>
   <g id="patch_49">
    <path d="M 77.583598 282.285 
Q 64.308873 292.043157 50.228172 298.150975 
" clip-path="url(#pe7f2c96181)" style="fill: none; stroke: #bfc6c9; stroke-linecap: round"/>
    <path d="M 54.916976 298.406158 
L 50.228172 298.150975 
L 53.245601 294.553041 
" clip-path="url(#pe7f2c96181)" style="fill: none; stroke: #bfc6c9; stroke-linecap: round"/>
   </g>
   <g id="patch_50">
    <path d="M 150.088162 326.184013 
Q 173.256369 329.382505 193.792077 338.000225 
" clip-path="url(#pe7f2c96181)" style="fill: none; stroke: #bfc6c9; stroke-linecap: round"/>
    <path d="M 190.731867 334.438608 
L 193.792077 338.000225 
L 189.106657 338.311423 
" clip-path="url(#pe7f2c96181)" style="fill: none; stroke: #bfc6c9; stroke-linecap: round"/>
   </g>
   <g id="patch_51">
    <path d="M 127.609673 317.677525 
Q 108.892839 303.30524 95.201717 285.474922 
" clip-path="url(#pe7f2c96181)" style="fill: none; stroke: #bfc6c9; stroke-linecap: round"/>
    <path d="M 96.094009 290.085108 
L 95.201717 285.474922 
L 99.425241 287.5272 
" clip-path="url(#pe7f2c96181)" style="fill: none; stroke: #bfc6c9; stroke-linecap: round"/>
   </g>
   <g id="patch_52">
    <path d="M 133.297267 336.502771 
Q 127.244067 350.656813 119.036805 362.298063 
" clip-path="url(#pe7f2c96181)" style="fill: none; stroke: #bfc6c9; stroke-linecap: round"/>
    <path d="M 123.173221 360.075438 
L 119.036805 362.298063 
L 119.740555 357.655355 
" clip-path="url(#pe7f2c96181)" style="fill: none; stroke: #bfc6c9; stroke-linecap: round"/>
   </g>
   <g id="patch_53">
    <path d="M 217.375491 338.433481 
Q 238.944796 329.38179 261.008532 326.336303 
" clip-path="url(#pe7f2c96181)" style="fill: none; stroke: #bfc6c9; stroke-linecap: round"/>
    <path d="M 256.560836 324.830314 
L 261.008532 326.336303 
L 257.135123 328.990866 
" clip-path="url(#pe7f2c96181)" style="fill: none; stroke: #bfc6c9; stroke-linecap: round"/>
   </g>
   <g id="patch_54">
    <path d="M 193.711838 342.335987 
Q 170.543631 339.137495 150.007923 330.519775 
" clip-path="url(#pe7f2c96181)" style="fill: none; stroke: #bfc6c9; stroke-linecap: round"/>
    <path d="M 153.068133 334.081392 
L 150.007923 330.519775 
L 154.693343 330.208577 
" clip-path="url(#pe7f2c96181)" style="fill: none; stroke: #bfc6c9; stroke-linecap: round"/>
   </g>
   <g id="patch_55">
    <path d="M 208.029407 355.873982 
Q 209.919376 372.322379 208.177848 387.659879 
" clip-path="url(#pe7f2c96181)" style="fill: none; stroke: #bfc6c9; stroke-linecap: round"/>
    <path d="M 210.738292 383.723622 
L 208.177848 387.659879 
L 206.565109 383.249769 
" clip-path="url(#pe7f2c96181)" style="fill: none; stroke: #bfc6c9; stroke-linecap: round"/>
   </g>
   <g id="patch_56">
    <path d="M 281.722475 314.809673 
Q 296.09476 296.092839 313.925078 282.401717 
" clip-path="url(#pe7f2c96181)" style="fill: none; stroke: #bfc6c9; stroke-linecap: round"/>
    <path d="M 309.314892 283.294009 
L 313.925078 282.401717 
L 311.8728 286.625241 
" clip-path="url(#pe7f2c96181)" style="fill: none; stroke: #bfc6c9; stroke-linecap: round"/>
   </g>
   <g id="patch_57">
    <path d="M 263.224509 330.086519 
Q 241.655204 339.13821 219.591468 342.183697 
" clip-path="url(#pe7f2c96181)" style="fill: none; stroke: #bfc6c9; stroke-linecap: round"/>
    <path d="M 224.039164 343.689686 
L 219.591468 342.183697 
L 223.464877 339.529134 
" clip-path="url(#pe7f2c96181)" style="fill: none; stroke: #bfc6c9; stroke-linecap: round"/>
   </g>
   <g id="patch_58">
    <path d="M 282.285 334.616402 
Q 292.043157 347.891127 298.150975 361.971828 
" clip-path="url(#pe7f2c96181)" style="fill: none; stroke: #bfc6c9; stroke-linecap: round"/>
    <path d="M 298.406158 357.283024 
L 298.150975 361.971828 
L 294.553041 358.954399 
" clip-path="url(#pe7f2c96181)" style="fill: none; stroke: #bfc6c9; stroke-linecap: round"/>
   </g>
   <g id="patch_59">
    <path d="M 326.184013 262.111838 
Q 329.382505 238.943631 338.000225 218.407923 
" clip-path="url(#pe7f2c96181)" style="fill: none; stroke: #bfc6c9; stroke-linecap: round"/>
    <path d="M 334.438608 221.468133 
L 338.000225 218.407923 
L 338.311423 223.093343 
" clip-path="url(#pe7f2c96181)" style="fill: none; stroke: #bfc6c9; stroke-linecap: round"/>
   </g>
   <g id="patch_60">
    <path d="M 317.677525 284.590327 
Q 303.30524 303.307161 285.474922 316.998283 
" clip-path="url(#pe7f2c96181)" style="fill: none; stroke: #bfc6c9; stroke-linecap: round"/>
    <path d="M 290.085108 316.105991 
L 285.474922 316.998283 
L 287.5272 312.774759 
" clip-path="url(#pe7f2c96181)" style="fill: none; stroke: #bfc6c9; stroke-linecap: round"/>
   </g>
   <g id="patch_61">
    <path d="M 336.502771 278.902733 
Q 350.656813 284.955933 362.298063 293.163195 
" clip-path="url(#pe7f2c96181)" style="fill: none; stroke: #bfc6c9; stroke-linecap: round"/>
    <path d="M 360.075438 289.026779 
L 362.298063 293.163195 
L 357.655355 292.459445 
" clip-path="url(#pe7f2c96181)" style="fill: none; stroke: #bfc6c9; stroke-linecap: round"/>
   </g>
   <g id="patch_62">
    <path d="M 388.776391 208.051071 
Q 372.329789 209.919176 356.993922 208.15802 
" clip-path="url(#pe7f2c96181)" style="fill: none; stroke: #bfc6c9; stroke-linecap: round"/>
    <path d="M 360.926911 210.723483 
L 356.993922 208.15802 
L 361.406085 206.550907 
" clip-path="url(#pe7f2c96181)" style="fill: none; stroke: #bfc6c9; stroke-linecap: round"/>
   </g>
   <g id="patch_63">
    <path d="M 363.21697 118.38896 
Q 350.660403 127.242339 337.532305 132.856956 
" clip-path="url(#pe7f2c96181)" style="fill: none; stroke: #bfc6c9; stroke-linecap: round"/>
    <path d="M 342.219735 133.136233 
L 337.532305 132.856956 
L 340.568185 129.274578 
" clip-path="url(#pe7f2c96181)" style="fill: none; stroke: #bfc6c9; stroke-linecap: round"/>
   </g>
   <g id="patch_64">
    <path d="M 298.596322 49.201487 
Q 292.043575 64.308212 282.947483 76.682368 
" clip-path="url(#pe7f2c96181)" style="fill: none; stroke: #bfc6c9; stroke-linecap: round"/>
    <path d="M 287.127104 74.542094 
L 282.947483 76.682368 
L 283.743036 72.054507 
" clip-path="url(#pe7f2c96181)" style="fill: none; stroke: #bfc6c9; stroke-linecap: round"/>
   </g>
   <g id="patch_65">
    <path d="M 208.051071 23.423609 
Q 209.919176 39.870211 208.15802 55.206078 
" clip-path="url(#pe7f2c96181)" style="fill: none; stroke: #bfc6c9; stroke-linecap: round"/>
    <path d="M 210.723483 51.273089 
L 208.15802 55.206078 
L 206.550907 50.793915 
" clip-path="url(#pe7f2c96181)" style="fill: none; stroke: #bfc6c9; stroke-linecap: round"/>
   </g>
   <g id="patch_66">
    <path d="M 118.38896 48.98303 
Q 127.242339 61.539597 132.856956 74.667695 
" clip-path="url(#pe7f2c96181)" style="fill: none; stroke: #bfc6c9; stroke-linecap: round"/>
    <path d="M 133.136233 69.980265 
L 132.856956 74.667695 
L 129.274578 71.631815 
" clip-path="url(#pe7f2c96181)" style="fill: none; stroke: #bfc6c9; stroke-linecap: round"/>
   </g>
   <g id="patch_67">
    <path d="M 49.201487 113.603678 
Q 64.308212 120.156425 76.682368 129.252517 
" clip-path="url(#pe7f2c96181)" style="fill: none; stroke: #bfc6c9; stroke-linecap: round"/>
    <path d="M 74.542094 125.072896 
L 76.682368 129.252517 
L 72.054507 128.456964 
" clip-path="url(#pe7f2c96181)" style="fill: none; stroke: #bfc6c9; stroke-linecap: round"/>
   </g>
   <g id="patch_68">
    <path d="M 23.423609 204.148929 
Q 39.870211 202.280824 55.206078 204.04198 
" clip-path="url(#pe7f2c96181)" style="fill: none; stroke: #bfc6c9; stroke-linecap: round"/>
    <path d="M 51.273089 201.476517 
L 55.206078 204.04198 
L 50.793915 205.649093 
" clip-path="url(#pe7f2c96181)" style="fill: none; stroke: #bfc6c9; stroke-linecap: round"/>
   </g>
   <g id="patch_69">
    <path d="M 48.98303 293.81104 
Q 61.539597 284.957661 74.667695 279.343044 
" clip-path="url(#pe7f2c96181)" style="fill: none; stroke: #bfc6c9; stroke-linecap: round"/>
    <path d="M 69.980265 279.063767 
L 74.667695 279.343044 
L 71.631815 282.925422 
" clip-path="url(#pe7f2c96181)" style="fill: none; stroke: #bfc6c9; stroke-linecap: round"/>
   </g>
   <g id="patch_70">
    <path d="M 113.603678 362.998513 
Q 120.156425 347.891788 129.252517 335.517632 
" clip-path="url(#pe7f2c96181)" style="fill: none; stroke: #bfc6c9; stroke-linecap: round"/>
    <path d="M 125.072896 337.657906 
L 129.252517 335.517632 
L 128.456964 340.145493 
" clip-path="url(#pe7f2c96181)" style="fill: none; stroke: #bfc6c9; stroke-linecap: round"/>
   </g>
   <g id="patch_71">
    <path d="M 204.148929 388.776391 
Q 202.280824 372.329789 204.04198 356.993922 
" clip-path="url(#pe7f2c96181)" style="fill: none; stroke: #bfc6c9; stroke-linecap: round"/>
    <path d="M 201.476517 360.926911 
L 204.04198 356.993922 
L 205.649093 361.406085 
" clip-path="url(#pe7f2c96181)" style="fill: none; stroke: #bfc6c9; stroke-linecap: round"/>
   </g>
   <g id="patch_72">
    <path d="M 293.81104 363.21697 
Q 284.957661 350.660403 279.343044 337.532305 
" clip-path="url(#pe7f2c96181)" style="fill: none; stroke: #bfc6c9; stroke-linecap: round"/>
    <path d="M 279.063767 342.219735 
L 279.343044 337.532305 
L 282.925422 340.568185 
" clip-path="url(#pe7f2c96181)" style="fill: none; stroke: #bfc6c9; stroke-linecap: round"/>
   </g>
   <g id="patch_73">
    <path d="M 362.998513 298.596322 
Q 347.891788 292.043575 335.517632 282.947483 
" clip-path="url(#pe7f2c96181)" style="fill: none; stroke: #bfc6c9; stroke-linecap: round"/>
    <path d="M 337.657906 287.127104 
L 335.517632 282.947483 
L 340.145493 283.743036 
" clip-path="url(#pe7f2c96181)" style="fill: none; stroke: #bfc6c9; stroke-linecap: round"/>
   </g>
   <g id="text_1">
    <!-- $\node{n0}$ -->
    <g transform="translate(338.669722 208.433937) scale(0.09 -0.09)">
     <defs>
      <path id="NotoSerif-Regular-6e" d="M 179 0 
L 1901 0 
L 1901 271 
L 1869 271 
C 1728 271 1606 297 1510 348 
C 1408 393 1357 516 1357 703 
L 1357 2063 
C 1357 2250 1382 2418 1434 2579 
C 1478 2740 1562 2863 1677 2966 
C 1786 3056 1939 3108 2131 3108 
C 2394 3108 2573 3030 2675 2876 
C 2784 2721 2835 2502 2835 2224 
L 2835 0 
L 3949 0 
L 3949 271 
L 3917 271 
C 3770 271 3654 297 3571 348 
C 3482 406 3437 535 3437 735 
L 3437 2257 
C 3437 2702 3341 3017 3149 3224 
C 2963 3417 2701 3520 2362 3520 
C 2157 3520 1971 3482 1805 3404 
C 1645 3333 1498 3172 1363 2934 
L 1331 2934 
L 1248 3456 
L 211 3456 
L 211 3185 
L 243 3185 
C 384 3185 506 3159 602 3108 
C 704 3056 755 2934 755 2747 
L 755 735 
C 755 535 704 406 602 348 
C 499 297 378 271 230 271 
L 179 271 
L 179 0 
z
" transform="scale(0.015625)"/>
      <path id="NotoSerif-Regular-30" d="M 1792 -64 
C 2131 -64 2406 32 2624 232 
C 2848 432 3014 710 3123 1058 
C 3232 1419 3290 1833 3290 2310 
C 3290 2787 3238 3201 3123 3562 
C 3021 3910 2854 4189 2630 4382 
C 2406 4575 2131 4672 1798 4672 
C 1446 4672 1158 4575 934 4382 
C 710 4189 550 3917 448 3562 
C 339 3207 288 2794 288 2317 
C 288 1840 339 1419 448 1065 
C 550 710 710 432 934 232 
C 1158 32 1440 -64 1792 -64 
z
M 1792 284 
C 1478 284 1261 464 1139 820 
C 1018 1174 954 1671 954 2310 
C 954 2950 1018 3446 1139 3794 
C 1267 4150 1485 4324 1798 4324 
C 2106 4324 2317 4150 2445 3794 
C 2560 3446 2624 2950 2624 2310 
C 2624 1671 2560 1174 2445 820 
C 2317 464 2106 284 1792 284 
z
" transform="scale(0.015625)"/>
     </defs>
     <use xlink:href="#NotoSerif-Regular-6e" transform="scale(0.913673)"/>
     <use xlink:href="#NotoSerif-Regular-30" transform="translate(58.931929 0) scale(0.913673)"/>
    </g>
   </g>
   <g id="text_2">
    <!-- $\node{n1}$ -->
    <g transform="translate(319.949722 140.033937) scale(0.09 -0.09)">
     <defs>
      <path id="NotoSerif-Regular-31" d="M 614 0 
L 3053 0 
L 3053 271 
L 2739 271 
C 2592 271 2470 297 2368 348 
C 2266 406 2214 536 2214 736 
L 2214 4640 
L 1805 4640 
L 1357 4303 
C 1146 4142 973 4031 832 3960 
C 685 3888 550 3837 422 3805 
C 422 3701 454 3618 512 3553 
C 570 3489 646 3456 742 3456 
C 870 3456 998 3521 1126 3644 
C 1261 3767 1408 3928 1568 4129 
L 1568 736 
C 1568 536 1517 406 1414 348 
C 1312 297 1190 271 1043 271 
L 614 271 
L 614 0 
z
" transform="scale(0.015625)"/>
     </defs>
     <use xlink:href="#NotoSerif-Regular-6e" transform="scale(0.913673)"/>
     <use xlink:href="#NotoSerif-Regular-31" transform="translate(58.931929 0) scale(0.913673)"/>
    </g>
   </g>
   <g id="text_3">
    <!-- $\node{n2}$ -->
    <g transform="translate(269.549722 89.633937) scale(0.09 -0.09)">
     <defs>
      <path id="NotoSerif-Regular-32" d="M 390 0 
L 3142 0 
L 3174 1116 
L 2906 1116 
L 2880 1000 
C 2848 878 2803 761 2733 664 
C 2662 567 2534 516 2342 516 
L 864 516 
L 1946 1723 
C 2285 2097 2547 2426 2733 2710 
C 2918 3000 3014 3291 3014 3594 
C 3014 3923 2899 4182 2669 4375 
C 2438 4575 2118 4672 1715 4672 
C 1299 4672 986 4588 781 4427 
C 563 4266 461 4060 461 3807 
C 461 3646 512 3536 621 3472 
C 730 3420 858 3388 1011 3388 
C 1011 3562 1030 3717 1062 3859 
C 1101 4008 1171 4124 1274 4214 
C 1376 4305 1523 4350 1715 4350 
C 1939 4350 2106 4272 2214 4124 
C 2317 3976 2368 3775 2368 3530 
C 2368 3330 2342 3143 2278 2969 
C 2227 2794 2131 2607 1997 2413 
C 1862 2214 1683 1981 1459 1716 
L 390 471 
L 390 0 
z
" transform="scale(0.015625)"/>
     </defs>
     <use xlink:href="#NotoSerif-Regular-6e" transform="scale(0.913673)"/>
     <use xlink:href="#NotoSerif-Regular-32" transform="translate(58.931929 0) scale(0.913673)"/>
    </g>
   </g>
   <g id="text_4">
    <!-- $\node{n3}$ -->
    <g transform="translate(201.149722 70.913937) scale(0.09 -0.09)">
     <defs>
      <path id="NotoSerif-Regular-33" d="M 1581 -64 
C 1766 -64 1952 -39 2138 6 
C 2330 53 2509 130 2669 234 
C 2829 344 2963 487 3059 662 
C 3155 843 3206 1063 3206 1322 
C 3206 1536 3168 1718 3091 1854 
C 3014 1997 2918 2113 2790 2198 
C 2675 2282 2541 2346 2406 2386 
C 2272 2431 2144 2457 2022 2470 
C 2221 2515 2394 2597 2547 2707 
C 2701 2823 2822 2964 2912 3118 
C 3002 3285 3046 3458 3046 3651 
C 3046 3979 2925 4229 2675 4402 
C 2432 4582 2106 4672 1702 4672 
C 1286 4672 973 4588 768 4428 
C 550 4268 448 4062 448 3811 
C 448 3651 499 3541 608 3478 
C 717 3426 845 3394 998 3394 
C 998 3567 1018 3721 1050 3863 
C 1088 4010 1158 4125 1261 4215 
C 1363 4305 1510 4350 1702 4350 
C 1952 4350 2125 4279 2227 4144 
C 2336 4004 2387 3805 2387 3554 
C 2387 3355 2342 3176 2253 3028 
C 2163 2880 2042 2765 1894 2681 
C 1741 2598 1568 2560 1382 2560 
L 1178 2560 
L 1178 2231 
L 1382 2231 
C 1741 2231 2022 2146 2227 1984 
C 2438 1822 2541 1602 2541 1329 
C 2541 1069 2496 862 2406 712 
C 2317 563 2202 452 2061 388 
C 1914 316 1760 284 1587 284 
C 1325 284 1126 361 986 504 
C 845 660 774 842 774 1069 
C 653 1069 557 1030 486 959 
C 410 887 371 784 371 654 
C 371 466 467 299 659 156 
C 851 6 1158 -64 1581 -64 
z
" transform="scale(0.015625)"/>
     </defs>
     <use xlink:href="#NotoSerif-Regular-6e" transform="scale(0.913673)"/>
     <use xlink:href="#NotoSerif-Regular-33" transform="translate(58.931929 0) scale(0.913673)"/>
    </g>
   </g>
   <g id="text_5">
    <!-- $\node{n4}$ -->
    <g transform="translate(132.749722 89.633937) scale(0.09 -0.09)">
     <defs>
      <path id="NotoSerif-Regular-34" d="M 1376 0 
L 3302 0 
L 3302 271 
L 3219 271 
C 3072 271 2950 297 2848 349 
C 2746 408 2694 539 2694 742 
L 2694 1280 
L 3488 1280 
L 3488 1641 
L 2694 1641 
L 2694 4608 
L 2086 4608 
L 109 1544 
L 109 1280 
L 2080 1280 
L 2080 742 
C 2080 539 2029 408 1926 349 
C 1824 297 1702 271 1555 271 
L 1376 271 
L 1376 0 
z
M 570 1641 
L 1549 3169 
C 1587 3227 1632 3304 1690 3400 
C 1747 3491 1805 3586 1862 3683 
C 1920 3785 1978 3882 2022 3966 
C 2067 4049 2106 4113 2125 4158 
C 2118 4024 2106 3882 2099 3722 
C 2093 3561 2086 3407 2086 3247 
C 2080 3092 2080 2951 2080 2829 
L 2080 1641 
L 570 1641 
z
" transform="scale(0.015625)"/>
     </defs>
     <use xlink:href="#NotoSerif-Regular-6e" transform="scale(0.913673)"/>
     <use xlink:href="#NotoSerif-Regular-34" transform="translate(58.931929 0) scale(0.913673)"/>
    </g>
   </g>
   <g id="text_6">
    <!-- $\node{n5}$ -->
    <g transform="translate(82.349722 140.033937) scale(0.09 -0.09)">
     <defs>
      <path id="NotoSerif-Regular-35" d="M 1562 -64 
C 1888 -64 2170 0 2400 115 
C 2630 243 2803 411 2931 629 
C 3046 853 3110 1109 3110 1399 
C 3110 1700 3046 1950 2918 2155 
C 2790 2348 2618 2502 2394 2605 
C 2176 2700 1926 2752 1651 2752 
C 1466 2752 1306 2739 1184 2720 
C 1062 2694 966 2668 902 2649 
L 1024 4092 
L 2266 4092 
C 2400 4092 2490 4072 2534 4026 
C 2573 3981 2598 3916 2611 3824 
L 2637 3628 
L 2906 3628 
L 2874 4608 
L 736 4608 
L 531 2301 
L 685 2256 
C 768 2288 864 2320 973 2352 
C 1082 2385 1248 2397 1472 2397 
C 1766 2397 2003 2315 2176 2154 
C 2355 1988 2445 1737 2445 1399 
C 2445 1130 2406 918 2330 758 
C 2246 598 2138 489 1997 418 
C 1862 348 1702 316 1530 316 
C 1267 316 1075 380 947 502 
C 819 623 755 777 755 963 
C 621 963 518 931 448 860 
C 384 797 352 706 352 584 
C 352 488 384 391 461 296 
C 525 192 653 109 826 39 
C 998 -32 1248 -64 1562 -64 
z
" transform="scale(0.015625)"/>
     </defs>
     <use xlink:href="#NotoSerif-Regular-6e" transform="scale(0.913673)"/>
     <use xlink:href="#NotoSerif-Regular-35" transform="translate(58.931929 0) scale(0.913673)"/>
    </g>
   </g>
   <g id="text_7">
    <!-- $\node{n6}$ -->
    <g transform="translate(63.629722 208.433937) scale(0.09 -0.09)">
     <defs>
      <path id="NotoSerif-Regular-36" d="M 1875 -64 
C 2163 -64 2413 0 2618 130 
C 2822 266 2982 448 3085 682 
C 3200 915 3251 1181 3251 1487 
C 3251 1901 3136 2226 2906 2466 
C 2669 2699 2355 2816 1965 2816 
C 1754 2816 1574 2784 1434 2713 
C 1280 2642 1158 2565 1050 2481 
C 1069 3101 1165 3569 1331 3889 
C 1498 4202 1741 4363 2061 4363 
C 2266 4363 2413 4293 2496 4145 
C 2579 3998 2624 3826 2624 3615 
C 2950 3615 3117 3743 3117 3999 
C 3117 4172 3027 4332 2854 4467 
C 2682 4601 2413 4672 2061 4672 
C 1779 4672 1536 4608 1318 4479 
C 1114 4356 934 4182 800 3962 
C 666 3736 563 3485 493 3201 
C 422 2924 390 2626 390 2323 
C 390 1756 454 1297 589 942 
C 717 594 896 335 1114 181 
C 1344 13 1594 -64 1875 -64 
z
M 1894 290 
C 1638 290 1434 433 1280 712 
C 1133 992 1050 1461 1043 2110 
C 1126 2202 1242 2286 1382 2364 
C 1517 2449 1670 2487 1837 2487 
C 2086 2487 2272 2403 2406 2234 
C 2534 2065 2598 1792 2598 1421 
C 2598 1025 2534 739 2419 556 
C 2291 381 2118 290 1894 290 
z
" transform="scale(0.015625)"/>
     </defs>
     <use xlink:href="#NotoSerif-Regular-6e" transform="scale(0.913673)"/>
     <use xlink:href="#NotoSerif-Regular-36" transform="translate(58.931929 0) scale(0.913673)"/>
    </g>
   </g>
   <g id="text_8">
    <!-- $\node{n7}$ -->
    <g transform="translate(82.349722 276.833937) scale(0.09 -0.09)">
     <defs>
      <path id="NotoSerif-Regular-37" d="M 1126 0 
L 1696 0 
L 3270 4425 
L 3270 4612 
L 410 4612 
L 378 3444 
L 646 3444 
L 672 3766 
C 691 3986 819 4096 1043 4096 
L 2637 4096 
L 1126 0 
z
" transform="scale(0.015625)"/>
     </defs>
     <use xlink:href="#NotoSerif-Regular-6e" transform="scale(0.913673)"/>
     <use xlink:href="#NotoSerif-Regular-37" transform="translate(58.931929 0) scale(0.913673)"/>
    </g>
   </g>
   <g id="text_9">
    <!-- $\node{n8}$ -->
    <g transform="translate(132.749722 327.233937) scale(0.09 -0.09)">
     <defs>
      <path id="NotoSerif-Regular-38" d="M 1747 -64 
C 2214 -64 2592 52 2867 277 
C 3142 504 3283 826 3283 1233 
C 3283 1511 3187 1749 2989 1949 
C 2790 2150 2534 2324 2221 2472 
C 2483 2601 2688 2743 2848 2904 
C 3008 3059 3085 3278 3085 3562 
C 3085 3885 2976 4150 2752 4363 
C 2534 4569 2227 4672 1824 4672 
C 1498 4672 1229 4620 1024 4504 
C 826 4401 678 4253 582 4078 
C 486 3904 442 3717 442 3517 
C 442 3246 518 3014 672 2826 
C 826 2639 1024 2471 1267 2336 
C 1082 2246 922 2149 768 2046 
C 627 1943 506 1820 422 1677 
C 339 1536 294 1361 294 1155 
C 294 929 346 730 461 543 
C 563 355 730 206 947 103 
C 1158 -13 1427 -64 1747 -64 
z
M 1907 2622 
C 1619 2757 1408 2893 1261 3034 
C 1114 3176 1043 3363 1043 3595 
C 1043 3821 1107 4002 1235 4150 
C 1363 4298 1549 4369 1786 4369 
C 1965 4369 2106 4330 2214 4253 
C 2323 4176 2400 4079 2445 3956 
C 2490 3834 2515 3711 2515 3576 
C 2515 3350 2470 3170 2394 3021 
C 2304 2873 2144 2744 1907 2622 
z
M 1779 232 
C 1491 232 1280 316 1133 477 
C 986 645 915 865 915 1129 
C 915 1368 973 1581 1094 1756 
C 1216 1930 1376 2072 1574 2181 
C 1990 2001 2278 1827 2445 1664 
C 2618 1503 2701 1310 2701 1091 
C 2701 839 2618 632 2445 477 
C 2278 309 2054 232 1779 232 
z
" transform="scale(0.015625)"/>
     </defs>
     <use xlink:href="#NotoSerif-Regular-6e" transform="scale(0.913673)"/>
     <use xlink:href="#NotoSerif-Regular-38" transform="translate(58.931929 0) scale(0.913673)"/>
    </g>
   </g>
   <g id="text_10">
    <!-- $\node{n9}$ -->
    <g transform="translate(201.149722 345.953937) scale(0.09 -0.09)">
     <defs>
      <path id="NotoSerif-Regular-39" d="M 1453 -64 
C 1766 -64 2029 7 2253 149 
C 2470 284 2650 478 2790 716 
C 2925 954 3027 1231 3091 1541 
C 3155 1844 3187 2166 3187 2507 
C 3187 3016 3123 3429 2995 3745 
C 2867 4060 2688 4298 2470 4446 
C 2240 4595 1984 4672 1696 4672 
C 1408 4672 1165 4608 960 4467 
C 755 4339 602 4146 486 3915 
C 384 3671 326 3402 326 3094 
C 326 2664 442 2337 678 2119 
C 915 1901 1216 1792 1587 1792 
C 1811 1792 2003 1837 2157 1927 
C 2310 2018 2432 2121 2528 2231 
C 2509 1575 2413 1089 2240 771 
C 2074 453 1811 291 1459 291 
C 1261 291 1101 342 986 446 
C 864 551 774 668 717 804 
C 672 785 627 752 589 693 
C 544 642 525 577 525 494 
C 525 402 550 318 602 227 
C 659 150 755 79 890 20 
C 1024 -38 1216 -64 1453 -64 
z
M 1728 2173 
C 1478 2173 1293 2249 1171 2403 
C 1050 2556 986 2807 986 3158 
C 986 3536 1050 3824 1178 4016 
C 1299 4222 1472 4317 1696 4317 
C 1946 4317 2144 4190 2291 3934 
C 2445 3677 2528 3261 2534 2691 
C 2477 2556 2381 2435 2246 2326 
C 2112 2224 1939 2173 1728 2173 
z
" transform="scale(0.015625)"/>
     </defs>
     <use xlink:href="#NotoSerif-Regular-6e" transform="scale(0.913673)"/>
     <use xlink:href="#NotoSerif-Regular-39" transform="translate(58.931929 0) scale(0.913673)"/>
    </g>
   </g>
   <g id="text_11">
    <!-- $\node{n10}$ -->
    <g transform="translate(267.25138 327.233937) scale(0.09 -0.09)">
     <use xlink:href="#NotoSerif-Regular-6e" transform="scale(0.913673)"/>
     <use xlink:href="#NotoSerif-Regular-31" transform="translate(58.931929 0) scale(0.913673)"/>
     <use xlink:href="#NotoSerif-Regular-30" transform="translate(110.006224 0) scale(0.913673)"/>
    </g>
   </g>
   <g id="text_12">
    <!-- $\node{n11}$ -->
    <g transform="translate(317.65138 276.833937) scale(0.09 -0.09)">
     <use xlink:href="#NotoSerif-Regular-6e" transform="scale(0.913673)"/>
     <use xlink:href="#NotoSerif-Regular-31" transform="translate(58.931929 0) scale(0.913673)"/>
     <use xlink:href="#NotoSerif-Regular-31" transform="translate(110.006224 0) scale(0.913673)"/>
    </g>
   </g>
   <g id="text_13">
    <!-- $\node{n12}$ -->
    <g style="fill: #ffffff" transform="translate(393.97138 208.433937) scale(0.09 -0.09)">
     <use xlink:href="#NotoSerif-Regular-6e" transform="scale(0.913673)"/>
     <use xlink:href="#NotoSerif-Regular-31" transform="translate(58.931929 0) scale(0.913673)"/>
     <use xlink:href="#NotoSerif-Regular-32" transform="translate(110.006224 0) scale(0.913673)"/>
    </g>
   </g>
   <g id="text_14">
    <!-- $\node{n13}$ -->
    <g style="fill: #ffffff" transform="translate(368.05138 111.233937) scale(0.09 -0.09)">
     <use xlink:href="#NotoSerif-Regular-6e" transform="scale(0.913673)"/>
     <use xlink:href="#NotoSerif-Regular-31" transform="translate(58.931929 0) scale(0.913673)"/>
     <use xlink:href="#NotoSerif-Regular-33" transform="translate(110.006224 0) scale(0.913673)"/>
    </g>
   </g>
   <g id="text_15">
    <!-- $\node{n14}$ -->
    <g style="fill: #ffffff" transform="translate(296.05138 39.233937) scale(0.09 -0.09)">
     <use xlink:href="#NotoSerif-Regular-6e" transform="scale(0.913673)"/>
     <use xlink:href="#NotoSerif-Regular-31" transform="translate(58.931929 0) scale(0.913673)"/>
     <use xlink:href="#NotoSerif-Regular-34" transform="translate(110.006224 0) scale(0.913673)"/>
    </g>
   </g>
   <g id="text_16">
    <!-- $\node{n15}$ -->
    <g style="fill: #ffffff" transform="translate(198.85138 13.313937) scale(0.09 -0.09)">
     <use xlink:href="#NotoSerif-Regular-6e" transform="scale(0.913673)"/>
     <use xlink:href="#NotoSerif-Regular-31" transform="translate(58.931929 0) scale(0.913673)"/>
     <use xlink:href="#NotoSerif-Regular-35" transform="translate(110.006224 0) scale(0.913673)"/>
    </g>
   </g>
   <g id="text_17">
    <!-- $\node{n16}$ -->
    <g style="fill: #ffffff" transform="translate(101.65138 39.233937) scale(0.09 -0.09)">
     <use xlink:href="#NotoSerif-Regular-6e" transform="scale(0.913673)"/>
     <use xlink:href="#NotoSerif-Regular-31" transform="translate(58.931929 0) scale(0.913673)"/>
     <use xlink:href="#NotoSerif-Regular-36" transform="translate(110.006224 0) scale(0.913673)"/>
    </g>
   </g>
   <g id="text_18">
    <!-- $\node{n17}$ -->
    <g style="fill: #ffffff" transform="translate(29.65138 111.233937) scale(0.09 -0.09)">
     <use xlink:href="#NotoSerif-Regular-6e" transform="scale(0.913673)"/>
     <use xlink:href="#NotoSerif-Regular-31" transform="translate(58.931929 0) scale(0.913673)"/>
     <use xlink:href="#NotoSerif-Regular-37" transform="translate(110.006224 0) scale(0.913673)"/>
    </g>
   </g>
   <g id="text_19">
    <!-- $\node{n18}$ -->
    <g style="fill: #ffffff" transform="translate(3.73138 208.433937) scale(0.09 -0.09)">
     <use xlink:href="#NotoSerif-Regular-6e" transform="scale(0.913673)"/>
     <use xlink:href="#NotoSerif-Regular-31" transform="translate(58.931929 0) scale(0.913673)"/>
     <use xlink:href="#NotoSerif-Regular-38" transform="translate(110.006224 0) scale(0.913673)"/>
    </g>
   </g>
   <g id="text_20">
    <!-- $\node{n19}$ -->
    <g style="fill: #ffffff" transform="translate(29.65138 305.633937) scale(0.09 -0.09)">
     <use xlink:href="#NotoSerif-Regular-6e" transform="scale(0.913673)"/>
     <use xlink:href="#NotoSerif-Regular-31" transform="translate(58.931929 0) scale(0.913673)"/>
     <use xlink:href="#NotoSerif-Regular-39" transform="translate(110.006224 0) scale(0.913673)"/>
    </g>
   </g>
   <g id="text_21">
    <!-- $\node{n20}$ -->
    <g style="fill: #ffffff" transform="translate(101.65138 377.633937) scale(0.09 -0.09)">
     <use xlink:href="#NotoSerif-Regular-6e" transform="scale(0.913673)"/>
     <use xlink:href="#NotoSerif-Regular-32" transform="translate(58.931929 0) scale(0.913673)"/>
     <use xlink:href="#NotoSerif-Regular-30" transform="translate(110.006224 0) scale(0.913673)"/>
    </g>
   </g>
   <g id="text_22">
    <!-- $\node{n21}$ -->
    <g style="fill: #ffffff" transform="translate(198.85138 403.553937) scale(0.09 -0.09)">
     <use xlink:href="#NotoSerif-Regular-6e" transform="scale(0.913673)"/>
     <use xlink:href="#NotoSerif-Regular-32" transform="translate(58.931929 0) scale(0.913673)"/>
     <use xlink:href="#NotoSerif-Regular-31" transform="translate(110.006224 0) scale(0.913673)"/>
    </g>
   </g>
   <g id="text_23">
    <!-- $\node{n22}$ -->
    <g style="fill: #ffffff" transform="translate(296.05138 377.633937) scale(0.09 -0.09)">
     <use xlink:href="#NotoSerif-Regular-6e" transform="scale(0.913673)"/>
     <use xlink:href="#NotoSerif-Regular-32" transform="translate(58.931929 0) scale(0.913673)"/>
     <use xlink:href="#NotoSerif-Regular-32" transform="translate(110.006224 0) scale(0.913673)"/>
    </g>
   </g>
   <g id="text_24">
    <!-- $\node{n23}$ -->
    <g style="fill: #ffffff" transform="translate(368.05138 305.633937) scale(0.09 -0.09)">
     <use xlink:href="#NotoSerif-Regular-6e" transform="scale(0.913673)"/>
     <use xlink:href="#NotoSerif-Regular-32" transform="translate(58.931929 0) scale(0.913673)"/>
     <use xlink:href="#NotoSerif-Regular-33" transform="translate(110.006224 0) scale(0.913673)"/>
    </g>
   </g>
  </g>
 </g>
 <defs>
  <clipPath id="pe7f2c96181">
   <rect x="0" y="-0" width="412.2" height="412.2"/>
  </clipPath>
 </defs>
</svg>
